<ttFont>
<head>
    <!-- Most of this table will be recalculated by the compiler -->
    <tableVersion value="1.0"/>
    <fontRevision value="1.106"/>
    <checkSumAdjustment value="0xf8b61117"/>
    <magicNumber value="0x5f0f3cf5"/>
    <flags value="00000000 00000001"/>
    <unitsPerEm value="1000"/>
    <created value="Mon Sep 16 15:12:51 2019"/>
    <modified value="Mon Sep 16 15:22:46 2019"/>
    <xMin value="-192"/>
    <yMin value="-317"/>
    <xMax value="1971"/>
    <yMax value="1300"/>
    <macStyle value="00000000 00000000"/>
    <lowestRecPPEM value="6"/>
    <fontDirectionHint value="2"/>
    <indexToLocFormat value="0"/>
    <glyphDataFormat value="0"/>
  </head>
    <TTGlyph name=".notdef" xMin="-1" yMin="-180" xMax="449" yMax="720">
      <contour>
        <pt x="-1" y="-180" on="1"/>
        <pt x="-1" y="720" on="1"/>
        <pt x="449" y="720" on="1"/>
        <pt x="449" y="-180" on="1"/>
      </contour>
      <contour>
        <pt x="224" y="324" on="1"/>
        <pt x="385" y="675" on="1"/>
        <pt x="63" y="675" on="1"/>
      </contour>
      <contour>
        <pt x="44" y="-68" on="1"/>
        <pt x="199" y="270" on="1"/>
        <pt x="44" y="608" on="1"/>
      </contour>
      <contour>
        <pt x="404" y="-68" on="1"/>
        <pt x="404" y="608" on="1"/>
        <pt x="249" y="270" on="1"/>
      </contour>
      <contour>
        <pt x="63" y="-135" on="1"/>
        <pt x="385" y="-135" on="1"/>
        <pt x="224" y="216" on="1"/>
      </contour>
    </TTGlyph>
    <TTGlyph name="A" xMin="38" yMin="0" xMax="801" yMax="700">
      <contour>
        <pt x="38" y="0" on="1"/>
        <pt x="316" y="700" on="1"/>
        <pt x="524" y="700" on="1"/>
        <pt x="801" y="0" on="1"/>
        <pt x="667" y="0" on="1"/>
        <pt x="597" y="178" on="1"/>
        <pt x="240" y="178" on="1"/>
        <pt x="170" y="0" on="1"/>
      </contour>
      <contour>
        <pt x="399" y="580" on="1"/>
        <pt x="284" y="290" on="1"/>
        <pt x="553" y="290" on="1"/>
        <pt x="439" y="580" on="1"/>
      </contour>
    </TTGlyph>
    <TTGlyph name="A.sc" xMin="45" yMin="0" xMax="707" yMax="589">
      <component glyphName="a.sc" x="0" y="0" flags="0x204"/>
    </TTGlyph>
    <TTGlyph name="AE" xMin="27" yMin="0" xMax="1211" yMax="700">
      <contour>
        <pt x="616" y="0" on="1"/>
        <pt x="616" y="178" on="1"/>
        <pt x="286" y="178" on="1"/>
        <pt x="176" y="0" on="1"/>
        <pt x="27" y="0" on="1"/>
        <pt x="471" y="700" on="1"/>
        <pt x="1191" y="700" on="1"/>
        <pt x="1195" y="584" on="1"/>
        <pt x="743" y="584" on="1"/>
        <pt x="743" y="420" on="1"/>
        <pt x="1111" y="420" on="1"/>
        <pt x="1111" y="305" on="1"/>
        <pt x="743" y="305" on="1"/>
        <pt x="743" y="116" on="1"/>
        <pt x="1211" y="116" on="1"/>
        <pt x="1206" y="0" on="1"/>
      </contour>
      <contour>
        <pt x="538" y="580" on="1"/>
        <pt x="356" y="290" on="1"/>
        <pt x="616" y="290" on="1"/>
        <pt x="616" y="580" on="1"/>
      </contour>
    </TTGlyph>
    <TTGlyph name="AE.sc" xMin="28" yMin="0" xMax="1045" yMax="589">
      <component glyphName="ae.sc" x="0" y="0" flags="0x204"/>
    </TTGlyph>
    <TTGlyph name="AEacute" xMin="27" yMin="0" xMax="1211" yMax="952">
      <component glyphName="AE" x="0" y="0" flags="0x204"/>
      <component glyphName="acute" x="504" y="164" flags="0x4"/>
    </TTGlyph>
    <TTGlyph name="AEacute.sc" xMin="28" yMin="0" xMax="1045" yMax="841">
      <component glyphName="aeacute.sc" x="0" y="0" flags="0x204"/>
    </TTGlyph>
    <TTGlyph name="Aacute" xMin="38" yMin="0" xMax="801" yMax="952">
      <component glyphName="A" x="0" y="0" flags="0x204"/>
      <component glyphName="acute" x="226" y="164" flags="0x4"/>
    </TTGlyph>
    <TTGlyph name="Aacute.sc" xMin="45" yMin="0" xMax="707" yMax="841">
      <component glyphName="aacute.sc" x="0" y="0" flags="0x204"/>
    </TTGlyph>
    <TTGlyph name="Abreve" xMin="38" yMin="0" xMax="801" yMax="975">
      <component glyphName="A" x="0" y="0" flags="0x204"/>
      <component glyphName="breve" x="171" y="164" flags="0x4"/>
    </TTGlyph>
    <TTGlyph name="Abreve.sc" xMin="45" yMin="0" xMax="707" yMax="864">
      <component glyphName="abreve.sc" x="0" y="0" flags="0x204"/>
    </TTGlyph>
    <TTGlyph name="Acircumflex" xMin="38" yMin="0" xMax="801" yMax="965">
      <component glyphName="A" x="0" y="0" flags="0x204"/>
      <component glyphName="circumflex" x="171" y="164" flags="0x4"/>
    </TTGlyph>
    <TTGlyph name="Acircumflex.sc" xMin="45" yMin="0" xMax="707" yMax="854">
      <component glyphName="acircumflex.sc" x="0" y="0" flags="0x204"/>
    </TTGlyph>
    <TTGlyph name="Adieresis" xMin="38" yMin="0" xMax="801" yMax="921">
      <component glyphName="A" x="0" y="0" flags="0x204"/>
      <component glyphName="dieresis" x="171" y="164" flags="0x4"/>
    </TTGlyph>
    <TTGlyph name="Adieresis.sc" xMin="45" yMin="0" xMax="707" yMax="810">
      <component glyphName="adieresis.sc" x="0" y="0" flags="0x204"/>
    </TTGlyph>
    <TTGlyph name="Agrave" xMin="38" yMin="0" xMax="801" yMax="952">
      <component glyphName="A" x="0" y="0" flags="0x204"/>
      <component glyphName="grave" x="116" y="164" flags="0x4"/>
    </TTGlyph>
    <TTGlyph name="Agrave.sc" xMin="45" yMin="0" xMax="707" yMax="841">
      <component glyphName="agrave.sc" x="0" y="0" flags="0x204"/>
    </TTGlyph>
    <TTGlyph name="Amacron" xMin="38" yMin="0" xMax="801" yMax="898">
      <component glyphName="A" x="0" y="0" flags="0x204"/>
      <component glyphName="macron" x="171" y="164" flags="0x4"/>
    </TTGlyph>
    <TTGlyph name="Amacron.sc" xMin="45" yMin="0" xMax="707" yMax="787">
      <component glyphName="amacron.sc" x="0" y="0" flags="0x204"/>
    </TTGlyph>
    <TTGlyph name="Aogonek" xMin="38" yMin="-289" xMax="823" yMax="700">
      <contour>
        <pt x="38" y="0" on="1"/>
        <pt x="317" y="700" on="1"/>
        <pt x="524" y="700" on="1"/>
        <pt x="801" y="0" on="1"/>
        <pt x="745" y="-54" on="1"/>
        <pt x="705" y="-92" on="0"/>
        <pt x="672" y="-133" on="0"/>
        <pt x="672" y="-154" on="1"/>
        <pt x="672" y="-175" on="0"/>
        <pt x="706" y="-198" on="0"/>
        <pt x="740" y="-198" on="1"/>
        <pt x="756" y="-198" on="0"/>
        <pt x="800" y="-189" on="0"/>
        <pt x="823" y="-177" on="1"/>
        <pt x="823" y="-270" on="1"/>
        <pt x="795" y="-280" on="0"/>
        <pt x="747" y="-289" on="0"/>
        <pt x="716" y="-289" on="1"/>
        <pt x="668" y="-289" on="0"/>
        <pt x="607" y="-267" on="0"/>
        <pt x="572" y="-234" on="0"/>
        <pt x="559" y="-194" on="0"/>
        <pt x="559" y="-175" on="1"/>
        <pt x="559" y="-132" on="0"/>
        <pt x="617" y="-55" on="0"/>
        <pt x="668" y="-9" on="1"/>
        <pt x="670" y="-8" on="1"/>
        <pt x="597" y="178" on="1"/>
        <pt x="240" y="178" on="1"/>
        <pt x="170" y="0" on="1"/>
      </contour>
      <contour>
        <pt x="399" y="580" on="1"/>
        <pt x="284" y="290" on="1"/>
        <pt x="554" y="290" on="1"/>
        <pt x="440" y="580" on="1"/>
      </contour>
    </TTGlyph>
    <TTGlyph name="Aogonek.sc" xMin="45" yMin="-289" xMax="729" yMax="589">
      <component glyphName="aogonek.sc" x="0" y="0" flags="0x204"/>
    </TTGlyph>
    <TTGlyph name="Aring" xMin="38" yMin="0" xMax="801" yMax="1069">
      <component glyphName="A" x="0" y="0" flags="0x204"/>
      <component glyphName="ring" x="115" y="164" flags="0x4"/>
    </TTGlyph>
    <TTGlyph name="Aring.sc" xMin="45" yMin="0" xMax="707" yMax="958">
      <component glyphName="aring.sc" x="0" y="0" flags="0x204"/>
    </TTGlyph>
    <TTGlyph name="Aringacute" xMin="38" yMin="0" xMax="801" yMax="1300">
      <component glyphName="A" x="0" y="0" flags="0x204"/>
      <component glyphName="ring" x="115" y="164" flags="0x4"/>
      <component glyphName="acute" x="235" y="512" flags="0x4"/>
    </TTGlyph>
    <TTGlyph name="Aringacute.sc" xMin="45" yMin="0" xMax="707" yMax="1189">
      <component glyphName="aringacute.sc" x="0" y="0" flags="0x204"/>
    </TTGlyph>
    <TTGlyph name="Atilde" xMin="38" yMin="0" xMax="801" yMax="943">
      <component glyphName="A" x="0" y="0" flags="0x204"/>
      <component glyphName="tilde" x="171" y="164" flags="0x4"/>
    </TTGlyph>
    <TTGlyph name="Atilde.sc" xMin="45" yMin="0" xMax="707" yMax="832">
      <component glyphName="atilde.sc" x="0" y="0" flags="0x204"/>
    </TTGlyph>
    <TTGlyph name="B" xMin="110" yMin="0" xMax="742" yMax="700">
      <contour>
        <pt x="110" y="0" on="1"/>
        <pt x="110" y="700" on="1"/>
        <pt x="499" y="700" on="1"/>
        <pt x="606" y="700" on="0"/>
        <pt x="728" y="610" on="0"/>
        <pt x="728" y="524" on="1"/>
        <pt x="728" y="464" on="0"/>
        <pt x="669" y="380" on="0"/>
        <pt x="600" y="363" on="1"/>
        <pt x="671" y="339" on="0"/>
        <pt x="742" y="258" on="0"/>
        <pt x="742" y="195" on="1"/>
        <pt x="742" y="90" on="0"/>
        <pt x="598" y="0" on="0"/>
        <pt x="482" y="0" on="1"/>
      </contour>
      <contour>
        <pt x="234" y="409" on="1"/>
        <pt x="483" y="409" on="1"/>
        <pt x="543" y="409" on="0"/>
        <pt x="600" y="453" on="0"/>
        <pt x="600" y="500" on="1"/>
        <pt x="600" y="545" on="0"/>
        <pt x="542" y="588" on="0"/>
        <pt x="486" y="588" on="1"/>
        <pt x="234" y="588" on="1"/>
      </contour>
      <contour>
        <pt x="234" y="112" on="1"/>
        <pt x="486" y="114" on="1"/>
        <pt x="554" y="115" on="0"/>
        <pt x="615" y="162" on="0"/>
        <pt x="615" y="211" on="1"/>
        <pt x="615" y="257" on="0"/>
        <pt x="555" y="307" on="0"/>
        <pt x="489" y="307" on="1"/>
        <pt x="234" y="307" on="1"/>
      </contour>
    </TTGlyph>
    <TTGlyph name="B.sc" xMin="111" yMin="0" xMax="673" yMax="589">
      <component glyphName="b.sc" x="0" y="0" flags="0x204"/>
    </TTGlyph>
    <TTGlyph name="C" xMin="66" yMin="-15" xMax="718" yMax="715">
      <contour>
        <pt x="445" y="-15" on="1"/>
        <pt x="348" y="-15" on="0"/>
        <pt x="204" y="43" on="0"/>
        <pt x="111" y="142" on="0"/>
        <pt x="66" y="274" on="0"/>
        <pt x="66" y="347" on="1"/>
        <pt x="66" y="421" on="0"/>
        <pt x="117" y="555" on="0"/>
        <pt x="216" y="655" on="0"/>
        <pt x="363" y="715" on="0"/>
        <pt x="458" y="715" on="1"/>
        <pt x="543" y="715" on="0"/>
        <pt x="677" y="662" on="0"/>
        <pt x="718" y="631" on="1"/>
        <pt x="718" y="500" on="1"/>
        <pt x="717" y="500" on="1"/>
        <pt x="662" y="538" on="0"/>
        <pt x="538" y="599" on="0"/>
        <pt x="455" y="599" on="1"/>
        <pt x="395" y="599" on="0"/>
        <pt x="299" y="561" on="0"/>
        <pt x="233" y="494" on="0"/>
        <pt x="198" y="401" on="0"/>
        <pt x="198" y="348" on="1"/>
        <pt x="198" y="295" on="0"/>
        <pt x="231" y="205" on="0"/>
        <pt x="295" y="139" on="0"/>
        <pt x="391" y="101" on="0"/>
        <pt x="453" y="101" on="1"/>
        <pt x="535" y="101" on="0"/>
        <pt x="663" y="156" on="0"/>
        <pt x="717" y="197" on="1"/>
        <pt x="718" y="197" on="1"/>
        <pt x="718" y="66" on="1"/>
        <pt x="678" y="37" on="0"/>
        <pt x="538" y="-15" on="0"/>
      </contour>
    </TTGlyph>
    <TTGlyph name="C.sc" xMin="69" yMin="-15" xMax="635" yMax="602">
      <component glyphName="c.sc" x="0" y="0" flags="0x204"/>
    </TTGlyph>
    <TTGlyph name="Cacute" xMin="66" yMin="-15" xMax="718" yMax="967">
      <component glyphName="C" x="0" y="0" flags="0x204"/>
      <component glyphName="acute" x="249" y="179" flags="0x4"/>
    </TTGlyph>
    <TTGlyph name="Cacute.sc" xMin="69" yMin="-15" xMax="635" yMax="854">
      <component glyphName="cacute.sc" x="0" y="0" flags="0x204"/>
    </TTGlyph>
    <TTGlyph name="Ccaron" xMin="66" yMin="-15" xMax="718" yMax="980">
      <component glyphName="C" x="0" y="0" flags="0x204"/>
      <component glyphName="caron" x="196" y="179" flags="0x4"/>
    </TTGlyph>
    <TTGlyph name="Ccaron.sc" xMin="69" yMin="-15" xMax="635" yMax="867">
      <component glyphName="ccaron.sc" x="0" y="0" flags="0x204"/>
    </TTGlyph>
    <TTGlyph name="Ccedilla" xMin="66" yMin="-184" xMax="718" yMax="715">
      <contour>
        <pt x="718" y="66" on="1"/>
        <pt x="684" y="41" on="0"/>
        <pt x="571" y="-6" on="0"/>
        <pt x="496" y="-13" on="1"/>
        <pt x="399" y="-184" on="1"/>
        <pt x="243" y="-184" on="1"/>
        <pt x="243" y="-178" on="1"/>
        <pt x="387" y="-12" on="1"/>
        <pt x="305" y="-3" on="0"/>
        <pt x="183" y="60" on="0"/>
        <pt x="105" y="156" on="0"/>
        <pt x="66" y="279" on="0"/>
        <pt x="66" y="347" on="1"/>
        <pt x="66" y="421" on="0"/>
        <pt x="117" y="555" on="0"/>
        <pt x="216" y="655" on="0"/>
        <pt x="363" y="715" on="0"/>
        <pt x="458" y="715" on="1"/>
        <pt x="543" y="715" on="0"/>
        <pt x="677" y="662" on="0"/>
        <pt x="718" y="631" on="1"/>
        <pt x="718" y="500" on="1"/>
        <pt x="717" y="500" on="1"/>
        <pt x="662" y="538" on="0"/>
        <pt x="538" y="599" on="0"/>
        <pt x="455" y="599" on="1"/>
        <pt x="395" y="599" on="0"/>
        <pt x="299" y="561" on="0"/>
        <pt x="233" y="494" on="0"/>
        <pt x="198" y="401" on="0"/>
        <pt x="198" y="348" on="1"/>
        <pt x="198" y="295" on="0"/>
        <pt x="231" y="205" on="0"/>
        <pt x="295" y="139" on="0"/>
        <pt x="391" y="101" on="0"/>
        <pt x="453" y="101" on="1"/>
        <pt x="535" y="101" on="0"/>
        <pt x="663" y="156" on="0"/>
        <pt x="717" y="197" on="1"/>
        <pt x="718" y="197" on="1"/>
      </contour>
    </TTGlyph>
    <TTGlyph name="Ccedilla.sc" xMin="69" yMin="-185" xMax="635" yMax="602">
      <component glyphName="ccedilla.sc" x="0" y="0" flags="0x204"/>
    </TTGlyph>
    <TTGlyph name="Cdotaccent" xMin="66" yMin="-15" xMax="718" yMax="944">
      <component glyphName="C" x="0" y="0" flags="0x204"/>
      <component glyphName="dotaccent" x="197" y="179" flags="0x4"/>
    </TTGlyph>
    <TTGlyph name="Cdotaccent.sc" xMin="69" yMin="-15" xMax="635" yMax="831">
      <component glyphName="cdotaccent.sc" x="0" y="0" flags="0x204"/>
    </TTGlyph>
    <TTGlyph name="D" xMin="110" yMin="0" xMax="795" yMax="700">
      <contour>
        <pt x="110" y="0" on="1"/>
        <pt x="110" y="700" on="1"/>
        <pt x="443" y="700" on="1"/>
        <pt x="609" y="700" on="0"/>
        <pt x="795" y="514" on="0"/>
        <pt x="795" y="351" on="1"/>
        <pt x="795" y="188" on="0"/>
        <pt x="609" y="0" on="0"/>
        <pt x="443" y="0" on="1"/>
      </contour>
      <contour>
        <pt x="238" y="116" on="1"/>
        <pt x="442" y="116" on="1"/>
        <pt x="548" y="116" on="0"/>
        <pt x="664" y="232" on="0"/>
        <pt x="664" y="349" on="1"/>
        <pt x="664" y="466" on="0"/>
        <pt x="548" y="584" on="0"/>
        <pt x="442" y="584" on="1"/>
        <pt x="238" y="584" on="1"/>
      </contour>
    </TTGlyph>
    <TTGlyph name="D.sc" xMin="111" yMin="0" xMax="707" yMax="589">
      <component glyphName="d.sc" x="0" y="0" flags="0x204"/>
    </TTGlyph>
    <TTGlyph name="Dcaron" xMin="110" yMin="0" xMax="795" yMax="965">
      <component glyphName="D" x="0" y="0" flags="0x204"/>
      <component glyphName="caron" x="168" y="164" flags="0x4"/>
    </TTGlyph>
    <TTGlyph name="Dcaron.sc" xMin="111" yMin="0" xMax="707" yMax="854">
      <component glyphName="dcaron.sc" x="0" y="0" flags="0x204"/>
    </TTGlyph>
    <TTGlyph name="Dcroat" xMin="38" yMin="0" xMax="823" yMax="700">
      <component glyphName="Eth" x="0" y="0" flags="0x204"/>
    </TTGlyph>
    <TTGlyph name="Dcroat.sc" xMin="45" yMin="0" xMax="736" yMax="589">
      <component glyphName="dcroat.sc" x="0" y="0" flags="0x204"/>
    </TTGlyph>
    <TTGlyph name="E" xMin="110" yMin="0" xMax="705" yMax="700">
      <contour>
        <pt x="110" y="0" on="1"/>
        <pt x="110" y="700" on="1"/>
        <pt x="685" y="700" on="1"/>
        <pt x="689" y="584" on="1"/>
        <pt x="237" y="584" on="1"/>
        <pt x="237" y="420" on="1"/>
        <pt x="605" y="420" on="1"/>
        <pt x="605" y="305" on="1"/>
        <pt x="237" y="305" on="1"/>
        <pt x="237" y="116" on="1"/>
        <pt x="705" y="116" on="1"/>
        <pt x="700" y="0" on="1"/>
      </contour>
    </TTGlyph>
    <TTGlyph name="E.sc" xMin="111" yMin="0" xMax="633" yMax="589">
      <component glyphName="e.sc" x="0" y="0" flags="0x204"/>
    </TTGlyph>
    <TTGlyph name="Eacute" xMin="110" yMin="0" xMax="705" yMax="952">
      <component glyphName="E" x="0" y="0" flags="0x204"/>
      <component glyphName="acute" x="212" y="164" flags="0x4"/>
    </TTGlyph>
    <TTGlyph name="Eacute.sc" xMin="111" yMin="0" xMax="633" yMax="841">
      <component glyphName="eacute.sc" x="0" y="0" flags="0x204"/>
    </TTGlyph>
    <TTGlyph name="Ebreve" xMin="110" yMin="0" xMax="705" yMax="975">
      <component glyphName="E" x="0" y="0" flags="0x204"/>
      <component glyphName="breve" x="159" y="164" flags="0x4"/>
    </TTGlyph>
    <TTGlyph name="Ebreve.sc" xMin="111" yMin="0" xMax="633" yMax="864">
      <component glyphName="ebreve.sc" x="0" y="0" flags="0x204"/>
    </TTGlyph>
    <TTGlyph name="Ecaron" xMin="110" yMin="0" xMax="705" yMax="965">
      <component glyphName="E" x="0" y="0" flags="0x204"/>
      <component glyphName="caron" x="159" y="164" flags="0x4"/>
    </TTGlyph>
    <TTGlyph name="Ecaron.sc" xMin="111" yMin="0" xMax="633" yMax="854">
      <component glyphName="ecaron.sc" x="0" y="0" flags="0x204"/>
    </TTGlyph>
    <TTGlyph name="Ecircumflex" xMin="110" yMin="0" xMax="705" yMax="965">
      <component glyphName="E" x="0" y="0" flags="0x204"/>
      <component glyphName="circumflex" x="159" y="164" flags="0x4"/>
    </TTGlyph>
    <TTGlyph name="Ecircumflex.sc" xMin="111" yMin="0" xMax="633" yMax="854">
      <component glyphName="ecircumflex.sc" x="0" y="0" flags="0x204"/>
    </TTGlyph>
    <TTGlyph name="Edieresis" xMin="110" yMin="0" xMax="705" yMax="921">
      <component glyphName="E" x="0" y="0" flags="0x204"/>
      <component glyphName="dieresis" x="159" y="164" flags="0x4"/>
    </TTGlyph>
    <TTGlyph name="Edieresis.sc" xMin="111" yMin="0" xMax="633" yMax="810">
      <component glyphName="edieresis.sc" x="0" y="0" flags="0x204"/>
    </TTGlyph>
    <TTGlyph name="Edotaccent" xMin="110" yMin="0" xMax="705" yMax="929">
      <component glyphName="E" x="0" y="0" flags="0x204"/>
      <component glyphName="dotaccent" x="160" y="164" flags="0x4"/>
    </TTGlyph>
    <TTGlyph name="Edotaccent.sc" xMin="111" yMin="0" xMax="633" yMax="818">
      <component glyphName="edotaccent.sc" x="0" y="0" flags="0x204"/>
    </TTGlyph>
    <TTGlyph name="Egrave" xMin="110" yMin="0" xMax="705" yMax="952">
      <component glyphName="E" x="0" y="0" flags="0x204"/>
      <component glyphName="grave" x="107" y="164" flags="0x4"/>
    </TTGlyph>
    <TTGlyph name="Egrave.sc" xMin="111" yMin="0" xMax="633" yMax="841">
      <component glyphName="egrave.sc" x="0" y="0" flags="0x204"/>
    </TTGlyph>
    <TTGlyph name="Emacron" xMin="110" yMin="0" xMax="705" yMax="898">
      <component glyphName="E" x="0" y="0" flags="0x204"/>
      <component glyphName="macron" x="159" y="164" flags="0x4"/>
    </TTGlyph>
    <TTGlyph name="Emacron.sc" xMin="111" yMin="0" xMax="633" yMax="787">
      <component glyphName="emacron.sc" x="0" y="0" flags="0x204"/>
    </TTGlyph>
    <TTGlyph name="Eogonek" xMin="110" yMin="-289" xMax="722" yMax="700">
      <contour>
        <pt x="110" y="0" on="1"/>
        <pt x="110" y="700" on="1"/>
        <pt x="685" y="700" on="1"/>
        <pt x="689" y="584" on="1"/>
        <pt x="237" y="584" on="1"/>
        <pt x="237" y="420" on="1"/>
        <pt x="605" y="420" on="1"/>
        <pt x="605" y="305" on="1"/>
        <pt x="237" y="305" on="1"/>
        <pt x="237" y="116" on="1"/>
        <pt x="705" y="116" on="1"/>
        <pt x="700" y="0" on="1"/>
        <pt x="644" y="-54" on="1"/>
        <pt x="604" y="-92" on="0"/>
        <pt x="571" y="-133" on="0"/>
        <pt x="571" y="-154" on="1"/>
        <pt x="571" y="-175" on="0"/>
        <pt x="605" y="-198" on="0"/>
        <pt x="639" y="-198" on="1"/>
        <pt x="655" y="-198" on="0"/>
        <pt x="699" y="-189" on="0"/>
        <pt x="722" y="-177" on="1"/>
        <pt x="722" y="-270" on="1"/>
        <pt x="694" y="-280" on="0"/>
        <pt x="646" y="-289" on="0"/>
        <pt x="615" y="-289" on="1"/>
        <pt x="567" y="-289" on="0"/>
        <pt x="506" y="-267" on="0"/>
        <pt x="471" y="-234" on="0"/>
        <pt x="458" y="-194" on="0"/>
        <pt x="458" y="-175" on="1"/>
        <pt x="458" y="-132" on="0"/>
        <pt x="516" y="-55" on="0"/>
        <pt x="567" y="-9" on="1"/>
        <pt x="577" y="0" on="1"/>
      </contour>
    </TTGlyph>
    <TTGlyph name="Eogonek.sc" xMin="111" yMin="-289" xMax="650" yMax="589">
      <component glyphName="eogonek.sc" x="0" y="0" flags="0x204"/>
    </TTGlyph>
    <TTGlyph name="Eth" xMin="38" yMin="0" xMax="823" yMax="700">
      <contour>
        <pt x="138" y="0" on="1"/>
        <pt x="138" y="302" on="1"/>
        <pt x="38" y="302" on="1"/>
        <pt x="47" y="400" on="1"/>
        <pt x="138" y="400" on="1"/>
        <pt x="138" y="700" on="1"/>
        <pt x="471" y="700" on="1"/>
        <pt x="637" y="700" on="0"/>
        <pt x="823" y="514" on="0"/>
        <pt x="823" y="351" on="1"/>
        <pt x="823" y="188" on="0"/>
        <pt x="637" y="0" on="0"/>
        <pt x="471" y="0" on="1"/>
      </contour>
      <contour>
        <pt x="266" y="116" on="1"/>
        <pt x="470" y="116" on="1"/>
        <pt x="576" y="116" on="0"/>
        <pt x="692" y="232" on="0"/>
        <pt x="692" y="349" on="1"/>
        <pt x="692" y="466" on="0"/>
        <pt x="576" y="584" on="0"/>
        <pt x="470" y="584" on="1"/>
        <pt x="266" y="584" on="1"/>
        <pt x="266" y="400" on="1"/>
        <pt x="487" y="400" on="1"/>
        <pt x="487" y="302" on="1"/>
        <pt x="266" y="302" on="1"/>
      </contour>
    </TTGlyph>
    <TTGlyph name="Eth.sc" xMin="45" yMin="0" xMax="736" yMax="589">
      <component glyphName="eth.sc" x="0" y="0" flags="0x204"/>
    </TTGlyph>
    <TTGlyph name="Euro" xMin="50" yMin="-12" xMax="712" yMax="712">
      <contour>
        <pt x="50" y="222" on="1"/>
        <pt x="59" y="306" on="1"/>
        <pt x="157" y="306" on="1"/>
        <pt x="156" y="315" on="0"/>
        <pt x="155" y="334" on="0"/>
        <pt x="155" y="344" on="1"/>
        <pt x="155" y="357" on="0"/>
        <pt x="157" y="382" on="0"/>
        <pt x="158" y="394" on="1"/>
        <pt x="67" y="394" on="1"/>
        <pt x="76" y="478" on="1"/>
        <pt x="177" y="478" on="1"/>
        <pt x="194" y="528" on="0"/>
        <pt x="256" y="614" on="0"/>
        <pt x="343" y="676" on="0"/>
        <pt x="456" y="712" on="0"/>
        <pt x="524" y="712" on="1"/>
        <pt x="579" y="712" on="0"/>
        <pt x="673" y="688" on="0"/>
        <pt x="712" y="668" on="1"/>
        <pt x="712" y="553" on="1"/>
        <pt x="711" y="553" on="1"/>
        <pt x="660" y="580" on="0"/>
        <pt x="568" y="605" on="0"/>
        <pt x="522" y="605" on="1"/>
        <pt x="442" y="605" on="0"/>
        <pt x="331" y="536" on="0"/>
        <pt x="303" y="478" on="1"/>
        <pt x="582" y="478" on="1"/>
        <pt x="582" y="394" on="1"/>
        <pt x="278" y="394" on="1"/>
        <pt x="277" y="382" on="0"/>
        <pt x="275" y="358" on="0"/>
        <pt x="275" y="345" on="1"/>
        <pt x="275" y="335" on="0"/>
        <pt x="276" y="316" on="0"/>
        <pt x="277" y="306" on="1"/>
        <pt x="582" y="306" on="1"/>
        <pt x="582" y="222" on="1"/>
        <pt x="299" y="222" on="1"/>
        <pt x="325" y="164" on="0"/>
        <pt x="436" y="95" on="0"/>
        <pt x="518" y="95" on="1"/>
        <pt x="565" y="95" on="0"/>
        <pt x="659" y="118" on="0"/>
        <pt x="711" y="143" on="1"/>
        <pt x="712" y="143" on="1"/>
        <pt x="712" y="28" on="1"/>
        <pt x="673" y="10" on="0"/>
        <pt x="567" y="-12" on="0"/>
        <pt x="510" y="-12" on="1"/>
        <pt x="439" y="-12" on="0"/>
        <pt x="326" y="24" on="0"/>
        <pt x="243" y="86" on="0"/>
        <pt x="187" y="172" on="0"/>
        <pt x="172" y="222" on="1"/>
      </contour>
    </TTGlyph>
    <TTGlyph name="Euro.tab" xMin="26" yMin="-12" xMax="666" yMax="712">
      <contour>
        <pt x="26" y="222" on="1"/>
        <pt x="35" y="306" on="1"/>
        <pt x="130" y="306" on="1"/>
        <pt x="129" y="315" on="0"/>
        <pt x="129" y="334" on="0"/>
        <pt x="129" y="344" on="1"/>
        <pt x="129" y="357" on="0"/>
        <pt x="131" y="382" on="0"/>
        <pt x="132" y="394" on="1"/>
        <pt x="44" y="394" on="1"/>
        <pt x="52" y="478" on="1"/>
        <pt x="149" y="478" on="1"/>
        <pt x="165" y="528" on="0"/>
        <pt x="223" y="614" on="0"/>
        <pt x="307" y="676" on="0"/>
        <pt x="419" y="712" on="0"/>
        <pt x="488" y="712" on="1"/>
        <pt x="536" y="712" on="0"/>
        <pt x="627" y="692" on="0"/>
        <pt x="666" y="673" on="1"/>
        <pt x="666" y="557" on="1"/>
        <pt x="665" y="557" on="1"/>
        <pt x="614" y="583" on="0"/>
        <pt x="522" y="605" on="0"/>
        <pt x="482" y="605" on="1"/>
        <pt x="403" y="605" on="0"/>
        <pt x="298" y="536" on="0"/>
        <pt x="273" y="478" on="1"/>
        <pt x="536" y="478" on="1"/>
        <pt x="536" y="394" on="1"/>
        <pt x="252" y="394" on="1"/>
        <pt x="251" y="382" on="0"/>
        <pt x="249" y="358" on="0"/>
        <pt x="249" y="345" on="1"/>
        <pt x="249" y="335" on="0"/>
        <pt x="250" y="316" on="0"/>
        <pt x="251" y="306" on="1"/>
        <pt x="536" y="306" on="1"/>
        <pt x="536" y="222" on="1"/>
        <pt x="270" y="222" on="1"/>
        <pt x="293" y="164" on="0"/>
        <pt x="396" y="95" on="0"/>
        <pt x="478" y="95" on="1"/>
        <pt x="518" y="95" on="0"/>
        <pt x="612" y="115" on="0"/>
        <pt x="665" y="139" on="1"/>
        <pt x="666" y="139" on="1"/>
        <pt x="666" y="23" on="1"/>
        <pt x="627" y="7" on="0"/>
        <pt x="523" y="-12" on="0"/>
        <pt x="474" y="-12" on="1"/>
        <pt x="402" y="-12" on="0"/>
        <pt x="290" y="24" on="0"/>
        <pt x="210" y="86" on="0"/>
        <pt x="157" y="172" on="0"/>
        <pt x="144" y="222" on="1"/>
      </contour>
    </TTGlyph>
    <TTGlyph name="F" xMin="110" yMin="0" xMax="685" yMax="700">
      <contour>
        <pt x="110" y="0" on="1"/>
        <pt x="110" y="700" on="1"/>
        <pt x="680" y="700" on="1"/>
        <pt x="685" y="584" on="1"/>
        <pt x="238" y="584" on="1"/>
        <pt x="238" y="395" on="1"/>
        <pt x="617" y="395" on="1"/>
        <pt x="617" y="280" on="1"/>
        <pt x="238" y="280" on="1"/>
        <pt x="238" y="0" on="1"/>
      </contour>
    </TTGlyph>
    <TTGlyph name="F.sc" xMin="111" yMin="0" xMax="612" yMax="589">
      <component glyphName="f.sc" x="0" y="0" flags="0x204"/>
    </TTGlyph>
    <TTGlyph name="G" xMin="66" yMin="-17" xMax="814" yMax="715">
      <contour>
        <pt x="445" y="-17" on="1"/>
        <pt x="355" y="-17" on="0"/>
        <pt x="213" y="39" on="0"/>
        <pt x="117" y="135" on="0"/>
        <pt x="66" y="266" on="0"/>
        <pt x="66" y="341" on="1"/>
        <pt x="66" y="416" on="0"/>
        <pt x="119" y="553" on="0"/>
        <pt x="221" y="655" on="0"/>
        <pt x="369" y="715" on="0"/>
        <pt x="463" y="715" on="1"/>
        <pt x="542" y="715" on="0"/>
        <pt x="684" y="670" on="0"/>
        <pt x="730" y="633" on="1"/>
        <pt x="730" y="503" on="1"/>
        <pt x="729" y="503" on="1"/>
        <pt x="673" y="544" on="0"/>
        <pt x="543" y="599" on="0"/>
        <pt x="462" y="599" on="1"/>
        <pt x="400" y="599" on="0"/>
        <pt x="301" y="561" on="0"/>
        <pt x="234" y="493" on="0"/>
        <pt x="198" y="398" on="0"/>
        <pt x="198" y="342" on="1"/>
        <pt x="198" y="290" on="0"/>
        <pt x="231" y="200" on="0"/>
        <pt x="295" y="135" on="0"/>
        <pt x="390" y="98" on="0"/>
        <pt x="451" y="98" on="1"/>
        <pt x="552" y="98" on="0"/>
        <pt x="681" y="198" on="0"/>
        <pt x="685" y="288" on="1"/>
        <pt x="417" y="288" on="1"/>
        <pt x="417" y="395" on="1"/>
        <pt x="812" y="395" on="1"/>
        <pt x="813" y="385" on="0"/>
        <pt x="814" y="361" on="0"/>
        <pt x="814" y="342" on="1"/>
        <pt x="814" y="247" on="0"/>
        <pt x="752" y="110" on="0"/>
        <pt x="650" y="24" on="0"/>
        <pt x="516" y="-17" on="0"/>
      </contour>
    </TTGlyph>
    <TTGlyph name="G.sc" xMin="69" yMin="-16" xMax="713" yMax="602">
      <component glyphName="g.sc" x="0" y="0" flags="0x204"/>
    </TTGlyph>
    <TTGlyph name="Gbreve" xMin="66" yMin="-17" xMax="814" yMax="990">
      <component glyphName="G" x="0" y="0" flags="0x204"/>
      <component glyphName="breve" x="189" y="179" flags="0x4"/>
    </TTGlyph>
    <TTGlyph name="Gbreve.sc" xMin="69" yMin="-16" xMax="713" yMax="877">
      <component glyphName="gbreve.sc" x="0" y="0" flags="0x204"/>
    </TTGlyph>
    <TTGlyph name="Gdotaccent" xMin="66" yMin="-17" xMax="814" yMax="944">
      <component glyphName="G" x="0" y="0" flags="0x204"/>
      <component glyphName="dotaccent" x="190" y="179" flags="0x4"/>
    </TTGlyph>
    <TTGlyph name="Gdotaccent.sc" xMin="69" yMin="-16" xMax="713" yMax="831">
      <component glyphName="gdotaccent.sc" x="0" y="0" flags="0x204"/>
    </TTGlyph>
    <TTGlyph name="H" xMin="110" yMin="0" xMax="766" yMax="700">
      <contour>
        <pt x="110" y="0" on="1"/>
        <pt x="110" y="700" on="1"/>
        <pt x="238" y="700" on="1"/>
        <pt x="238" y="421" on="1"/>
        <pt x="638" y="421" on="1"/>
        <pt x="638" y="700" on="1"/>
        <pt x="766" y="700" on="1"/>
        <pt x="766" y="0" on="1"/>
        <pt x="638" y="0" on="1"/>
        <pt x="638" y="303" on="1"/>
        <pt x="238" y="303" on="1"/>
        <pt x="238" y="0" on="1"/>
      </contour>
    </TTGlyph>
    <TTGlyph name="H.sc" xMin="111" yMin="0" xMax="693" yMax="589">
      <component glyphName="h.sc" x="0" y="0" flags="0x204"/>
    </TTGlyph>
    <TTGlyph name="Hbar" xMin="38" yMin="0" xMax="894" yMax="700">
      <contour>
        <pt x="138" y="0" on="1"/>
        <pt x="138" y="499" on="1"/>
        <pt x="38" y="499" on="1"/>
        <pt x="43" y="597" on="1"/>
        <pt x="138" y="597" on="1"/>
        <pt x="138" y="700" on="1"/>
        <pt x="266" y="700" on="1"/>
        <pt x="266" y="594" on="1"/>
        <pt x="666" y="594" on="1"/>
        <pt x="666" y="700" on="1"/>
        <pt x="794" y="700" on="1"/>
        <pt x="794" y="597" on="1"/>
        <pt x="889" y="597" on="1"/>
        <pt x="894" y="499" on="1"/>
        <pt x="794" y="499" on="1"/>
        <pt x="794" y="0" on="1"/>
        <pt x="666" y="0" on="1"/>
        <pt x="666" y="270" on="1"/>
        <pt x="266" y="270" on="1"/>
        <pt x="266" y="0" on="1"/>
      </contour>
      <contour>
        <pt x="266" y="388" on="1"/>
        <pt x="666" y="388" on="1"/>
        <pt x="666" y="503" on="1"/>
        <pt x="266" y="503" on="1"/>
      </contour>
    </TTGlyph>
    <TTGlyph name="Hbar.sc" xMin="45" yMin="0" xMax="819" yMax="589">
      <component glyphName="hbar.sc" x="0" y="0" flags="0x204"/>
    </TTGlyph>
    <TTGlyph name="I" xMin="112" yMin="0" xMax="240" yMax="700">
      <contour>
        <pt x="112" y="0" on="1"/>
        <pt x="112" y="700" on="1"/>
        <pt x="240" y="700" on="1"/>
        <pt x="240" y="0" on="1"/>
      </contour>
    </TTGlyph>
    <TTGlyph name="I.sc" xMin="114" yMin="0" xMax="236" yMax="589">
      <component glyphName="i.sc" x="0" y="0" flags="0x204"/>
    </TTGlyph>
    <TTGlyph name="Iacute" xMin="112" yMin="0" xMax="405" yMax="952">
      <component glyphName="I" x="0" y="0" flags="0x204"/>
      <component glyphName="acute" x="-7" y="164" flags="0x4"/>
    </TTGlyph>
    <TTGlyph name="Iacute.sc" xMin="114" yMin="0" xMax="404" yMax="841">
      <component glyphName="iacute.sc" x="0" y="0" flags="0x204"/>
    </TTGlyph>
    <TTGlyph name="Ibreve" xMin="-12" yMin="0" xMax="363" yMax="975">
      <component glyphName="I" x="0" y="0" flags="0x204"/>
      <component glyphName="breve" x="-74" y="164" flags="0x4"/>
    </TTGlyph>
    <TTGlyph name="Ibreve.sc" xMin="-13" yMin="0" xMax="362" yMax="864">
      <component glyphName="ibreve.sc" x="0" y="0" flags="0x204"/>
    </TTGlyph>
    <TTGlyph name="Icircumflex" xMin="-43" yMin="0" xMax="395" yMax="965">
      <component glyphName="I" x="0" y="0" flags="0x204"/>
      <component glyphName="circumflex" x="-74" y="164" flags="0x4"/>
    </TTGlyph>
    <TTGlyph name="Icircumflex.sc" xMin="-44" yMin="0" xMax="394" yMax="854">
      <component glyphName="icircumflex.sc" x="0" y="0" flags="0x204"/>
    </TTGlyph>
    <TTGlyph name="Idieresis" xMin="-27" yMin="0" xMax="379" yMax="921">
      <component glyphName="I" x="0" y="0" flags="0x204"/>
      <component glyphName="dieresis" x="-74" y="164" flags="0x4"/>
    </TTGlyph>
    <TTGlyph name="Idieresis.sc" xMin="-28" yMin="0" xMax="378" yMax="810">
      <component glyphName="idieresis.sc" x="0" y="0" flags="0x204"/>
    </TTGlyph>
    <TTGlyph name="Idotaccent" xMin="96" yMin="0" xMax="256" yMax="929">
      <component glyphName="I" x="0" y="0" flags="0x204"/>
      <component glyphName="dotaccent" x="-73" y="164" flags="0x4"/>
    </TTGlyph>
    <TTGlyph name="Idotaccent.sc" xMin="95" yMin="0" xMax="255" yMax="818">
      <component glyphName="idotaccent.sc" x="0" y="0" flags="0x204"/>
    </TTGlyph>
    <TTGlyph name="Igrave" xMin="-52" yMin="0" xMax="240" yMax="952">
      <component glyphName="I" x="0" y="0" flags="0x204"/>
      <component glyphName="grave" x="-140" y="164" flags="0x4"/>
    </TTGlyph>
    <TTGlyph name="Igrave.sc" xMin="-53" yMin="0" xMax="236" yMax="841">
      <component glyphName="igrave.sc" x="0" y="0" flags="0x204"/>
    </TTGlyph>
    <TTGlyph name="Imacron" xMin="-12" yMin="0" xMax="364" yMax="898">
      <component glyphName="I" x="0" y="0" flags="0x204"/>
      <component glyphName="macron" x="-74" y="164" flags="0x4"/>
    </TTGlyph>
    <TTGlyph name="Imacron.sc" xMin="-13" yMin="0" xMax="363" yMax="787">
      <component glyphName="imacron.sc" x="0" y="0" flags="0x204"/>
    </TTGlyph>
    <TTGlyph name="Iogonek" xMin="-2" yMin="-289" xMax="262" yMax="700">
      <contour>
        <pt x="262" y="-270" on="1"/>
        <pt x="234" y="-280" on="0"/>
        <pt x="186" y="-289" on="0"/>
        <pt x="155" y="-289" on="1"/>
        <pt x="107" y="-289" on="0"/>
        <pt x="46" y="-267" on="0"/>
        <pt x="11" y="-234" on="0"/>
        <pt x="-2" y="-194" on="0"/>
        <pt x="-2" y="-175" on="1"/>
        <pt x="-2" y="-132" on="0"/>
        <pt x="56" y="-55" on="0"/>
        <pt x="107" y="-9" on="1"/>
        <pt x="112" y="-5" on="1"/>
        <pt x="112" y="700" on="1"/>
        <pt x="240" y="700" on="1"/>
        <pt x="240" y="0" on="1"/>
        <pt x="184" y="-54" on="1"/>
        <pt x="144" y="-92" on="0"/>
        <pt x="111" y="-133" on="0"/>
        <pt x="111" y="-154" on="1"/>
        <pt x="111" y="-175" on="0"/>
        <pt x="145" y="-198" on="0"/>
        <pt x="179" y="-198" on="1"/>
        <pt x="195" y="-198" on="0"/>
        <pt x="239" y="-189" on="0"/>
        <pt x="262" y="-177" on="1"/>
      </contour>
    </TTGlyph>
    <TTGlyph name="Iogonek.sc" xMin="-5" yMin="-289" xMax="259" yMax="589">
      <component glyphName="iogonek.sc" x="0" y="0" flags="0x204"/>
    </TTGlyph>
    <TTGlyph name="J" xMin="77" yMin="-16" xMax="613" yMax="700">
      <contour>
        <pt x="331" y="-16" on="1"/>
        <pt x="261" y="-16" on="0"/>
        <pt x="135" y="21" on="0"/>
        <pt x="77" y="60" on="1"/>
        <pt x="77" y="191" on="1"/>
        <pt x="78" y="191" on="1"/>
        <pt x="140" y="144" on="0"/>
        <pt x="270" y="101" on="0"/>
        <pt x="330" y="101" on="1"/>
        <pt x="402" y="101" on="0"/>
        <pt x="485" y="169" on="0"/>
        <pt x="485" y="245" on="1"/>
        <pt x="485" y="584" on="1"/>
        <pt x="205" y="584" on="1"/>
        <pt x="210" y="700" on="1"/>
        <pt x="613" y="700" on="1"/>
        <pt x="613" y="228" on="1"/>
        <pt x="613" y="104" on="0"/>
        <pt x="463" y="-16" on="0"/>
      </contour>
    </TTGlyph>
    <TTGlyph name="J.sc" xMin="75" yMin="-14" xMax="547" yMax="589">
      <component glyphName="j.sc" x="0" y="0" flags="0x204"/>
    </TTGlyph>
    <TTGlyph name="K" xMin="110" yMin="0" xMax="790" yMax="700">
      <contour>
        <pt x="110" y="0" on="1"/>
        <pt x="110" y="700" on="1"/>
        <pt x="238" y="700" on="1"/>
        <pt x="238" y="415" on="1"/>
        <pt x="375" y="415" on="1"/>
        <pt x="624" y="700" on="1"/>
        <pt x="772" y="700" on="1"/>
        <pt x="772" y="699" on="1"/>
        <pt x="478" y="363" on="1"/>
        <pt x="790" y="1" on="1"/>
        <pt x="790" y="0" on="1"/>
        <pt x="634" y="0" on="1"/>
        <pt x="371" y="301" on="1"/>
        <pt x="238" y="301" on="1"/>
        <pt x="238" y="0" on="1"/>
      </contour>
    </TTGlyph>
    <TTGlyph name="K.sc" xMin="111" yMin="0" xMax="708" yMax="589">
      <component glyphName="k.sc" x="0" y="0" flags="0x204"/>
    </TTGlyph>
    <TTGlyph name="L" xMin="110" yMin="0" xMax="653" yMax="700">
      <contour>
        <pt x="110" y="0" on="1"/>
        <pt x="110" y="700" on="1"/>
        <pt x="238" y="700" on="1"/>
        <pt x="238" y="118" on="1"/>
        <pt x="653" y="118" on="1"/>
        <pt x="649" y="0" on="1"/>
      </contour>
    </TTGlyph>
    <TTGlyph name="L.sc" xMin="111" yMin="0" xMax="588" yMax="589">
      <component glyphName="l.sc" x="0" y="0" flags="0x204"/>
    </TTGlyph>
    <TTGlyph name="Lacute" xMin="110" yMin="0" xMax="653" yMax="952">
      <component glyphName="L" x="0" y="0" flags="0x204"/>
      <component glyphName="acute" x="-10" y="164" flags="0x4"/>
    </TTGlyph>
    <TTGlyph name="Lacute.sc" xMin="111" yMin="0" xMax="588" yMax="841">
      <component glyphName="lacute.sc" x="0" y="0" flags="0x204"/>
    </TTGlyph>
    <TTGlyph name="Lcaron" xMin="110" yMin="0" xMax="653" yMax="700">
      <component glyphName="L" x="0" y="0" flags="0x204"/>
      <component glyphName="caron.alt" x="138" y="-66" flags="0x4"/>
    </TTGlyph>
    <TTGlyph name="Lcaron.sc" xMin="111" yMin="0" xMax="588" yMax="589">
      <component glyphName="lcaron.sc" x="0" y="0" flags="0x204"/>
    </TTGlyph>
    <TTGlyph name="Ldot" xMin="110" yMin="0" xMax="653" yMax="700">
      <contour>
        <pt x="110" y="0" on="1"/>
        <pt x="110" y="700" on="1"/>
        <pt x="238" y="700" on="1"/>
        <pt x="238" y="118" on="1"/>
        <pt x="653" y="118" on="1"/>
        <pt x="649" y="0" on="1"/>
      </contour>
      <contour>
        <pt x="523" y="352" on="1"/>
        <pt x="486" y="352" on="0"/>
        <pt x="443" y="397" on="0"/>
        <pt x="443" y="425" on="1"/>
        <pt x="443" y="426" on="1"/>
        <pt x="443" y="456" on="0"/>
        <pt x="486" y="499" on="0"/>
        <pt x="523" y="499" on="1"/>
        <pt x="560" y="499" on="0"/>
        <pt x="603" y="456" on="0"/>
        <pt x="603" y="426" on="1"/>
        <pt x="603" y="425" on="1"/>
        <pt x="603" y="397" on="0"/>
        <pt x="560" y="352" on="0"/>
      </contour>
    </TTGlyph>
    <TTGlyph name="Ldot.sc" xMin="111" yMin="0" xMax="588" yMax="589">
      <component glyphName="ldot.sc" x="0" y="0" flags="0x204"/>
    </TTGlyph>
    <TTGlyph name="Lslash" xMin="38" yMin="0" xMax="676" yMax="700">
      <contour>
        <pt x="132" y="0" on="1"/>
        <pt x="132" y="231" on="1"/>
        <pt x="38" y="181" on="1"/>
        <pt x="38" y="299" on="1"/>
        <pt x="132" y="349" on="1"/>
        <pt x="132" y="700" on="1"/>
        <pt x="260" y="700" on="1"/>
        <pt x="260" y="417" on="1"/>
        <pt x="502" y="546" on="1"/>
        <pt x="502" y="428" on="1"/>
        <pt x="260" y="298" on="1"/>
        <pt x="260" y="118" on="1"/>
        <pt x="676" y="118" on="1"/>
        <pt x="671" y="0" on="1"/>
      </contour>
    </TTGlyph>
    <TTGlyph name="Lslash.sc" xMin="48" yMin="0" xMax="620" yMax="589">
      <component glyphName="lslash.sc" x="0" y="0" flags="0x204"/>
    </TTGlyph>
    <TTGlyph name="M" xMin="110" yMin="0" xMax="908" yMax="700">
      <contour>
        <pt x="110" y="0" on="1"/>
        <pt x="110" y="700" on="1"/>
        <pt x="262" y="700" on="1"/>
        <pt x="510" y="267" on="1"/>
        <pt x="753" y="700" on="1"/>
        <pt x="908" y="700" on="1"/>
        <pt x="908" y="0" on="1"/>
        <pt x="781" y="0" on="1"/>
        <pt x="781" y="500" on="1"/>
        <pt x="774" y="500" on="1"/>
        <pt x="512" y="47" on="1"/>
        <pt x="502" y="47" on="1"/>
        <pt x="242" y="500" on="1"/>
        <pt x="235" y="500" on="1"/>
        <pt x="235" y="0" on="1"/>
      </contour>
    </TTGlyph>
    <TTGlyph name="M.sc" xMin="111" yMin="0" xMax="817" yMax="589">
      <component glyphName="m.sc" x="0" y="0" flags="0x204"/>
    </TTGlyph>
    <TTGlyph name="N" xMin="110" yMin="0" xMax="770" yMax="700">
      <contour>
        <pt x="110" y="0" on="1"/>
        <pt x="110" y="700" on="1"/>
        <pt x="256" y="700" on="1"/>
        <pt x="639" y="193" on="1"/>
        <pt x="645" y="193" on="1"/>
        <pt x="645" y="700" on="1"/>
        <pt x="770" y="700" on="1"/>
        <pt x="770" y="0" on="1"/>
        <pt x="632" y="0" on="1"/>
        <pt x="241" y="520" on="1"/>
        <pt x="234" y="520" on="1"/>
        <pt x="234" y="0" on="1"/>
      </contour>
    </TTGlyph>
    <TTGlyph name="N.sc" xMin="111" yMin="0" xMax="692" yMax="589">
      <component glyphName="n.sc" x="0" y="0" flags="0x204"/>
    </TTGlyph>
    <TTGlyph name="Nacute" xMin="110" yMin="0" xMax="770" yMax="927">
      <component glyphName="N" x="0" y="0" flags="0x204"/>
      <component glyphName="acute" x="261" y="139" flags="0x4"/>
    </TTGlyph>
    <TTGlyph name="Nacute.sc" xMin="111" yMin="0" xMax="692" yMax="816">
      <component glyphName="nacute.sc" x="0" y="0" flags="0x204"/>
    </TTGlyph>
    <TTGlyph name="Ncaron" xMin="110" yMin="0" xMax="770" yMax="940">
      <component glyphName="N" x="0" y="0" flags="0x204"/>
      <component glyphName="caron" x="208" y="139" flags="0x4"/>
    </TTGlyph>
    <TTGlyph name="Ncaron.sc" xMin="111" yMin="0" xMax="692" yMax="829">
      <component glyphName="ncaron.sc" x="0" y="0" flags="0x204"/>
    </TTGlyph>
    <TTGlyph name="Ntilde" xMin="110" yMin="0" xMax="770" yMax="943">
      <component glyphName="N" x="0" y="0" flags="0x204"/>
      <component glyphName="tilde" x="208" y="164" flags="0x4"/>
    </TTGlyph>
    <TTGlyph name="Ntilde.sc" xMin="111" yMin="0" xMax="692" yMax="832">
      <component glyphName="ntilde.sc" x="0" y="0" flags="0x204"/>
    </TTGlyph>
    <TTGlyph name="O" xMin="66" yMin="-17" xMax="833" yMax="717">
      <contour>
        <pt x="450" y="-17" on="1"/>
        <pt x="362" y="-17" on="0"/>
        <pt x="220" y="35" on="0"/>
        <pt x="120" y="131" on="0"/>
        <pt x="66" y="267" on="0"/>
        <pt x="66" y="350" on="1"/>
        <pt x="66" y="433" on="0"/>
        <pt x="120" y="569" on="0"/>
        <pt x="220" y="665" on="0"/>
        <pt x="362" y="717" on="0"/>
        <pt x="450" y="717" on="1"/>
        <pt x="538" y="717" on="0"/>
        <pt x="680" y="665" on="0"/>
        <pt x="779" y="569" on="0"/>
        <pt x="833" y="433" on="0"/>
        <pt x="833" y="350" on="1"/>
        <pt x="833" y="267" on="0"/>
        <pt x="779" y="131" on="0"/>
        <pt x="680" y="35" on="0"/>
        <pt x="538" y="-17" on="0"/>
      </contour>
      <contour>
        <pt x="449" y="99" on="1"/>
        <pt x="568" y="99" on="0"/>
        <pt x="702" y="234" on="0"/>
        <pt x="702" y="350" on="1"/>
        <pt x="702" y="466" on="0"/>
        <pt x="570" y="601" on="0"/>
        <pt x="451" y="601" on="1"/>
        <pt x="332" y="601" on="0"/>
        <pt x="198" y="466" on="0"/>
        <pt x="198" y="350" on="1"/>
        <pt x="198" y="234" on="0"/>
        <pt x="330" y="99" on="0"/>
      </contour>
    </TTGlyph>
    <TTGlyph name="O.sc" xMin="69" yMin="-20" xMax="738" yMax="607">
      <component glyphName="o.sc" x="0" y="0" flags="0x204"/>
    </TTGlyph>
    <TTGlyph name="OE" xMin="67" yMin="0" xMax="1220" yMax="700">
      <contour>
        <pt x="67" y="349" on="1"/>
        <pt x="67" y="512" on="0"/>
        <pt x="253" y="700" on="0"/>
        <pt x="419" y="700" on="1"/>
        <pt x="1200" y="700" on="1"/>
        <pt x="1204" y="584" on="1"/>
        <pt x="752" y="584" on="1"/>
        <pt x="752" y="420" on="1"/>
        <pt x="1120" y="420" on="1"/>
        <pt x="1120" y="305" on="1"/>
        <pt x="752" y="305" on="1"/>
        <pt x="752" y="116" on="1"/>
        <pt x="1220" y="116" on="1"/>
        <pt x="1215" y="0" on="1"/>
        <pt x="419" y="0" on="1"/>
        <pt x="253" y="0" on="0"/>
        <pt x="67" y="186" on="0"/>
      </contour>
      <contour>
        <pt x="624" y="584" on="1"/>
        <pt x="420" y="584" on="1"/>
        <pt x="314" y="584" on="0"/>
        <pt x="198" y="468" on="0"/>
        <pt x="198" y="351" on="1"/>
        <pt x="198" y="234" on="0"/>
        <pt x="314" y="116" on="0"/>
        <pt x="420" y="116" on="1"/>
        <pt x="624" y="116" on="1"/>
      </contour>
    </TTGlyph>
    <TTGlyph name="OE.sc" xMin="69" yMin="0" xMax="1063" yMax="589">
      <component glyphName="oe.sc" x="0" y="0" flags="0x204"/>
    </TTGlyph>
    <TTGlyph name="Oacute" xMin="66" yMin="-17" xMax="833" yMax="969">
      <component glyphName="O" x="0" y="0" flags="0x204"/>
      <component glyphName="acute" x="253" y="181" flags="0x4"/>
    </TTGlyph>
    <TTGlyph name="Oacute.sc" xMin="69" yMin="-20" xMax="738" yMax="859">
      <component glyphName="oacute.sc" x="0" y="0" flags="0x204"/>
    </TTGlyph>
    <TTGlyph name="Obreve" xMin="66" yMin="-17" xMax="833" yMax="992">
      <component glyphName="O" x="0" y="0" flags="0x204"/>
      <component glyphName="breve" x="200" y="181" flags="0x4"/>
    </TTGlyph>
    <TTGlyph name="Obreve.sc" xMin="69" yMin="-20" xMax="738" yMax="882">
      <component glyphName="obreve.sc" x="0" y="0" flags="0x204"/>
    </TTGlyph>
    <TTGlyph name="Ocircumflex" xMin="66" yMin="-17" xMax="833" yMax="982">
      <component glyphName="O" x="0" y="0" flags="0x204"/>
      <component glyphName="circumflex" x="200" y="181" flags="0x4"/>
    </TTGlyph>
    <TTGlyph name="Ocircumflex.sc" xMin="69" yMin="-20" xMax="738" yMax="872">
      <component glyphName="ocircumflex.sc" x="0" y="0" flags="0x204"/>
    </TTGlyph>
    <TTGlyph name="Odieresis" xMin="66" yMin="-17" xMax="833" yMax="938">
      <component glyphName="O" x="0" y="0" flags="0x204"/>
      <component glyphName="dieresis" x="200" y="181" flags="0x4"/>
    </TTGlyph>
    <TTGlyph name="Odieresis.sc" xMin="69" yMin="-20" xMax="738" yMax="828">
      <component glyphName="odieresis.sc" x="0" y="0" flags="0x204"/>
    </TTGlyph>
    <TTGlyph name="Ograve" xMin="66" yMin="-17" xMax="833" yMax="969">
      <component glyphName="O" x="0" y="0" flags="0x204"/>
      <component glyphName="grave" x="148" y="181" flags="0x4"/>
    </TTGlyph>
    <TTGlyph name="Ograve.sc" xMin="69" yMin="-20" xMax="738" yMax="859">
      <component glyphName="ograve.sc" x="0" y="0" flags="0x204"/>
    </TTGlyph>
    <TTGlyph name="Ohungarumlaut" xMin="66" yMin="-17" xMax="833" yMax="969">
      <component glyphName="O" x="0" y="0" flags="0x204"/>
      <component glyphName="hungarumlaut" x="273" y="181" flags="0x4"/>
    </TTGlyph>
    <TTGlyph name="Ohungarumlaut.sc" xMin="69" yMin="-20" xMax="738" yMax="859">
      <component glyphName="ohungarumlaut.sc" x="0" y="0" flags="0x204"/>
    </TTGlyph>
    <TTGlyph name="Omacron" xMin="66" yMin="-17" xMax="833" yMax="915">
      <component glyphName="O" x="0" y="0" flags="0x204"/>
      <component glyphName="macron" x="200" y="181" flags="0x4"/>
    </TTGlyph>
    <TTGlyph name="Omacron.sc" xMin="69" yMin="-20" xMax="738" yMax="805">
      <component glyphName="omacron.sc" x="0" y="0" flags="0x204"/>
    </TTGlyph>
    <TTGlyph name="Oslash" xMin="50" yMin="-61" xMax="849" yMax="761">
      <contour>
        <pt x="50" y="-61" on="1"/>
        <pt x="167" y="85" on="1"/>
        <pt x="118" y="133" on="0"/>
        <pt x="66" y="268" on="0"/>
        <pt x="66" y="350" on="1"/>
        <pt x="66" y="433" on="0"/>
        <pt x="120" y="569" on="0"/>
        <pt x="220" y="665" on="0"/>
        <pt x="362" y="717" on="0"/>
        <pt x="450" y="717" on="1"/>
        <pt x="505" y="717" on="0"/>
        <pt x="603" y="696" on="0"/>
        <pt x="643" y="677" on="1"/>
        <pt x="711" y="761" on="1"/>
        <pt x="849" y="761" on="1"/>
        <pt x="732" y="614" on="1"/>
        <pt x="781" y="567" on="0"/>
        <pt x="833" y="432" on="0"/>
        <pt x="833" y="350" on="1"/>
        <pt x="833" y="267" on="0"/>
        <pt x="779" y="131" on="0"/>
        <pt x="680" y="35" on="0"/>
        <pt x="538" y="-17" on="0"/>
        <pt x="450" y="-17" on="1"/>
        <pt x="396" y="-17" on="0"/>
        <pt x="297" y="4" on="0"/>
        <pt x="257" y="23" on="1"/>
        <pt x="190" y="-61" on="1"/>
      </contour>
      <contour>
        <pt x="194" y="350" on="1"/>
        <pt x="194" y="297" on="0"/>
        <pt x="222" y="209" on="0"/>
        <pt x="249" y="177" on="1"/>
        <pt x="574" y="580" on="1"/>
        <pt x="548" y="592" on="0"/>
        <pt x="486" y="604" on="0"/>
        <pt x="451" y="604" on="1"/>
        <pt x="330" y="604" on="0"/>
        <pt x="194" y="467" on="0"/>
      </contour>
      <contour>
        <pt x="449" y="96" on="1"/>
        <pt x="569" y="96" on="0"/>
        <pt x="705" y="233" on="0"/>
        <pt x="705" y="350" on="1"/>
        <pt x="705" y="403" on="0"/>
        <pt x="677" y="491" on="0"/>
        <pt x="650" y="523" on="1"/>
        <pt x="325" y="120" on="1"/>
        <pt x="351" y="108" on="0"/>
        <pt x="414" y="96" on="0"/>
      </contour>
    </TTGlyph>
    <TTGlyph name="Oslash.sc" xMin="36" yMin="-58" xMax="770" yMax="645">
      <component glyphName="oslash.sc" x="0" y="0" flags="0x204"/>
    </TTGlyph>
    <TTGlyph name="Oslashacute" xMin="50" yMin="-61" xMax="849" yMax="968">
      <component glyphName="Oslash" x="0" y="0" flags="0x204"/>
      <component glyphName="acute" x="253" y="180" flags="0x4"/>
    </TTGlyph>
    <TTGlyph name="Oslashacute.sc" xMin="36" yMin="-58" xMax="770" yMax="857">
      <component glyphName="oslashacute.sc" x="0" y="0" flags="0x204"/>
    </TTGlyph>
    <TTGlyph name="Otilde" xMin="66" yMin="-17" xMax="833" yMax="960">
      <component glyphName="O" x="0" y="0" flags="0x204"/>
      <component glyphName="tilde" x="200" y="181" flags="0x4"/>
    </TTGlyph>
    <TTGlyph name="Otilde.sc" xMin="69" yMin="-20" xMax="738" yMax="850">
      <component glyphName="otilde.sc" x="0" y="0" flags="0x204"/>
    </TTGlyph>
    <TTGlyph name="P" xMin="110" yMin="0" xMax="724" yMax="700">
      <contour>
        <pt x="110" y="0" on="1"/>
        <pt x="110" y="700" on="1"/>
        <pt x="465" y="700" on="1"/>
        <pt x="592" y="700" on="0"/>
        <pt x="724" y="569" on="0"/>
        <pt x="724" y="454" on="1"/>
        <pt x="724" y="390" on="0"/>
        <pt x="685" y="295" on="0"/>
        <pt x="614" y="232" on="0"/>
        <pt x="513" y="201" on="0"/>
        <pt x="453" y="201" on="1"/>
        <pt x="238" y="201" on="1"/>
        <pt x="238" y="0" on="1"/>
      </contour>
      <contour>
        <pt x="238" y="316" on="1"/>
        <pt x="455" y="316" on="1"/>
        <pt x="527" y="316" on="0"/>
        <pt x="594" y="390" on="0"/>
        <pt x="594" y="450" on="1"/>
        <pt x="594" y="515" on="0"/>
        <pt x="524" y="584" on="0"/>
        <pt x="453" y="584" on="1"/>
        <pt x="238" y="584" on="1"/>
      </contour>
    </TTGlyph>
    <TTGlyph name="P.sc" xMin="111" yMin="0" xMax="658" yMax="589">
      <component glyphName="p.sc" x="0" y="0" flags="0x204"/>
    </TTGlyph>
    <TTGlyph name="Q" xMin="66" yMin="-39" xMax="856" yMax="717">
      <contour>
        <pt x="450" y="717" on="1"/>
        <pt x="538" y="717" on="0"/>
        <pt x="680" y="665" on="0"/>
        <pt x="779" y="569" on="0"/>
        <pt x="833" y="433" on="0"/>
        <pt x="833" y="350" on="1"/>
        <pt x="833" y="295" on="0"/>
        <pt x="805" y="192" on="0"/>
        <pt x="778" y="149" on="1"/>
        <pt x="856" y="94" on="1"/>
        <pt x="856" y="-39" on="1"/>
        <pt x="855" y="-39" on="1"/>
        <pt x="706" y="66" on="1"/>
        <pt x="656" y="26" on="0"/>
        <pt x="525" y="-17" on="0"/>
        <pt x="450" y="-17" on="1"/>
        <pt x="362" y="-17" on="0"/>
        <pt x="220" y="35" on="0"/>
        <pt x="120" y="131" on="0"/>
        <pt x="66" y="267" on="0"/>
        <pt x="66" y="350" on="1"/>
        <pt x="66" y="433" on="0"/>
        <pt x="120" y="569" on="0"/>
        <pt x="220" y="665" on="0"/>
        <pt x="362" y="717" on="0"/>
      </contour>
      <contour>
        <pt x="451" y="601" on="1"/>
        <pt x="332" y="601" on="0"/>
        <pt x="198" y="465" on="0"/>
        <pt x="198" y="350" on="1"/>
        <pt x="198" y="235" on="0"/>
        <pt x="332" y="97" on="0"/>
        <pt x="451" y="97" on="1"/>
        <pt x="498" y="97" on="0"/>
        <pt x="576" y="118" on="0"/>
        <pt x="606" y="138" on="1"/>
        <pt x="403" y="272" on="1"/>
        <pt x="471" y="363" on="1"/>
        <pt x="677" y="220" on="1"/>
        <pt x="690" y="247" on="0"/>
        <pt x="704" y="313" on="0"/>
        <pt x="704" y="350" on="1"/>
        <pt x="704" y="465" on="0"/>
        <pt x="569" y="601" on="0"/>
      </contour>
    </TTGlyph>
    <TTGlyph name="Q.sc" xMin="69" yMin="-35" xMax="750" yMax="607">
      <component glyphName="q.sc" x="0" y="0" flags="0x204"/>
    </TTGlyph>
    <TTGlyph name="R" xMin="110" yMin="0" xMax="762" yMax="700">
      <contour>
        <pt x="110" y="0" on="1"/>
        <pt x="110" y="700" on="1"/>
        <pt x="475" y="700" on="1"/>
        <pt x="606" y="700" on="0"/>
        <pt x="736" y="578" on="0"/>
        <pt x="736" y="465" on="1"/>
        <pt x="736" y="379" on="0"/>
        <pt x="654" y="265" on="0"/>
        <pt x="576" y="243" on="1"/>
        <pt x="762" y="0" on="1"/>
        <pt x="611" y="0" on="1"/>
        <pt x="449" y="220" on="1"/>
        <pt x="238" y="220" on="1"/>
        <pt x="238" y="0" on="1"/>
      </contour>
      <contour>
        <pt x="238" y="333" on="1"/>
        <pt x="471" y="333" on="1"/>
        <pt x="545" y="333" on="0"/>
        <pt x="606" y="406" on="0"/>
        <pt x="606" y="459" on="1"/>
        <pt x="606" y="513" on="0"/>
        <pt x="545" y="584" on="0"/>
        <pt x="471" y="584" on="1"/>
        <pt x="238" y="584" on="1"/>
      </contour>
    </TTGlyph>
    <TTGlyph name="R.sc" xMin="111" yMin="0" xMax="698" yMax="589">
      <component glyphName="r.sc" x="0" y="0" flags="0x204"/>
    </TTGlyph>
    <TTGlyph name="R_p" xMin="117" yMin="-194" xMax="1403" yMax="700">
      <contour>
        <pt x="117" y="0" on="1"/>
        <pt x="117" y="700" on="1"/>
        <pt x="452" y="700" on="1"/>
        <pt x="583" y="700" on="0"/>
        <pt x="714" y="578" on="0"/>
        <pt x="714" y="465" on="1"/>
        <pt x="714" y="380" on="0"/>
        <pt x="632" y="267" on="0"/>
        <pt x="553" y="245" on="1"/>
        <pt x="739" y="0" on="1"/>
        <pt x="593" y="0" on="1"/>
        <pt x="430" y="222" on="1"/>
        <pt x="240" y="222" on="1"/>
        <pt x="240" y="0" on="1"/>
      </contour>
      <contour>
        <pt x="240" y="332" on="1"/>
        <pt x="451" y="332" on="1"/>
        <pt x="524" y="332" on="0"/>
        <pt x="589" y="405" on="0"/>
        <pt x="589" y="460" on="1"/>
        <pt x="589" y="517" on="0"/>
        <pt x="524" y="589" on="0"/>
        <pt x="451" y="589" on="1"/>
        <pt x="240" y="589" on="1"/>
      </contour>
      <contour>
        <pt x="849" y="-194" on="1"/>
        <pt x="849" y="536" on="1"/>
        <pt x="969" y="536" on="1"/>
        <pt x="970" y="466" on="1"/>
        <pt x="1001" y="500" on="0"/>
        <pt x="1094" y="551" on="0"/>
        <pt x="1157" y="551" on="1"/>
        <pt x="1207" y="551" on="0"/>
        <pt x="1297" y="514" on="0"/>
        <pt x="1364" y="445" on="0"/>
        <pt x="1403" y="342" on="0"/>
        <pt x="1403" y="277" on="1"/>
        <pt x="1403" y="214" on="0"/>
        <pt x="1358" y="107" on="0"/>
        <pt x="1281" y="29" on="0"/>
        <pt x="1174" y="-15" on="0"/>
        <pt x="1113" y="-15" on="1"/>
        <pt x="1068" y="-15" on="0"/>
        <pt x="1001" y="5" on="0"/>
        <pt x="972" y="22" on="1"/>
        <pt x="972" y="-194" on="1"/>
      </contour>
      <contour>
        <pt x="1103" y="90" on="1"/>
        <pt x="1183" y="90" on="0"/>
        <pt x="1280" y="191" on="0"/>
        <pt x="1280" y="270" on="1"/>
        <pt x="1280" y="358" on="0"/>
        <pt x="1185" y="447" on="0"/>
        <pt x="1116" y="447" on="1"/>
        <pt x="1075" y="447" on="0"/>
        <pt x="998" y="411" on="0"/>
        <pt x="972" y="386" on="1"/>
        <pt x="972" y="138" on="1"/>
        <pt x="1000" y="116" on="0"/>
        <pt x="1063" y="90" on="0"/>
      </contour>
    </TTGlyph>
    <TTGlyph name="Racute" xMin="110" yMin="0" xMax="762" yMax="952">
      <component glyphName="R" x="0" y="0" flags="0x204"/>
      <component glyphName="acute" x="205" y="164" flags="0x4"/>
    </TTGlyph>
    <TTGlyph name="Racute.sc" xMin="111" yMin="0" xMax="698" yMax="841">
      <component glyphName="racute.sc" x="0" y="0" flags="0x204"/>
    </TTGlyph>
    <TTGlyph name="Rcaron" xMin="110" yMin="0" xMax="762" yMax="965">
      <component glyphName="R" x="0" y="0" flags="0x204"/>
      <component glyphName="caron" x="152" y="164" flags="0x4"/>
    </TTGlyph>
    <TTGlyph name="Rcaron.sc" xMin="111" yMin="0" xMax="698" yMax="854">
      <component glyphName="rcaron.sc" x="0" y="0" flags="0x204"/>
    </TTGlyph>
    <TTGlyph name="S" xMin="79" yMin="-16" xMax="693" yMax="716">
      <contour>
        <pt x="393" y="-16" on="1"/>
        <pt x="295" y="-16" on="0"/>
        <pt x="140" y="27" on="0"/>
        <pt x="79" y="58" on="1"/>
        <pt x="79" y="189" on="1"/>
        <pt x="80" y="189" on="1"/>
        <pt x="153" y="148" on="0"/>
        <pt x="319" y="101" on="0"/>
        <pt x="394" y="101" on="1"/>
        <pt x="475" y="101" on="0"/>
        <pt x="559" y="152" on="0"/>
        <pt x="559" y="195" on="1"/>
        <pt x="559" y="216" on="0"/>
        <pt x="540" y="246" on="0"/>
        <pt x="492" y="270" on="0"/>
        <pt x="410" y="289" on="0"/>
        <pt x="348" y="300" on="1"/>
        <pt x="296" y="309" on="0"/>
        <pt x="200" y="336" on="0"/>
        <pt x="128" y="380" on="0"/>
        <pt x="85" y="446" on="0"/>
        <pt x="85" y="495" on="1"/>
        <pt x="85" y="538" on="0"/>
        <pt x="122" y="619" on="0"/>
        <pt x="197" y="679" on="0"/>
        <pt x="313" y="716" on="0"/>
        <pt x="390" y="716" on="1"/>
        <pt x="456" y="716" on="0"/>
        <pt x="598" y="681" on="0"/>
        <pt x="654" y="649" on="1"/>
        <pt x="654" y="518" on="1"/>
        <pt x="653" y="518" on="1"/>
        <pt x="593" y="557" on="0"/>
        <pt x="448" y="599" on="0"/>
        <pt x="380" y="599" on="1"/>
        <pt x="299" y="599" on="0"/>
        <pt x="219" y="548" on="0"/>
        <pt x="219" y="508" on="1"/>
        <pt x="219" y="459" on="0"/>
        <pt x="333" y="425" on="0"/>
        <pt x="427" y="407" on="1"/>
        <pt x="479" y="398" on="0"/>
        <pt x="576" y="371" on="0"/>
        <pt x="649" y="326" on="0"/>
        <pt x="693" y="256" on="0"/>
        <pt x="693" y="203" on="1"/>
        <pt x="693" y="169" on="0"/>
        <pt x="667" y="92" on="0"/>
        <pt x="601" y="27" on="0"/>
        <pt x="484" y="-16" on="0"/>
      </contour>
    </TTGlyph>
    <TTGlyph name="S.sc" xMin="83" yMin="-16" xMax="619" yMax="603">
      <component glyphName="s.sc" x="0" y="0" flags="0x204"/>
    </TTGlyph>
    <TTGlyph name="Sacute" xMin="79" yMin="-16" xMax="693" yMax="968">
      <component glyphName="S" x="0" y="0" flags="0x204"/>
      <component glyphName="acute" x="204" y="180" flags="0x4"/>
    </TTGlyph>
    <TTGlyph name="Sacute.sc" xMin="83" yMin="-16" xMax="619" yMax="855">
      <component glyphName="sacute.sc" x="0" y="0" flags="0x204"/>
    </TTGlyph>
    <TTGlyph name="Scaron" xMin="79" yMin="-16" xMax="693" yMax="981">
      <component glyphName="S" x="0" y="0" flags="0x204"/>
      <component glyphName="caron" x="151" y="180" flags="0x4"/>
    </TTGlyph>
    <TTGlyph name="Scaron.sc" xMin="83" yMin="-16" xMax="619" yMax="868">
      <component glyphName="scaron.sc" x="0" y="0" flags="0x204"/>
    </TTGlyph>
    <TTGlyph name="Scedilla" xMin="79" yMin="-185" xMax="693" yMax="716">
      <contour>
        <pt x="693" y="203" on="1"/>
        <pt x="693" y="172" on="0"/>
        <pt x="672" y="101" on="0"/>
        <pt x="617" y="39" on="0"/>
        <pt x="521" y="-7" on="0"/>
        <pt x="447" y="-14" on="1"/>
        <pt x="350" y="-185" on="1"/>
        <pt x="194" y="-185" on="1"/>
        <pt x="194" y="-179" on="1"/>
        <pt x="338" y="-14" on="1"/>
        <pt x="260" y="-8" on="0"/>
        <pt x="131" y="31" on="0"/>
        <pt x="79" y="58" on="1"/>
        <pt x="79" y="189" on="1"/>
        <pt x="80" y="189" on="1"/>
        <pt x="153" y="148" on="0"/>
        <pt x="319" y="101" on="0"/>
        <pt x="394" y="101" on="1"/>
        <pt x="475" y="101" on="0"/>
        <pt x="559" y="152" on="0"/>
        <pt x="559" y="195" on="1"/>
        <pt x="559" y="216" on="0"/>
        <pt x="540" y="246" on="0"/>
        <pt x="492" y="270" on="0"/>
        <pt x="410" y="289" on="0"/>
        <pt x="348" y="300" on="1"/>
        <pt x="296" y="309" on="0"/>
        <pt x="200" y="336" on="0"/>
        <pt x="128" y="380" on="0"/>
        <pt x="85" y="446" on="0"/>
        <pt x="85" y="495" on="1"/>
        <pt x="85" y="538" on="0"/>
        <pt x="122" y="619" on="0"/>
        <pt x="197" y="679" on="0"/>
        <pt x="313" y="716" on="0"/>
        <pt x="390" y="716" on="1"/>
        <pt x="456" y="716" on="0"/>
        <pt x="598" y="681" on="0"/>
        <pt x="654" y="649" on="1"/>
        <pt x="654" y="518" on="1"/>
        <pt x="653" y="518" on="1"/>
        <pt x="593" y="557" on="0"/>
        <pt x="448" y="599" on="0"/>
        <pt x="380" y="599" on="1"/>
        <pt x="299" y="599" on="0"/>
        <pt x="219" y="548" on="0"/>
        <pt x="219" y="508" on="1"/>
        <pt x="219" y="459" on="0"/>
        <pt x="333" y="425" on="0"/>
        <pt x="427" y="407" on="1"/>
        <pt x="479" y="398" on="0"/>
        <pt x="576" y="371" on="0"/>
        <pt x="649" y="326" on="0"/>
        <pt x="693" y="256" on="0"/>
      </contour>
    </TTGlyph>
    <TTGlyph name="Scedilla.sc" xMin="83" yMin="-185" xMax="619" yMax="603">
      <component glyphName="scedilla.sc" x="0" y="0" flags="0x204"/>
    </TTGlyph>
    <TTGlyph name="T" xMin="42" yMin="0" xMax="704" yMax="700">
      <contour>
        <pt x="309" y="0" on="1"/>
        <pt x="309" y="582" on="1"/>
        <pt x="42" y="582" on="1"/>
        <pt x="47" y="700" on="1"/>
        <pt x="699" y="700" on="1"/>
        <pt x="704" y="582" on="1"/>
        <pt x="437" y="582" on="1"/>
        <pt x="437" y="0" on="1"/>
      </contour>
    </TTGlyph>
    <TTGlyph name="T.sc" xMin="54" yMin="0" xMax="639" yMax="589">
      <component glyphName="t.sc" x="0" y="0" flags="0x204"/>
    </TTGlyph>
    <TTGlyph name="Tcaron" xMin="42" yMin="0" xMax="704" yMax="965">
      <component glyphName="T" x="0" y="0" flags="0x204"/>
      <component glyphName="caron" x="123" y="164" flags="0x4"/>
    </TTGlyph>
    <TTGlyph name="Tcaron.sc" xMin="54" yMin="0" xMax="639" yMax="854">
      <component glyphName="tcaron.sc" x="0" y="0" flags="0x204"/>
    </TTGlyph>
    <TTGlyph name="Thorn" xMin="110" yMin="0" xMax="732" yMax="700">
      <contour>
        <pt x="110" y="0" on="1"/>
        <pt x="110" y="700" on="1"/>
        <pt x="238" y="700" on="1"/>
        <pt x="238" y="596" on="1"/>
        <pt x="465" y="596" on="1"/>
        <pt x="598" y="596" on="0"/>
        <pt x="732" y="466" on="0"/>
        <pt x="732" y="356" on="1"/>
        <pt x="732" y="232" on="0"/>
        <pt x="580" y="108" on="0"/>
        <pt x="453" y="108" on="1"/>
        <pt x="238" y="108" on="1"/>
        <pt x="238" y="0" on="1"/>
      </contour>
      <contour>
        <pt x="238" y="223" on="1"/>
        <pt x="456" y="223" on="1"/>
        <pt x="533" y="223" on="0"/>
        <pt x="602" y="296" on="0"/>
        <pt x="602" y="352" on="1"/>
        <pt x="602" y="413" on="0"/>
        <pt x="530" y="481" on="0"/>
        <pt x="453" y="481" on="1"/>
        <pt x="238" y="481" on="1"/>
      </contour>
    </TTGlyph>
    <TTGlyph name="Thorn.sc" xMin="111" yMin="0" xMax="666" yMax="589">
      <component glyphName="thorn.sc" x="0" y="0" flags="0x204"/>
    </TTGlyph>
    <TTGlyph name="U" xMin="103" yMin="-16" xMax="761" yMax="700">
      <contour>
        <pt x="430" y="-16" on="1"/>
        <pt x="360" y="-16" on="0"/>
        <pt x="239" y="15" on="0"/>
        <pt x="153" y="83" on="0"/>
        <pt x="103" y="192" on="0"/>
        <pt x="103" y="269" on="1"/>
        <pt x="103" y="700" on="1"/>
        <pt x="231" y="700" on="1"/>
        <pt x="231" y="275" on="1"/>
        <pt x="231" y="226" on="0"/>
        <pt x="263" y="160" on="0"/>
        <pt x="318" y="120" on="0"/>
        <pt x="391" y="102" on="0"/>
        <pt x="432" y="102" on="1"/>
        <pt x="473" y="102" on="0"/>
        <pt x="546" y="119" on="0"/>
        <pt x="601" y="159" on="0"/>
        <pt x="633" y="224" on="0"/>
        <pt x="633" y="271" on="1"/>
        <pt x="633" y="700" on="1"/>
        <pt x="761" y="700" on="1"/>
        <pt x="761" y="273" on="1"/>
        <pt x="761" y="194" on="0"/>
        <pt x="710" y="84" on="0"/>
        <pt x="622" y="15" on="0"/>
        <pt x="500" y="-16" on="0"/>
      </contour>
    </TTGlyph>
    <TTGlyph name="U.sc" xMin="101" yMin="-14" xMax="675" yMax="589">
      <component glyphName="u.sc" x="0" y="0" flags="0x204"/>
    </TTGlyph>
    <TTGlyph name="Uacute" xMin="103" yMin="-16" xMax="761" yMax="928">
      <component glyphName="U" x="0" y="0" flags="0x204"/>
      <component glyphName="acute" x="235" y="140" flags="0x4"/>
    </TTGlyph>
    <TTGlyph name="Uacute.sc" xMin="101" yMin="-14" xMax="675" yMax="817">
      <component glyphName="uacute.sc" x="0" y="0" flags="0x204"/>
    </TTGlyph>
    <TTGlyph name="Ubreve" xMin="103" yMin="-16" xMax="761" yMax="951">
      <component glyphName="U" x="0" y="0" flags="0x204"/>
      <component glyphName="breve" x="182" y="140" flags="0x4"/>
    </TTGlyph>
    <TTGlyph name="Ubreve.sc" xMin="101" yMin="-14" xMax="675" yMax="840">
      <component glyphName="ubreve.sc" x="0" y="0" flags="0x204"/>
    </TTGlyph>
    <TTGlyph name="Ucircumflex" xMin="103" yMin="-16" xMax="761" yMax="965">
      <component glyphName="U" x="0" y="0" flags="0x204"/>
      <component glyphName="circumflex" x="182" y="164" flags="0x4"/>
    </TTGlyph>
    <TTGlyph name="Ucircumflex.sc" xMin="101" yMin="-14" xMax="675" yMax="854">
      <component glyphName="ucircumflex.sc" x="0" y="0" flags="0x204"/>
    </TTGlyph>
    <TTGlyph name="Udieresis" xMin="103" yMin="-16" xMax="761" yMax="921">
      <component glyphName="U" x="0" y="0" flags="0x204"/>
      <component glyphName="dieresis" x="182" y="164" flags="0x4"/>
    </TTGlyph>
    <TTGlyph name="Udieresis.sc" xMin="101" yMin="-14" xMax="675" yMax="810">
      <component glyphName="udieresis.sc" x="0" y="0" flags="0x204"/>
    </TTGlyph>
    <TTGlyph name="Ugrave" xMin="103" yMin="-16" xMax="761" yMax="928">
      <component glyphName="U" x="0" y="0" flags="0x204"/>
      <component glyphName="grave" x="130" y="140" flags="0x4"/>
    </TTGlyph>
    <TTGlyph name="Ugrave.sc" xMin="101" yMin="-14" xMax="675" yMax="817">
      <component glyphName="ugrave.sc" x="0" y="0" flags="0x204"/>
    </TTGlyph>
    <TTGlyph name="Uhungarumlaut" xMin="103" yMin="-16" xMax="761" yMax="952">
      <component glyphName="U" x="0" y="0" flags="0x204"/>
      <component glyphName="hungarumlaut" x="235" y="164" flags="0x4"/>
    </TTGlyph>
    <TTGlyph name="Uhungarumlaut.sc" xMin="101" yMin="-14" xMax="695" yMax="841">
      <component glyphName="uhungarumlaut.sc" x="0" y="0" flags="0x204"/>
    </TTGlyph>
    <TTGlyph name="Umacron" xMin="103" yMin="-16" xMax="761" yMax="898">
      <component glyphName="U" x="0" y="0" flags="0x204"/>
      <component glyphName="macron" x="182" y="164" flags="0x4"/>
    </TTGlyph>
    <TTGlyph name="Umacron.sc" xMin="101" yMin="-14" xMax="675" yMax="787">
      <component glyphName="umacron.sc" x="0" y="0" flags="0x204"/>
    </TTGlyph>
    <TTGlyph name="Uogonek" xMin="103" yMin="-295" xMax="761" yMax="700">
      <contour>
        <pt x="559" y="-276" on="1"/>
        <pt x="531" y="-286" on="0"/>
        <pt x="483" y="-295" on="0"/>
        <pt x="452" y="-295" on="1"/>
        <pt x="404" y="-295" on="0"/>
        <pt x="343" y="-273" on="0"/>
        <pt x="308" y="-240" on="0"/>
        <pt x="295" y="-200" on="0"/>
        <pt x="295" y="-181" on="1"/>
        <pt x="295" y="-138" on="0"/>
        <pt x="352" y="-61" on="0"/>
        <pt x="403" y="-15" on="1"/>
        <pt x="338" y="-12" on="0"/>
        <pt x="227" y="22" on="0"/>
        <pt x="148" y="90" on="0"/>
        <pt x="103" y="195" on="0"/>
        <pt x="103" y="269" on="1"/>
        <pt x="103" y="700" on="1"/>
        <pt x="231" y="700" on="1"/>
        <pt x="231" y="275" on="1"/>
        <pt x="231" y="226" on="0"/>
        <pt x="263" y="160" on="0"/>
        <pt x="318" y="120" on="0"/>
        <pt x="391" y="102" on="0"/>
        <pt x="432" y="102" on="1"/>
        <pt x="473" y="102" on="0"/>
        <pt x="546" y="119" on="0"/>
        <pt x="601" y="159" on="0"/>
        <pt x="633" y="224" on="0"/>
        <pt x="633" y="271" on="1"/>
        <pt x="633" y="700" on="1"/>
        <pt x="761" y="700" on="1"/>
        <pt x="761" y="273" on="1"/>
        <pt x="761" y="147" on="0"/>
        <pt x="636" y="14" on="0"/>
        <pt x="537" y="-6" on="1"/>
        <pt x="481" y="-60" on="1"/>
        <pt x="441" y="-98" on="0"/>
        <pt x="408" y="-139" on="0"/>
        <pt x="408" y="-160" on="1"/>
        <pt x="408" y="-181" on="0"/>
        <pt x="442" y="-204" on="0"/>
        <pt x="476" y="-204" on="1"/>
        <pt x="492" y="-204" on="0"/>
        <pt x="536" y="-195" on="0"/>
        <pt x="559" y="-183" on="1"/>
      </contour>
    </TTGlyph>
    <TTGlyph name="Uogonek.sc" xMin="101" yMin="-286" xMax="675" yMax="589">
      <component glyphName="uogonek.sc" x="0" y="0" flags="0x204"/>
    </TTGlyph>
    <TTGlyph name="Uring" xMin="103" yMin="-16" xMax="761" yMax="1045">
      <component glyphName="U" x="0" y="0" flags="0x204"/>
      <component glyphName="ring" x="126" y="140" flags="0x4"/>
    </TTGlyph>
    <TTGlyph name="Uring.sc" xMin="101" yMin="-14" xMax="675" yMax="934">
      <component glyphName="uring.sc" x="0" y="0" flags="0x204"/>
    </TTGlyph>
    <TTGlyph name="V" xMin="38" yMin="0" xMax="773" yMax="700">
      <contour>
        <pt x="296" y="0" on="1"/>
        <pt x="38" y="700" on="1"/>
        <pt x="177" y="700" on="1"/>
        <pt x="388" y="120" on="1"/>
        <pt x="425" y="120" on="1"/>
        <pt x="635" y="700" on="1"/>
        <pt x="773" y="700" on="1"/>
        <pt x="515" y="0" on="1"/>
      </contour>
    </TTGlyph>
    <TTGlyph name="V.sc" xMin="46" yMin="0" xMax="691" yMax="589">
      <component glyphName="v.sc" x="0" y="0" flags="0x204"/>
    </TTGlyph>
    <TTGlyph name="W" xMin="52" yMin="0" xMax="1176" yMax="700">
      <contour>
        <pt x="252" y="0" on="1"/>
        <pt x="52" y="700" on="1"/>
        <pt x="187" y="700" on="1"/>
        <pt x="343" y="127" on="1"/>
        <pt x="363" y="127" on="1"/>
        <pt x="554" y="700" on="1"/>
        <pt x="683" y="700" on="1"/>
        <pt x="872" y="127" on="1"/>
        <pt x="892" y="127" on="1"/>
        <pt x="1044" y="700" on="1"/>
        <pt x="1176" y="700" on="1"/>
        <pt x="977" y="0" on="1"/>
        <pt x="791" y="0" on="1"/>
        <pt x="620" y="520" on="1"/>
        <pt x="612" y="520" on="1"/>
        <pt x="440" y="0" on="1"/>
      </contour>
    </TTGlyph>
    <TTGlyph name="W.sc" xMin="53" yMin="0" xMax="1012" yMax="589">
      <component glyphName="w.sc" x="0" y="0" flags="0x204"/>
    </TTGlyph>
    <TTGlyph name="Wacute" xMin="52" yMin="0" xMax="1176" yMax="952">
      <component glyphName="W" x="0" y="0" flags="0x204"/>
      <component glyphName="acute" x="436" y="164" flags="0x4"/>
    </TTGlyph>
    <TTGlyph name="Wacute.sc" xMin="53" yMin="0" xMax="1012" yMax="841">
      <component glyphName="wacute.sc" x="0" y="0" flags="0x204"/>
    </TTGlyph>
    <TTGlyph name="Wcircumflex" xMin="52" yMin="0" xMax="1176" yMax="965">
      <component glyphName="W" x="0" y="0" flags="0x204"/>
      <component glyphName="circumflex" x="364" y="164" flags="0x4"/>
    </TTGlyph>
    <TTGlyph name="Wcircumflex.sc" xMin="53" yMin="0" xMax="1012" yMax="854">
      <component glyphName="wcircumflex.sc" x="0" y="0" flags="0x204"/>
    </TTGlyph>
    <TTGlyph name="Wdieresis" xMin="52" yMin="0" xMax="1176" yMax="921">
      <component glyphName="W" x="0" y="0" flags="0x204"/>
      <component glyphName="dieresis" x="364" y="164" flags="0x4"/>
    </TTGlyph>
    <TTGlyph name="Wdieresis.sc" xMin="53" yMin="0" xMax="1012" yMax="810">
      <component glyphName="wdieresis.sc" x="0" y="0" flags="0x204"/>
    </TTGlyph>
    <TTGlyph name="Wgrave" xMin="52" yMin="0" xMax="1176" yMax="952">
      <component glyphName="W" x="0" y="0" flags="0x204"/>
      <component glyphName="grave" x="303" y="164" flags="0x4"/>
    </TTGlyph>
    <TTGlyph name="Wgrave.sc" xMin="53" yMin="0" xMax="1012" yMax="841">
      <component glyphName="wgrave.sc" x="0" y="0" flags="0x204"/>
    </TTGlyph>
    <TTGlyph name="X" xMin="32" yMin="0" xMax="790" yMax="700">
      <contour>
        <pt x="184" y="0" on="1"/>
        <pt x="32" y="0" on="1"/>
        <pt x="32" y="1" on="1"/>
        <pt x="328" y="362" on="1"/>
        <pt x="53" y="699" on="1"/>
        <pt x="53" y="700" on="1"/>
        <pt x="208" y="700" on="1"/>
        <pt x="412" y="444" on="1"/>
        <pt x="618" y="700" on="1"/>
        <pt x="770" y="700" on="1"/>
        <pt x="770" y="699" on="1"/>
        <pt x="496" y="364" on="1"/>
        <pt x="790" y="1" on="1"/>
        <pt x="790" y="0" on="1"/>
        <pt x="634" y="0" on="1"/>
        <pt x="411" y="281" on="1"/>
      </contour>
    </TTGlyph>
    <TTGlyph name="X.sc" xMin="38" yMin="0" xMax="695" yMax="589">
      <component glyphName="x.sc" x="0" y="0" flags="0x204"/>
    </TTGlyph>
    <TTGlyph name="Y" xMin="22" yMin="0" xMax="781" yMax="700">
      <contour>
        <pt x="337" y="0" on="1"/>
        <pt x="337" y="241" on="1"/>
        <pt x="22" y="700" on="1"/>
        <pt x="172" y="700" on="1"/>
        <pt x="397" y="365" on="1"/>
        <pt x="407" y="365" on="1"/>
        <pt x="636" y="700" on="1"/>
        <pt x="781" y="700" on="1"/>
        <pt x="465" y="243" on="1"/>
        <pt x="465" y="0" on="1"/>
      </contour>
    </TTGlyph>
    <TTGlyph name="Y.sc" xMin="26" yMin="0" xMax="693" yMax="589">
      <component glyphName="y.sc" x="0" y="0" flags="0x204"/>
    </TTGlyph>
    <TTGlyph name="Yacute" xMin="22" yMin="0" xMax="781" yMax="928">
      <component glyphName="Y" x="0" y="0" flags="0x204"/>
      <component glyphName="acute" x="204" y="140" flags="0x4"/>
    </TTGlyph>
    <TTGlyph name="Yacute.sc" xMin="26" yMin="0" xMax="693" yMax="817">
      <component glyphName="yacute.sc" x="0" y="0" flags="0x204"/>
    </TTGlyph>
    <TTGlyph name="Ycircumflex" xMin="22" yMin="0" xMax="781" yMax="965">
      <component glyphName="Y" x="0" y="0" flags="0x204"/>
      <component glyphName="circumflex" x="151" y="164" flags="0x4"/>
    </TTGlyph>
    <TTGlyph name="Ycircumflex.sc" xMin="26" yMin="0" xMax="693" yMax="854">
      <component glyphName="ycircumflex.sc" x="0" y="0" flags="0x204"/>
    </TTGlyph>
    <TTGlyph name="Ydieresis" xMin="22" yMin="0" xMax="781" yMax="921">
      <component glyphName="Y" x="0" y="0" flags="0x204"/>
      <component glyphName="dieresis" x="151" y="164" flags="0x4"/>
    </TTGlyph>
    <TTGlyph name="Ydieresis.sc" xMin="26" yMin="0" xMax="693" yMax="810">
      <component glyphName="ydieresis.sc" x="0" y="0" flags="0x204"/>
    </TTGlyph>
    <TTGlyph name="Ygrave" xMin="22" yMin="0" xMax="781" yMax="928">
      <component glyphName="Y" x="0" y="0" flags="0x204"/>
      <component glyphName="grave" x="99" y="140" flags="0x4"/>
    </TTGlyph>
    <TTGlyph name="Ygrave.sc" xMin="26" yMin="0" xMax="693" yMax="817">
      <component glyphName="ygrave.sc" x="0" y="0" flags="0x204"/>
    </TTGlyph>
    <TTGlyph name="Z" xMin="76" yMin="0" xMax="706" yMax="700">
      <contour>
        <pt x="76" y="0" on="1"/>
        <pt x="76" y="123" on="1"/>
        <pt x="537" y="584" on="1"/>
        <pt x="89" y="584" on="1"/>
        <pt x="93" y="700" on="1"/>
        <pt x="706" y="700" on="1"/>
        <pt x="706" y="589" on="1"/>
        <pt x="235" y="116" on="1"/>
        <pt x="706" y="116" on="1"/>
        <pt x="706" y="0" on="1"/>
      </contour>
    </TTGlyph>
    <TTGlyph name="Z.sc" xMin="80" yMin="0" xMax="636" yMax="589">
      <component glyphName="z.sc" x="0" y="0" flags="0x204"/>
    </TTGlyph>
    <TTGlyph name="Zacute" xMin="76" yMin="0" xMax="706" yMax="952">
      <component glyphName="Z" x="0" y="0" flags="0x204"/>
      <component glyphName="acute" x="198" y="164" flags="0x4"/>
    </TTGlyph>
    <TTGlyph name="Zacute.sc" xMin="80" yMin="0" xMax="636" yMax="841">
      <component glyphName="zacute.sc" x="0" y="0" flags="0x204"/>
    </TTGlyph>
    <TTGlyph name="Zcaron" xMin="76" yMin="0" xMax="706" yMax="965">
      <component glyphName="Z" x="0" y="0" flags="0x204"/>
      <component glyphName="caron" x="145" y="164" flags="0x4"/>
    </TTGlyph>
    <TTGlyph name="Zcaron.sc" xMin="80" yMin="0" xMax="636" yMax="854">
      <component glyphName="zcaron.sc" x="0" y="0" flags="0x204"/>
    </TTGlyph>
    <TTGlyph name="Zdotaccent" xMin="76" yMin="0" xMax="706" yMax="929">
      <component glyphName="Z" x="0" y="0" flags="0x204"/>
      <component glyphName="dotaccent" x="146" y="164" flags="0x4"/>
    </TTGlyph>
    <TTGlyph name="Zdotaccent.sc" xMin="80" yMin="0" xMax="636" yMax="818">
      <component glyphName="zdotaccent.sc" x="0" y="0" flags="0x204"/>
    </TTGlyph>
    <TTGlyph name="a" xMin="55" yMin="-15" xMax="546" yMax="551">
      <contour>
        <pt x="237" y="-15" on="1"/>
        <pt x="147" y="-15" on="0"/>
        <pt x="55" y="69" on="0"/>
        <pt x="55" y="132" on="1"/>
        <pt x="55" y="166" on="0"/>
        <pt x="79" y="218" on="0"/>
        <pt x="98" y="237" on="1"/>
        <pt x="124" y="264" on="0"/>
        <pt x="272" y="318" on="0"/>
        <pt x="424" y="325" on="1"/>
        <pt x="424" y="345" on="1"/>
        <pt x="424" y="392" on="0"/>
        <pt x="370" y="446" on="0"/>
        <pt x="311" y="446" on="1"/>
        <pt x="258" y="446" on="0"/>
        <pt x="150" y="406" on="0"/>
        <pt x="100" y="369" on="1"/>
        <pt x="99" y="369" on="1"/>
        <pt x="99" y="485" on="1"/>
        <pt x="155" y="519" on="0"/>
        <pt x="270" y="551" on="0"/>
        <pt x="327" y="551" on="1"/>
        <pt x="438" y="551" on="0"/>
        <pt x="546" y="438" on="0"/>
        <pt x="546" y="340" on="1"/>
        <pt x="546" y="0" on="1"/>
        <pt x="433" y="0" on="1"/>
        <pt x="430" y="72" on="1"/>
        <pt x="393" y="32" on="0"/>
        <pt x="298" y="-15" on="0"/>
      </contour>
      <contour>
        <pt x="264" y="76" on="1"/>
        <pt x="314" y="76" on="0"/>
        <pt x="399" y="118" on="0"/>
        <pt x="424" y="145" on="1"/>
        <pt x="424" y="247" on="1"/>
        <pt x="323" y="240" on="0"/>
        <pt x="216" y="210" on="0"/>
        <pt x="194" y="188" on="1"/>
        <pt x="184" y="178" on="0"/>
        <pt x="175" y="154" on="0"/>
        <pt x="175" y="142" on="1"/>
        <pt x="175" y="112" on="0"/>
        <pt x="223" y="76" on="0"/>
      </contour>
    </TTGlyph>
    <TTGlyph name="a.sc" xMin="45" yMin="0" xMax="707" yMax="589">
      <contour>
        <pt x="45" y="0" on="1"/>
        <pt x="263" y="589" on="1"/>
        <pt x="489" y="589" on="1"/>
        <pt x="707" y="0" on="1"/>
        <pt x="580" y="0" on="1"/>
        <pt x="531" y="133" on="1"/>
        <pt x="219" y="133" on="1"/>
        <pt x="172" y="0" on="1"/>
      </contour>
      <contour>
        <pt x="348" y="483" on="1"/>
        <pt x="255" y="235" on="1"/>
        <pt x="494" y="235" on="1"/>
        <pt x="404" y="483" on="1"/>
      </contour>
    </TTGlyph>
    <TTGlyph name="aacute" xMin="55" yMin="-15" xMax="546" yMax="803">
      <component glyphName="a" x="0" y="0" flags="0x204"/>
      <component glyphName="acute" x="124" y="15" flags="0x4"/>
    </TTGlyph>
    <TTGlyph name="aacute.sc" xMin="45" yMin="0" xMax="707" yMax="841">
      <component glyphName="a.sc" x="0" y="0" flags="0x204"/>
      <component glyphName="acute" x="181" y="53" flags="0x4"/>
    </TTGlyph>
    <TTGlyph name="abreve" xMin="55" yMin="-15" xMax="546" yMax="826">
      <component glyphName="a" x="0" y="0" flags="0x204"/>
      <component glyphName="breve" x="71" y="15" flags="0x4"/>
    </TTGlyph>
    <TTGlyph name="abreve.sc" xMin="45" yMin="0" xMax="707" yMax="864">
      <component glyphName="a.sc" x="0" y="0" flags="0x204"/>
      <component glyphName="breve" x="128" y="53" flags="0x4"/>
    </TTGlyph>
    <TTGlyph name="acircumflex" xMin="55" yMin="-15" xMax="546" yMax="816">
      <component glyphName="a" x="0" y="0" flags="0x204"/>
      <component glyphName="circumflex" x="71" y="15" flags="0x4"/>
    </TTGlyph>
    <TTGlyph name="acircumflex.sc" xMin="45" yMin="0" xMax="707" yMax="854">
      <component glyphName="a.sc" x="0" y="0" flags="0x204"/>
      <component glyphName="circumflex" x="128" y="53" flags="0x4"/>
    </TTGlyph>
    <TTGlyph name="acute" xMin="127" yMin="624" xMax="412" yMax="788">
      <contour>
        <pt x="127" y="624" on="1"/>
        <pt x="252" y="788" on="1"/>
        <pt x="412" y="788" on="1"/>
        <pt x="412" y="782" on="1"/>
        <pt x="241" y="624" on="1"/>
      </contour>
    </TTGlyph>
    <TTGlyph name="adieresis" xMin="55" yMin="-15" xMax="546" yMax="772">
      <component glyphName="a" x="0" y="0" flags="0x204"/>
      <component glyphName="dieresis" x="71" y="15" flags="0x4"/>
    </TTGlyph>
    <TTGlyph name="adieresis.sc" xMin="45" yMin="0" xMax="707" yMax="810">
      <component glyphName="a.sc" x="0" y="0" flags="0x204"/>
      <component glyphName="dieresis" x="128" y="53" flags="0x4"/>
    </TTGlyph>
    <TTGlyph name="ae" xMin="55" yMin="-15" xMax="967" yMax="551">
      <contour>
        <pt x="936" y="41" on="1"/>
        <pt x="900" y="19" on="0"/>
        <pt x="793" y="-15" on="0"/>
        <pt x="727" y="-15" on="1"/>
        <pt x="637" y="-15" on="0"/>
        <pt x="512" y="41" on="0"/>
        <pt x="477" y="90" on="1"/>
        <pt x="422" y="33" on="0"/>
        <pt x="306" y="-15" on="0"/>
        <pt x="239" y="-15" on="1"/>
        <pt x="146" y="-15" on="0"/>
        <pt x="55" y="69" on="0"/>
        <pt x="55" y="132" on="1"/>
        <pt x="55" y="166" on="0"/>
        <pt x="80" y="219" on="0"/>
        <pt x="98" y="237" on="1"/>
        <pt x="126" y="264" on="0"/>
        <pt x="273" y="318" on="0"/>
        <pt x="427" y="326" on="1"/>
        <pt x="427" y="347" on="1"/>
        <pt x="427" y="394" on="0"/>
        <pt x="368" y="446" on="0"/>
        <pt x="311" y="446" on="1"/>
        <pt x="258" y="446" on="0"/>
        <pt x="150" y="406" on="0"/>
        <pt x="100" y="369" on="1"/>
        <pt x="99" y="369" on="1"/>
        <pt x="99" y="485" on="1"/>
        <pt x="155" y="519" on="0"/>
        <pt x="269" y="551" on="0"/>
        <pt x="323" y="551" on="1"/>
        <pt x="393" y="551" on="0"/>
        <pt x="489" y="503" on="0"/>
        <pt x="510" y="459" on="1"/>
        <pt x="540" y="500" on="0"/>
        <pt x="644" y="551" on="0"/>
        <pt x="708" y="551" on="1"/>
        <pt x="774" y="551" on="0"/>
        <pt x="872" y="507" on="0"/>
        <pt x="936" y="433" on="0"/>
        <pt x="967" y="332" on="0"/>
        <pt x="967" y="275" on="1"/>
        <pt x="967" y="265" on="0"/>
        <pt x="965" y="245" on="0"/>
        <pt x="964" y="236" on="1"/>
        <pt x="546" y="236" on="1"/>
        <pt x="553" y="164" on="0"/>
        <pt x="650" y="88" on="0"/>
        <pt x="731" y="88" on="1"/>
        <pt x="790" y="88" on="0"/>
        <pt x="889" y="122" on="0"/>
        <pt x="935" y="150" on="1"/>
        <pt x="936" y="150" on="1"/>
      </contour>
      <contour>
        <pt x="705" y="451" on="1"/>
        <pt x="645" y="451" on="0"/>
        <pt x="564" y="379" on="0"/>
        <pt x="551" y="318" on="1"/>
        <pt x="850" y="318" on="1"/>
        <pt x="846" y="376" on="0"/>
        <pt x="771" y="451" on="0"/>
      </contour>
      <contour>
        <pt x="175" y="142" on="1"/>
        <pt x="175" y="111" on="0"/>
        <pt x="223" y="76" on="0"/>
        <pt x="264" y="76" on="1"/>
        <pt x="321" y="76" on="0"/>
        <pt x="410" y="119" on="0"/>
        <pt x="444" y="150" on="1"/>
        <pt x="436" y="172" on="0"/>
        <pt x="426" y="221" on="0"/>
        <pt x="425" y="246" on="1"/>
        <pt x="321" y="239" on="0"/>
        <pt x="216" y="210" on="0"/>
        <pt x="194" y="188" on="1"/>
        <pt x="185" y="179" on="0"/>
        <pt x="175" y="155" on="0"/>
      </contour>
    </TTGlyph>
    <TTGlyph name="ae.sc" xMin="28" yMin="0" xMax="1045" yMax="589">
      <contour>
        <pt x="523" y="0" on="1"/>
        <pt x="523" y="140" on="1"/>
        <pt x="246" y="140" on="1"/>
        <pt x="162" y="0" on="1"/>
        <pt x="28" y="0" on="1"/>
        <pt x="391" y="589" on="1"/>
        <pt x="1025" y="589" on="1"/>
        <pt x="1030" y="485" on="1"/>
        <pt x="646" y="485" on="1"/>
        <pt x="646" y="347" on="1"/>
        <pt x="955" y="347" on="1"/>
        <pt x="955" y="247" on="1"/>
        <pt x="646" y="247" on="1"/>
        <pt x="646" y="104" on="1"/>
        <pt x="1045" y="104" on="1"/>
        <pt x="1040" y="0" on="1"/>
      </contour>
      <contour>
        <pt x="459" y="485" on="1"/>
        <pt x="309" y="242" on="1"/>
        <pt x="523" y="242" on="1"/>
        <pt x="523" y="485" on="1"/>
      </contour>
    </TTGlyph>
    <TTGlyph name="aeacute" xMin="55" yMin="-15" xMax="967" yMax="788">
      <component glyphName="ae" x="0" y="0" flags="0x204"/>
      <component glyphName="acute" x="329" y="0" flags="0x4"/>
    </TTGlyph>
    <TTGlyph name="aeacute.sc" xMin="28" yMin="0" xMax="1045" yMax="841">
      <component glyphName="ae.sc" x="0" y="0" flags="0x204"/>
      <component glyphName="acute" x="420" y="53" flags="0x4"/>
    </TTGlyph>
    <TTGlyph name="agrave" xMin="55" yMin="-15" xMax="546" yMax="803">
      <component glyphName="a" x="0" y="0" flags="0x204"/>
      <component glyphName="grave" x="19" y="15" flags="0x4"/>
    </TTGlyph>
    <TTGlyph name="agrave.sc" xMin="45" yMin="0" xMax="707" yMax="841">
      <component glyphName="a.sc" x="0" y="0" flags="0x204"/>
      <component glyphName="grave" x="76" y="53" flags="0x4"/>
    </TTGlyph>
    <TTGlyph name="amacron" xMin="55" yMin="-15" xMax="546" yMax="749">
      <component glyphName="a" x="0" y="0" flags="0x204"/>
      <component glyphName="macron" x="71" y="15" flags="0x4"/>
    </TTGlyph>
    <TTGlyph name="amacron.sc" xMin="45" yMin="0" xMax="707" yMax="787">
      <component glyphName="a.sc" x="0" y="0" flags="0x204"/>
      <component glyphName="macron" x="128" y="53" flags="0x4"/>
    </TTGlyph>
    <TTGlyph name="ampersand" xMin="64" yMin="-16" xMax="829" yMax="700">
      <contour>
        <pt x="278" y="-16" on="1"/>
        <pt x="183" y="-16" on="0"/>
        <pt x="64" y="77" on="0"/>
        <pt x="64" y="164" on="1"/>
        <pt x="64" y="239" on="0"/>
        <pt x="179" y="358" on="0"/>
        <pt x="283" y="418" on="1"/>
        <pt x="298" y="427" on="1"/>
        <pt x="164" y="577" on="1"/>
        <pt x="164" y="700" on="1"/>
        <pt x="668" y="700" on="1"/>
        <pt x="672" y="594" on="1"/>
        <pt x="309" y="594" on="1"/>
        <pt x="594" y="269" on="1"/>
        <pt x="784" y="445" on="1"/>
        <pt x="785" y="445" on="1"/>
        <pt x="785" y="304" on="1"/>
        <pt x="660" y="192" on="1"/>
        <pt x="829" y="0" on="1"/>
        <pt x="677" y="0" on="1"/>
        <pt x="574" y="113" on="1"/>
        <pt x="500" y="54" on="0"/>
        <pt x="363" y="-16" on="0"/>
      </contour>
      <contour>
        <pt x="190" y="175" on="1"/>
        <pt x="190" y="138" on="0"/>
        <pt x="245" y="92" on="0"/>
        <pt x="291" y="92" on="1"/>
        <pt x="339" y="92" on="0"/>
        <pt x="439" y="138" on="0"/>
        <pt x="508" y="192" on="1"/>
        <pt x="367" y="350" on="1"/>
        <pt x="361" y="346" on="1"/>
        <pt x="271" y="293" on="0"/>
        <pt x="190" y="219" on="0"/>
      </contour>
    </TTGlyph>
    <TTGlyph name="ampersand.sc" xMin="74" yMin="-15" xMax="783" yMax="589">
      <contour>
        <pt x="261" y="-15" on="1"/>
        <pt x="177" y="-15" on="0"/>
        <pt x="74" y="65" on="0"/>
        <pt x="74" y="135" on="1"/>
        <pt x="74" y="201" on="0"/>
        <pt x="161" y="295" on="0"/>
        <pt x="248" y="350" on="1"/>
        <pt x="269" y="364" on="1"/>
        <pt x="156" y="475" on="1"/>
        <pt x="156" y="589" on="1"/>
        <pt x="626" y="589" on="1"/>
        <pt x="630" y="491" on="1"/>
        <pt x="294" y="491" on="1"/>
        <pt x="549" y="237" on="1"/>
        <pt x="727" y="383" on="1"/>
        <pt x="728" y="383" on="1"/>
        <pt x="728" y="255" on="1"/>
        <pt x="617" y="165" on="1"/>
        <pt x="783" y="0" on="1"/>
        <pt x="636" y="0" on="1"/>
        <pt x="535" y="98" on="1"/>
        <pt x="458" y="41" on="0"/>
        <pt x="332" y="-15" on="0"/>
      </contour>
      <contour>
        <pt x="196" y="149" on="1"/>
        <pt x="196" y="118" on="0"/>
        <pt x="238" y="87" on="0"/>
        <pt x="270" y="87" on="1"/>
        <pt x="305" y="87" on="0"/>
        <pt x="393" y="120" on="0"/>
        <pt x="463" y="172" on="1"/>
        <pt x="339" y="295" on="1"/>
        <pt x="323" y="285" on="1"/>
        <pt x="251" y="240" on="0"/>
        <pt x="196" y="180" on="0"/>
      </contour>
    </TTGlyph>
    <TTGlyph name="aogonek" xMin="55" yMin="-289" xMax="568" yMax="551">
      <contour>
        <pt x="237" y="-15" on="1"/>
        <pt x="147" y="-15" on="0"/>
        <pt x="55" y="69" on="0"/>
        <pt x="55" y="132" on="1"/>
        <pt x="55" y="166" on="0"/>
        <pt x="79" y="218" on="0"/>
        <pt x="98" y="237" on="1"/>
        <pt x="124" y="264" on="0"/>
        <pt x="272" y="318" on="0"/>
        <pt x="424" y="325" on="1"/>
        <pt x="424" y="345" on="1"/>
        <pt x="424" y="392" on="0"/>
        <pt x="370" y="446" on="0"/>
        <pt x="311" y="446" on="1"/>
        <pt x="258" y="446" on="0"/>
        <pt x="150" y="406" on="0"/>
        <pt x="100" y="369" on="1"/>
        <pt x="99" y="369" on="1"/>
        <pt x="99" y="485" on="1"/>
        <pt x="155" y="519" on="0"/>
        <pt x="270" y="551" on="0"/>
        <pt x="327" y="551" on="1"/>
        <pt x="438" y="551" on="0"/>
        <pt x="546" y="438" on="0"/>
        <pt x="546" y="340" on="1"/>
        <pt x="546" y="0" on="1"/>
        <pt x="490" y="-54" on="1"/>
        <pt x="450" y="-92" on="0"/>
        <pt x="417" y="-133" on="0"/>
        <pt x="417" y="-154" on="1"/>
        <pt x="417" y="-175" on="0"/>
        <pt x="451" y="-198" on="0"/>
        <pt x="485" y="-198" on="1"/>
        <pt x="501" y="-198" on="0"/>
        <pt x="545" y="-189" on="0"/>
        <pt x="568" y="-177" on="1"/>
        <pt x="568" y="-270" on="1"/>
        <pt x="540" y="-280" on="0"/>
        <pt x="492" y="-289" on="0"/>
        <pt x="461" y="-289" on="1"/>
        <pt x="413" y="-289" on="0"/>
        <pt x="352" y="-267" on="0"/>
        <pt x="317" y="-234" on="0"/>
        <pt x="304" y="-194" on="0"/>
        <pt x="304" y="-175" on="1"/>
        <pt x="304" y="-132" on="0"/>
        <pt x="362" y="-55" on="0"/>
        <pt x="413" y="-9" on="1"/>
        <pt x="432" y="8" on="1"/>
        <pt x="430" y="71" on="1"/>
        <pt x="393" y="31" on="0"/>
        <pt x="298" y="-15" on="0"/>
      </contour>
      <contour>
        <pt x="264" y="76" on="1"/>
        <pt x="314" y="76" on="0"/>
        <pt x="399" y="118" on="0"/>
        <pt x="424" y="145" on="1"/>
        <pt x="424" y="247" on="1"/>
        <pt x="323" y="240" on="0"/>
        <pt x="216" y="210" on="0"/>
        <pt x="194" y="188" on="1"/>
        <pt x="184" y="178" on="0"/>
        <pt x="175" y="154" on="0"/>
        <pt x="175" y="142" on="1"/>
        <pt x="175" y="112" on="0"/>
        <pt x="223" y="76" on="0"/>
      </contour>
    </TTGlyph>
    <TTGlyph name="aogonek.sc" xMin="45" yMin="-289" xMax="729" yMax="589">
      <contour>
        <pt x="45" y="0" on="1"/>
        <pt x="263" y="589" on="1"/>
        <pt x="489" y="589" on="1"/>
        <pt x="707" y="0" on="1"/>
        <pt x="651" y="-54" on="1"/>
        <pt x="611" y="-92" on="0"/>
        <pt x="578" y="-133" on="0"/>
        <pt x="578" y="-154" on="1"/>
        <pt x="578" y="-175" on="0"/>
        <pt x="612" y="-198" on="0"/>
        <pt x="646" y="-198" on="1"/>
        <pt x="662" y="-198" on="0"/>
        <pt x="706" y="-189" on="0"/>
        <pt x="729" y="-177" on="1"/>
        <pt x="729" y="-270" on="1"/>
        <pt x="701" y="-280" on="0"/>
        <pt x="653" y="-289" on="0"/>
        <pt x="622" y="-289" on="1"/>
        <pt x="574" y="-289" on="0"/>
        <pt x="513" y="-267" on="0"/>
        <pt x="478" y="-234" on="0"/>
        <pt x="465" y="-194" on="0"/>
        <pt x="465" y="-175" on="1"/>
        <pt x="465" y="-132" on="0"/>
        <pt x="523" y="-55" on="0"/>
        <pt x="574" y="-9" on="1"/>
        <pt x="581" y="-3" on="1"/>
        <pt x="531" y="133" on="1"/>
        <pt x="219" y="133" on="1"/>
        <pt x="172" y="0" on="1"/>
      </contour>
      <contour>
        <pt x="348" y="483" on="1"/>
        <pt x="255" y="235" on="1"/>
        <pt x="494" y="235" on="1"/>
        <pt x="404" y="483" on="1"/>
      </contour>
    </TTGlyph>
    <TTGlyph name="aring" xMin="55" yMin="-15" xMax="546" yMax="920">
      <component glyphName="a" x="0" y="0" flags="0x204"/>
      <component glyphName="ring" x="15" y="15" flags="0x4"/>
    </TTGlyph>
    <TTGlyph name="aring.sc" xMin="45" yMin="0" xMax="707" yMax="958">
      <component glyphName="a.sc" x="0" y="0" flags="0x204"/>
      <component glyphName="ring" x="72" y="53" flags="0x4"/>
    </TTGlyph>
    <TTGlyph name="aringacute" xMin="55" yMin="-15" xMax="547" yMax="1151">
      <component glyphName="a" x="0" y="0" flags="0x204"/>
      <component glyphName="ring" x="15" y="15" flags="0x4"/>
      <component glyphName="acute" x="135" y="363" flags="0x4"/>
    </TTGlyph>
    <TTGlyph name="aringacute.sc" xMin="45" yMin="0" xMax="707" yMax="1189">
      <component glyphName="a.sc" x="0" y="0" flags="0x204"/>
      <component glyphName="ring" x="72" y="53" flags="0x4"/>
      <component glyphName="acute" x="181" y="401" flags="0x4"/>
    </TTGlyph>
    <TTGlyph name="asciicircum" xMin="78" yMin="362" xMax="641" yMax="700">
      <contour>
        <pt x="78" y="362" on="1"/>
        <pt x="271" y="700" on="1"/>
        <pt x="444" y="700" on="1"/>
        <pt x="641" y="362" on="1"/>
        <pt x="508" y="362" on="1"/>
        <pt x="380" y="586" on="1"/>
        <pt x="333" y="586" on="1"/>
        <pt x="209" y="362" on="1"/>
      </contour>
    </TTGlyph>
    <TTGlyph name="asciicircum.tab" xMin="80" yMin="362" xMax="643" yMax="700">
      <component glyphName="asciicircum" x="2" y="0" flags="0x4"/>
    </TTGlyph>
    <TTGlyph name="asciitilde" xMin="95" yMin="230" xMax="657" yMax="471">
      <contour>
        <pt x="95" y="379" on="1"/>
        <pt x="126" y="413" on="0"/>
        <pt x="200" y="459" on="0"/>
        <pt x="249" y="459" on="1"/>
        <pt x="292" y="459" on="0"/>
        <pt x="359" y="429" on="0"/>
        <pt x="402" y="403" on="1"/>
        <pt x="444" y="378" on="0"/>
        <pt x="483" y="362" on="0"/>
        <pt x="505" y="362" on="1"/>
        <pt x="543" y="362" on="0"/>
        <pt x="613" y="417" on="0"/>
        <pt x="656" y="471" on="1"/>
        <pt x="657" y="471" on="1"/>
        <pt x="657" y="321" on="1"/>
        <pt x="626" y="287" on="0"/>
        <pt x="551" y="242" on="0"/>
        <pt x="502" y="242" on="1"/>
        <pt x="459" y="242" on="0"/>
        <pt x="393" y="271" on="0"/>
        <pt x="350" y="297" on="1"/>
        <pt x="307" y="323" on="0"/>
        <pt x="269" y="338" on="0"/>
        <pt x="247" y="338" on="1"/>
        <pt x="209" y="338" on="0"/>
        <pt x="139" y="283" on="0"/>
        <pt x="96" y="230" on="1"/>
        <pt x="95" y="230" on="1"/>
      </contour>
    </TTGlyph>
    <TTGlyph name="asciitilde.tab" xMin="81" yMin="230" xMax="643" yMax="471">
      <component glyphName="asciitilde" x="-14" y="0" flags="0x4"/>
    </TTGlyph>
    <TTGlyph name="asterisk" xMin="73" yMin="331" xMax="443" yMax="710">
      <contour>
        <pt x="359" y="362" on="1"/>
        <pt x="275" y="414" on="1"/>
        <pt x="223" y="331" on="1"/>
        <pt x="195" y="338" on="1"/>
        <pt x="184" y="435" on="1"/>
        <pt x="85" y="424" on="1"/>
        <pt x="73" y="450" on="1"/>
        <pt x="143" y="521" on="1"/>
        <pt x="73" y="590" on="1"/>
        <pt x="86" y="617" on="1"/>
        <pt x="183" y="606" on="1"/>
        <pt x="194" y="704" on="1"/>
        <pt x="222" y="710" on="1"/>
        <pt x="275" y="627" on="1"/>
        <pt x="360" y="680" on="1"/>
        <pt x="383" y="662" on="1"/>
        <pt x="350" y="568" on="1"/>
        <pt x="443" y="536" on="1"/>
        <pt x="443" y="506" on="1"/>
        <pt x="349" y="473" on="1"/>
        <pt x="382" y="380" on="1"/>
      </contour>
    </TTGlyph>
    <TTGlyph name="at" xMin="95" yMin="-111" xMax="1006" yMax="769">
      <contour>
        <pt x="808" y="119" on="1"/>
        <pt x="758" y="119" on="0"/>
        <pt x="684" y="156" on="0"/>
        <pt x="667" y="196" on="1"/>
        <pt x="633" y="161" on="0"/>
        <pt x="552" y="122" on="0"/>
        <pt x="505" y="122" on="1"/>
        <pt x="437" y="122" on="0"/>
        <pt x="367" y="186" on="0"/>
        <pt x="367" y="235" on="1"/>
        <pt x="367" y="263" on="0"/>
        <pt x="385" y="302" on="0"/>
        <pt x="399" y="316" on="1"/>
        <pt x="419" y="336" on="0"/>
        <pt x="531" y="378" on="0"/>
        <pt x="648" y="385" on="1"/>
        <pt x="648" y="398" on="1"/>
        <pt x="648" y="432" on="0"/>
        <pt x="608" y="469" on="0"/>
        <pt x="566" y="469" on="1"/>
        <pt x="523" y="469" on="0"/>
        <pt x="440" y="439" on="0"/>
        <pt x="401" y="411" on="1"/>
        <pt x="401" y="504" on="1"/>
        <pt x="444" y="531" on="0"/>
        <pt x="533" y="556" on="0"/>
        <pt x="579" y="556" on="1"/>
        <pt x="665" y="556" on="0"/>
        <pt x="747" y="468" on="0"/>
        <pt x="747" y="393" on="1"/>
        <pt x="747" y="282" on="1"/>
        <pt x="747" y="239" on="0"/>
        <pt x="781" y="201" on="0"/>
        <pt x="815" y="201" on="1"/>
        <pt x="859" y="201" on="0"/>
        <pt x="910" y="285" on="0"/>
        <pt x="910" y="375" on="1"/>
        <pt x="910" y="437" on="0"/>
        <pt x="872" y="548" on="0"/>
        <pt x="792" y="631" on="0"/>
        <pt x="665" y="679" on="0"/>
        <pt x="576" y="679" on="1"/>
        <pt x="489" y="679" on="0"/>
        <pt x="348" y="630" on="0"/>
        <pt x="249" y="538" on="0"/>
        <pt x="196" y="400" on="0"/>
        <pt x="196" y="312" on="1"/>
        <pt x="196" y="148" on="0"/>
        <pt x="386" y="-20" on="0"/>
        <pt x="564" y="-20" on="1"/>
        <pt x="653" y="-20" on="0"/>
        <pt x="791" y="15" on="0"/>
        <pt x="854" y="45" on="1"/>
        <pt x="854" y="-51" on="1"/>
        <pt x="803" y="-76" on="0"/>
        <pt x="647" y="-111" on="0"/>
        <pt x="563" y="-111" on="1"/>
        <pt x="445" y="-111" on="0"/>
        <pt x="269" y="-52" on="0"/>
        <pt x="153" y="58" on="0"/>
        <pt x="95" y="215" on="0"/>
        <pt x="95" y="312" on="1"/>
        <pt x="95" y="419" on="0"/>
        <pt x="165" y="589" on="0"/>
        <pt x="292" y="706" on="0"/>
        <pt x="469" y="769" on="0"/>
        <pt x="575" y="769" on="1"/>
        <pt x="682" y="769" on="0"/>
        <pt x="844" y="711" on="0"/>
        <pt x="952" y="607" on="0"/>
        <pt x="1006" y="462" on="0"/>
        <pt x="1006" y="376" on="1"/>
        <pt x="1006" y="324" on="0"/>
        <pt x="985" y="230" on="0"/>
        <pt x="937" y="160" on="0"/>
        <pt x="862" y="119" on="0"/>
      </contour>
      <contour>
        <pt x="528" y="196" on="1"/>
        <pt x="565" y="196" on="0"/>
        <pt x="628" y="227" on="0"/>
        <pt x="648" y="247" on="1"/>
        <pt x="648" y="321" on="1"/>
        <pt x="573" y="315" on="0"/>
        <pt x="495" y="293" on="0"/>
        <pt x="479" y="277" on="1"/>
        <pt x="471" y="269" on="0"/>
        <pt x="466" y="250" on="0"/>
        <pt x="466" y="243" on="1"/>
        <pt x="466" y="221" on="0"/>
        <pt x="499" y="196" on="0"/>
      </contour>
    </TTGlyph>
    <TTGlyph name="at.cap" xMin="95" yMin="-91" xMax="1006" yMax="789">
      <component glyphName="at" x="0" y="20" flags="0x4"/>
    </TTGlyph>
    <TTGlyph name="atilde" xMin="55" yMin="-15" xMax="546" yMax="794">
      <component glyphName="a" x="0" y="0" flags="0x204"/>
      <component glyphName="tilde" x="71" y="15" flags="0x4"/>
    </TTGlyph>
    <TTGlyph name="atilde.sc" xMin="45" yMin="0" xMax="707" yMax="832">
      <component glyphName="a.sc" x="0" y="0" flags="0x204"/>
      <component glyphName="tilde" x="128" y="53" flags="0x4"/>
    </TTGlyph>
    <TTGlyph name="b" xMin="88" yMin="-15" xMax="640" yMax="754">
      <contour>
        <pt x="210" y="754" on="1"/>
        <pt x="210" y="480" on="1"/>
        <pt x="239" y="508" on="0"/>
        <pt x="328" y="551" on="0"/>
        <pt x="388" y="551" on="1"/>
        <pt x="439" y="551" on="0"/>
        <pt x="531" y="515" on="0"/>
        <pt x="599" y="447" on="0"/>
        <pt x="640" y="349" on="0"/>
        <pt x="640" y="287" on="1"/>
        <pt x="640" y="220" on="0"/>
        <pt x="595" y="109" on="0"/>
        <pt x="517" y="29" on="0"/>
        <pt x="408" y="-15" on="0"/>
        <pt x="344" y="-15" on="1"/>
        <pt x="299" y="-15" on="0"/>
        <pt x="209" y="6" on="0"/>
        <pt x="169" y="22" on="1"/>
        <pt x="88" y="22" on="1"/>
        <pt x="88" y="754" on="1"/>
      </contour>
      <contour>
        <pt x="356" y="447" on="1"/>
        <pt x="309" y="447" on="0"/>
        <pt x="235" y="414" on="0"/>
        <pt x="210" y="392" on="1"/>
        <pt x="210" y="120" on="1"/>
        <pt x="238" y="105" on="0"/>
        <pt x="303" y="86" on="0"/>
        <pt x="339" y="86" on="1"/>
        <pt x="376" y="86" on="0"/>
        <pt x="441" y="112" on="0"/>
        <pt x="490" y="161" on="0"/>
        <pt x="518" y="233" on="0"/>
        <pt x="518" y="279" on="1"/>
        <pt x="518" y="362" on="0"/>
        <pt x="426" y="447" on="0"/>
      </contour>
    </TTGlyph>
    <TTGlyph name="b.sc" xMin="111" yMin="0" xMax="673" yMax="589">
      <contour>
        <pt x="111" y="0" on="1"/>
        <pt x="111" y="589" on="1"/>
        <pt x="459" y="589" on="1"/>
        <pt x="555" y="589" on="0"/>
        <pt x="661" y="514" on="0"/>
        <pt x="661" y="441" on="1"/>
        <pt x="661" y="392" on="0"/>
        <pt x="611" y="322" on="0"/>
        <pt x="551" y="306" on="1"/>
        <pt x="613" y="284" on="0"/>
        <pt x="673" y="218" on="0"/>
        <pt x="673" y="165" on="1"/>
        <pt x="673" y="75" on="0"/>
        <pt x="547" y="0" on="0"/>
        <pt x="443" y="0" on="1"/>
      </contour>
      <contour>
        <pt x="231" y="347" on="1"/>
        <pt x="435" y="347" on="1"/>
        <pt x="487" y="347" on="0"/>
        <pt x="540" y="382" on="0"/>
        <pt x="540" y="419" on="1"/>
        <pt x="540" y="453" on="0"/>
        <pt x="489" y="486" on="0"/>
        <pt x="440" y="486" on="1"/>
        <pt x="231" y="486" on="1"/>
      </contour>
      <contour>
        <pt x="231" y="103" on="1"/>
        <pt x="445" y="104" on="1"/>
        <pt x="500" y="105" on="0"/>
        <pt x="552" y="141" on="0"/>
        <pt x="552" y="180" on="1"/>
        <pt x="552" y="217" on="0"/>
        <pt x="498" y="254" on="0"/>
        <pt x="441" y="254" on="1"/>
        <pt x="231" y="254" on="1"/>
      </contour>
    </TTGlyph>
    <TTGlyph name="backslash" xMin="49" yMin="-194" xMax="482" yMax="754">
      <contour>
        <pt x="482" y="-194" on="1"/>
        <pt x="369" y="-194" on="1"/>
        <pt x="49" y="754" on="1"/>
        <pt x="163" y="754" on="1"/>
      </contour>
    </TTGlyph>
    <TTGlyph name="backslash.cap" xMin="53" yMin="-124" xMax="486" yMax="824">
      <component glyphName="backslash" x="4" y="70" flags="0x4"/>
    </TTGlyph>
    <TTGlyph name="bar" xMin="194" yMin="-194" xMax="307" yMax="754">
      <contour>
        <pt x="194" y="-194" on="1"/>
        <pt x="194" y="754" on="1"/>
        <pt x="307" y="754" on="1"/>
        <pt x="307" y="-194" on="1"/>
      </contour>
    </TTGlyph>
    <TTGlyph name="bar.cap" xMin="194" yMin="-124" xMax="307" yMax="824">
      <component glyphName="bar" x="0" y="70" flags="0x4"/>
    </TTGlyph>
    <TTGlyph name="bar.tab" xMin="214" yMin="-124" xMax="327" yMax="824">
      <component glyphName="bar" x="20" y="70" flags="0x4"/>
    </TTGlyph>
    <TTGlyph name="braceleft" xMin="28" yMin="-207" xMax="483" yMax="767">
      <contour>
        <pt x="28" y="268" on="1"/>
        <pt x="28" y="292" on="1"/>
        <pt x="173" y="422" on="1"/>
        <pt x="172" y="431" on="0"/>
        <pt x="167" y="462" on="0"/>
        <pt x="164" y="493" on="0"/>
        <pt x="161" y="516" on="0"/>
        <pt x="161" y="518" on="1"/>
        <pt x="160" y="529" on="0"/>
        <pt x="159" y="551" on="0"/>
        <pt x="159" y="561" on="1"/>
        <pt x="159" y="618" on="0"/>
        <pt x="194" y="698" on="0"/>
        <pt x="254" y="746" on="0"/>
        <pt x="333" y="767" on="0"/>
        <pt x="376" y="767" on="1"/>
        <pt x="407" y="767" on="0"/>
        <pt x="460" y="759" on="0"/>
        <pt x="483" y="752" on="1"/>
        <pt x="483" y="648" on="1"/>
        <pt x="482" y="648" on="1"/>
        <pt x="463" y="655" on="0"/>
        <pt x="417" y="663" on="0"/>
        <pt x="394" y="663" on="1"/>
        <pt x="348" y="663" on="0"/>
        <pt x="278" y="614" on="0"/>
        <pt x="278" y="543" on="1"/>
        <pt x="278" y="536" on="0"/>
        <pt x="279" y="519" on="0"/>
        <pt x="280" y="510" on="1"/>
        <pt x="280" y="508" on="0"/>
        <pt x="284" y="475" on="0"/>
        <pt x="289" y="434" on="0"/>
        <pt x="294" y="393" on="0"/>
        <pt x="295" y="383" on="1"/>
        <pt x="172" y="280" on="1"/>
        <pt x="295" y="177" on="1"/>
        <pt x="294" y="167" on="0"/>
        <pt x="289" y="126" on="0"/>
        <pt x="284" y="85" on="0"/>
        <pt x="280" y="52" on="0"/>
        <pt x="280" y="50" on="1"/>
        <pt x="279" y="41" on="0"/>
        <pt x="278" y="24" on="0"/>
        <pt x="278" y="17" on="1"/>
        <pt x="278" y="-54" on="0"/>
        <pt x="348" y="-99" on="0"/>
        <pt x="394" y="-99" on="1"/>
        <pt x="417" y="-99" on="0"/>
        <pt x="463" y="-91" on="0"/>
        <pt x="482" y="-84" on="1"/>
        <pt x="483" y="-84" on="1"/>
        <pt x="483" y="-192" on="1"/>
        <pt x="460" y="-199" on="0"/>
        <pt x="407" y="-207" on="0"/>
        <pt x="376" y="-207" on="1"/>
        <pt x="333" y="-207" on="0"/>
        <pt x="254" y="-186" on="0"/>
        <pt x="194" y="-138" on="0"/>
        <pt x="159" y="-58" on="0"/>
        <pt x="159" y="-1" on="1"/>
        <pt x="159" y="9" on="0"/>
        <pt x="160" y="31" on="0"/>
        <pt x="161" y="42" on="1"/>
        <pt x="161" y="44" on="0"/>
        <pt x="164" y="67" on="0"/>
        <pt x="167" y="98" on="0"/>
        <pt x="172" y="129" on="0"/>
        <pt x="173" y="138" on="1"/>
      </contour>
    </TTGlyph>
    <TTGlyph name="braceleft.cap" xMin="28" yMin="-137" xMax="483" yMax="837">
      <component glyphName="braceleft" x="0" y="70" flags="0x4"/>
    </TTGlyph>
    <TTGlyph name="braceright" xMin="51" yMin="-207" xMax="506" yMax="767">
      <contour>
        <pt x="506" y="292" on="1"/>
        <pt x="506" y="268" on="1"/>
        <pt x="361" y="138" on="1"/>
        <pt x="362" y="129" on="0"/>
        <pt x="367" y="98" on="0"/>
        <pt x="370" y="67" on="0"/>
        <pt x="373" y="44" on="0"/>
        <pt x="373" y="42" on="1"/>
        <pt x="374" y="31" on="0"/>
        <pt x="375" y="9" on="0"/>
        <pt x="375" y="-1" on="1"/>
        <pt x="375" y="-58" on="0"/>
        <pt x="340" y="-138" on="0"/>
        <pt x="280" y="-186" on="0"/>
        <pt x="201" y="-207" on="0"/>
        <pt x="158" y="-207" on="1"/>
        <pt x="127" y="-207" on="0"/>
        <pt x="74" y="-199" on="0"/>
        <pt x="51" y="-192" on="1"/>
        <pt x="51" y="-88" on="1"/>
        <pt x="52" y="-88" on="1"/>
        <pt x="71" y="-95" on="0"/>
        <pt x="117" y="-103" on="0"/>
        <pt x="140" y="-103" on="1"/>
        <pt x="186" y="-103" on="0"/>
        <pt x="256" y="-54" on="0"/>
        <pt x="256" y="17" on="1"/>
        <pt x="256" y="24" on="0"/>
        <pt x="255" y="41" on="0"/>
        <pt x="254" y="50" on="1"/>
        <pt x="254" y="52" on="0"/>
        <pt x="250" y="85" on="0"/>
        <pt x="245" y="126" on="0"/>
        <pt x="240" y="167" on="0"/>
        <pt x="239" y="177" on="1"/>
        <pt x="362" y="280" on="1"/>
        <pt x="239" y="383" on="1"/>
        <pt x="240" y="393" on="0"/>
        <pt x="245" y="434" on="0"/>
        <pt x="250" y="475" on="0"/>
        <pt x="254" y="508" on="0"/>
        <pt x="254" y="510" on="1"/>
        <pt x="255" y="519" on="0"/>
        <pt x="256" y="536" on="0"/>
        <pt x="256" y="543" on="1"/>
        <pt x="256" y="614" on="0"/>
        <pt x="186" y="659" on="0"/>
        <pt x="140" y="659" on="1"/>
        <pt x="117" y="659" on="0"/>
        <pt x="71" y="651" on="0"/>
        <pt x="52" y="644" on="1"/>
        <pt x="51" y="644" on="1"/>
        <pt x="51" y="752" on="1"/>
        <pt x="74" y="759" on="0"/>
        <pt x="127" y="767" on="0"/>
        <pt x="158" y="767" on="1"/>
        <pt x="201" y="767" on="0"/>
        <pt x="280" y="746" on="0"/>
        <pt x="340" y="698" on="0"/>
        <pt x="375" y="618" on="0"/>
        <pt x="375" y="561" on="1"/>
        <pt x="375" y="551" on="0"/>
        <pt x="374" y="529" on="0"/>
        <pt x="373" y="518" on="1"/>
        <pt x="373" y="516" on="0"/>
        <pt x="370" y="493" on="0"/>
        <pt x="367" y="462" on="0"/>
        <pt x="362" y="431" on="0"/>
        <pt x="361" y="422" on="1"/>
      </contour>
    </TTGlyph>
    <TTGlyph name="braceright.cap" xMin="51" yMin="-137" xMax="506" yMax="837">
      <component glyphName="braceright" x="0" y="70" flags="0x4"/>
    </TTGlyph>
    <TTGlyph name="bracketleft" xMin="91" yMin="-194" xMax="396" yMax="754">
      <contour>
        <pt x="91" y="-194" on="1"/>
        <pt x="91" y="754" on="1"/>
        <pt x="396" y="754" on="1"/>
        <pt x="396" y="657" on="1"/>
        <pt x="208" y="657" on="1"/>
        <pt x="208" y="-97" on="1"/>
        <pt x="396" y="-97" on="1"/>
        <pt x="396" y="-194" on="1"/>
      </contour>
    </TTGlyph>
    <TTGlyph name="bracketleft.cap" xMin="91" yMin="-124" xMax="396" yMax="824">
      <component glyphName="bracketleft" x="0" y="70" flags="0x4"/>
    </TTGlyph>
    <TTGlyph name="bracketright" xMin="51" yMin="-194" xMax="356" yMax="754">
      <contour>
        <pt x="356" y="754" on="1"/>
        <pt x="356" y="-194" on="1"/>
        <pt x="51" y="-194" on="1"/>
        <pt x="51" y="-97" on="1"/>
        <pt x="239" y="-97" on="1"/>
        <pt x="239" y="657" on="1"/>
        <pt x="51" y="657" on="1"/>
        <pt x="51" y="754" on="1"/>
      </contour>
    </TTGlyph>
    <TTGlyph name="bracketright.cap" xMin="51" yMin="-124" xMax="356" yMax="824">
      <component glyphName="bracketright" x="0" y="70" flags="0x4"/>
    </TTGlyph>
    <TTGlyph name="breve" xMin="62" yMin="616" xMax="437" yMax="811">
      <contour>
        <pt x="250" y="616" on="1"/>
        <pt x="165" y="616" on="0"/>
        <pt x="62" y="690" on="0"/>
        <pt x="62" y="762" on="1"/>
        <pt x="62" y="774" on="0"/>
        <pt x="65" y="798" on="0"/>
        <pt x="68" y="811" on="1"/>
        <pt x="166" y="811" on="1"/>
        <pt x="165" y="802" on="0"/>
        <pt x="163" y="787" on="0"/>
        <pt x="163" y="780" on="1"/>
        <pt x="163" y="735" on="0"/>
        <pt x="217" y="707" on="0"/>
        <pt x="250" y="707" on="1"/>
        <pt x="283" y="707" on="0"/>
        <pt x="337" y="735" on="0"/>
        <pt x="337" y="779" on="1"/>
        <pt x="337" y="786" on="0"/>
        <pt x="335" y="802" on="0"/>
        <pt x="333" y="811" on="1"/>
        <pt x="432" y="811" on="1"/>
        <pt x="434" y="798" on="0"/>
        <pt x="437" y="773" on="0"/>
        <pt x="437" y="761" on="1"/>
        <pt x="437" y="690" on="0"/>
        <pt x="335" y="616" on="0"/>
      </contour>
    </TTGlyph>
    <TTGlyph name="bullet" xMin="72" yMin="187" xMax="352" yMax="453">
      <contour>
        <pt x="212" y="187" on="1"/>
        <pt x="144" y="187" on="0"/>
        <pt x="72" y="267" on="0"/>
        <pt x="72" y="319" on="1"/>
        <pt x="72" y="322" on="1"/>
        <pt x="72" y="374" on="0"/>
        <pt x="144" y="453" on="0"/>
        <pt x="212" y="453" on="1"/>
        <pt x="279" y="453" on="0"/>
        <pt x="352" y="374" on="0"/>
        <pt x="352" y="322" on="1"/>
        <pt x="352" y="319" on="1"/>
        <pt x="352" y="267" on="0"/>
        <pt x="279" y="187" on="0"/>
      </contour>
    </TTGlyph>
    <TTGlyph name="bullet.cap" xMin="72" yMin="217" xMax="352" yMax="483">
      <component glyphName="bullet" x="0" y="30" flags="0x4"/>
    </TTGlyph>
    <TTGlyph name="c" xMin="53" yMin="-15" xMax="540" yMax="551">
      <contour>
        <pt x="351" y="-15" on="1"/>
        <pt x="286" y="-15" on="0"/>
        <pt x="176" y="24" on="0"/>
        <pt x="97" y="96" on="0"/>
        <pt x="53" y="199" on="0"/>
        <pt x="53" y="263" on="1"/>
        <pt x="53" y="324" on="0"/>
        <pt x="98" y="430" on="0"/>
        <pt x="178" y="507" on="0"/>
        <pt x="289" y="551" on="0"/>
        <pt x="354" y="551" on="1"/>
        <pt x="411" y="551" on="0"/>
        <pt x="503" y="521" on="0"/>
        <pt x="540" y="495" on="1"/>
        <pt x="540" y="378" on="1"/>
        <pt x="539" y="378" on="1"/>
        <pt x="495" y="411" on="0"/>
        <pt x="405" y="445" on="0"/>
        <pt x="359" y="445" on="1"/>
        <pt x="278" y="445" on="0"/>
        <pt x="176" y="343" on="0"/>
        <pt x="176" y="266" on="1"/>
        <pt x="176" y="186" on="0"/>
        <pt x="279" y="92" on="0"/>
        <pt x="358" y="92" on="1"/>
        <pt x="407" y="92" on="0"/>
        <pt x="495" y="125" on="0"/>
        <pt x="539" y="158" on="1"/>
        <pt x="540" y="158" on="1"/>
        <pt x="540" y="41" on="1"/>
        <pt x="501" y="15" on="0"/>
        <pt x="405" y="-15" on="0"/>
      </contour>
    </TTGlyph>
    <TTGlyph name="c.sc" xMin="69" yMin="-15" xMax="635" yMax="602">
      <contour>
        <pt x="398" y="-15" on="1"/>
        <pt x="314" y="-15" on="0"/>
        <pt x="190" y="34" on="0"/>
        <pt x="109" y="118" on="0"/>
        <pt x="69" y="231" on="0"/>
        <pt x="69" y="294" on="1"/>
        <pt x="69" y="357" on="0"/>
        <pt x="114" y="469" on="0"/>
        <pt x="199" y="553" on="0"/>
        <pt x="325" y="602" on="0"/>
        <pt x="406" y="602" on="1"/>
        <pt x="481" y="602" on="0"/>
        <pt x="597" y="560" on="0"/>
        <pt x="635" y="531" on="1"/>
        <pt x="635" y="411" on="1"/>
        <pt x="634" y="411" on="1"/>
        <pt x="583" y="448" on="0"/>
        <pt x="469" y="494" on="0"/>
        <pt x="406" y="494" on="1"/>
        <pt x="358" y="494" on="0"/>
        <pt x="280" y="463" on="0"/>
        <pt x="224" y="410" on="0"/>
        <pt x="194" y="336" on="0"/>
        <pt x="194" y="294" on="1"/>
        <pt x="194" y="208" on="0"/>
        <pt x="299" y="93" on="0"/>
        <pt x="406" y="93" on="1"/>
        <pt x="472" y="93" on="0"/>
        <pt x="585" y="141" on="0"/>
        <pt x="634" y="175" on="1"/>
        <pt x="635" y="175" on="1"/>
        <pt x="635" y="54" on="1"/>
        <pt x="602" y="32" on="0"/>
        <pt x="479" y="-15" on="0"/>
      </contour>
    </TTGlyph>
    <TTGlyph name="cacute" xMin="53" yMin="-15" xMax="554" yMax="803">
      <component glyphName="c" x="0" y="0" flags="0x204"/>
      <component glyphName="acute" x="142" y="15" flags="0x4"/>
    </TTGlyph>
    <TTGlyph name="cacute.sc" xMin="69" yMin="-15" xMax="635" yMax="854">
      <component glyphName="c.sc" x="0" y="0" flags="0x204"/>
      <component glyphName="acute" x="194" y="66" flags="0x4"/>
    </TTGlyph>
    <TTGlyph name="caron" xMin="31" yMin="624" xMax="469" yMax="801">
      <contour>
        <pt x="469" y="801" on="1"/>
        <pt x="331" y="624" on="1"/>
        <pt x="169" y="624" on="1"/>
        <pt x="31" y="801" on="1"/>
        <pt x="157" y="801" on="1"/>
        <pt x="231" y="707" on="1"/>
        <pt x="269" y="707" on="1"/>
        <pt x="343" y="801" on="1"/>
      </contour>
    </TTGlyph>
    <TTGlyph name="caron.alt" xMin="189" yMin="591" xMax="318" yMax="766">
      <contour>
        <pt x="189" y="591" on="1"/>
        <pt x="189" y="766" on="1"/>
        <pt x="318" y="766" on="1"/>
        <pt x="318" y="754" on="1"/>
        <pt x="259" y="591" on="1"/>
      </contour>
    </TTGlyph>
    <TTGlyph name="ccaron" xMin="53" yMin="-15" xMax="558" yMax="816">
      <component glyphName="c" x="0" y="0" flags="0x204"/>
      <component glyphName="caron" x="89" y="15" flags="0x4"/>
    </TTGlyph>
    <TTGlyph name="ccaron.sc" xMin="69" yMin="-15" xMax="635" yMax="867">
      <component glyphName="c.sc" x="0" y="0" flags="0x204"/>
      <component glyphName="caron" x="141" y="66" flags="0x4"/>
    </TTGlyph>
    <TTGlyph name="ccedilla" xMin="53" yMin="-185" xMax="540" yMax="551">
      <contour>
        <pt x="540" y="41" on="1"/>
        <pt x="510" y="21" on="0"/>
        <pt x="438" y="-7" on="0"/>
        <pt x="398" y="-12" on="1"/>
        <pt x="300" y="-185" on="1"/>
        <pt x="144" y="-185" on="1"/>
        <pt x="144" y="-179" on="1"/>
        <pt x="291" y="-10" on="1"/>
        <pt x="185" y="6" on="0"/>
        <pt x="53" y="151" on="0"/>
        <pt x="53" y="263" on="1"/>
        <pt x="53" y="324" on="0"/>
        <pt x="98" y="430" on="0"/>
        <pt x="178" y="507" on="0"/>
        <pt x="289" y="551" on="0"/>
        <pt x="354" y="551" on="1"/>
        <pt x="411" y="551" on="0"/>
        <pt x="503" y="521" on="0"/>
        <pt x="540" y="495" on="1"/>
        <pt x="540" y="378" on="1"/>
        <pt x="539" y="378" on="1"/>
        <pt x="495" y="411" on="0"/>
        <pt x="405" y="445" on="0"/>
        <pt x="359" y="445" on="1"/>
        <pt x="278" y="445" on="0"/>
        <pt x="176" y="343" on="0"/>
        <pt x="176" y="266" on="1"/>
        <pt x="176" y="186" on="0"/>
        <pt x="279" y="92" on="0"/>
        <pt x="358" y="92" on="1"/>
        <pt x="407" y="92" on="0"/>
        <pt x="495" y="125" on="0"/>
        <pt x="539" y="158" on="1"/>
        <pt x="540" y="158" on="1"/>
      </contour>
    </TTGlyph>
    <TTGlyph name="ccedilla.sc" xMin="69" yMin="-185" xMax="635" yMax="602">
      <contour>
        <pt x="635" y="54" on="1"/>
        <pt x="609" y="36" on="0"/>
        <pt x="519" y="-2" on="0"/>
        <pt x="461" y="-11" on="1"/>
        <pt x="362" y="-185" on="1"/>
        <pt x="206" y="-185" on="1"/>
        <pt x="206" y="-179" on="1"/>
        <pt x="351" y="-13" on="1"/>
        <pt x="279" y="-6" on="0"/>
        <pt x="173" y="48" on="0"/>
        <pt x="103" y="129" on="0"/>
        <pt x="69" y="235" on="0"/>
        <pt x="69" y="294" on="1"/>
        <pt x="69" y="357" on="0"/>
        <pt x="114" y="469" on="0"/>
        <pt x="199" y="553" on="0"/>
        <pt x="325" y="602" on="0"/>
        <pt x="406" y="602" on="1"/>
        <pt x="481" y="602" on="0"/>
        <pt x="597" y="560" on="0"/>
        <pt x="635" y="531" on="1"/>
        <pt x="635" y="411" on="1"/>
        <pt x="634" y="411" on="1"/>
        <pt x="583" y="448" on="0"/>
        <pt x="469" y="494" on="0"/>
        <pt x="406" y="494" on="1"/>
        <pt x="358" y="494" on="0"/>
        <pt x="280" y="463" on="0"/>
        <pt x="224" y="410" on="0"/>
        <pt x="194" y="336" on="0"/>
        <pt x="194" y="294" on="1"/>
        <pt x="194" y="208" on="0"/>
        <pt x="299" y="93" on="0"/>
        <pt x="406" y="93" on="1"/>
        <pt x="472" y="93" on="0"/>
        <pt x="585" y="141" on="0"/>
        <pt x="634" y="175" on="1"/>
        <pt x="635" y="175" on="1"/>
      </contour>
    </TTGlyph>
    <TTGlyph name="cdotaccent" xMin="53" yMin="-15" xMax="540" yMax="780">
      <component glyphName="c" x="0" y="0" flags="0x204"/>
      <component glyphName="dotaccent" x="90" y="15" flags="0x4"/>
    </TTGlyph>
    <TTGlyph name="cdotaccent.sc" xMin="69" yMin="-15" xMax="635" yMax="831">
      <component glyphName="c.sc" x="0" y="0" flags="0x204"/>
      <component glyphName="dotaccent" x="142" y="66" flags="0x4"/>
    </TTGlyph>
    <TTGlyph name="cedilla" xMin="78" yMin="-185" xMax="338" yMax="-2">
      <contour>
        <pt x="338" y="-2" on="1"/>
        <pt x="234" y="-185" on="1"/>
        <pt x="78" y="-185" on="1"/>
        <pt x="78" y="-179" on="1"/>
        <pt x="232" y="-2" on="1"/>
      </contour>
    </TTGlyph>
    <TTGlyph name="cent" xMin="72" yMin="-38" xMax="520" yMax="716">
      <contour>
        <pt x="267" y="-38" on="1"/>
        <pt x="267" y="105" on="1"/>
        <pt x="180" y="124" on="0"/>
        <pt x="72" y="249" on="0"/>
        <pt x="72" y="345" on="1"/>
        <pt x="72" y="438" on="0"/>
        <pt x="187" y="576" on="0"/>
        <pt x="277" y="596" on="1"/>
        <pt x="277" y="716" on="1"/>
        <pt x="389" y="716" on="1"/>
        <pt x="389" y="601" on="1"/>
        <pt x="429" y="597" on="0"/>
        <pt x="493" y="573" on="0"/>
        <pt x="520" y="554" on="1"/>
        <pt x="520" y="442" on="1"/>
        <pt x="519" y="442" on="1"/>
        <pt x="480" y="470" on="0"/>
        <pt x="398" y="500" on="0"/>
        <pt x="359" y="500" on="1"/>
        <pt x="284" y="500" on="0"/>
        <pt x="191" y="415" on="0"/>
        <pt x="191" y="345" on="1"/>
        <pt x="191" y="283" on="0"/>
        <pt x="283" y="200" on="0"/>
        <pt x="359" y="200" on="1"/>
        <pt x="400" y="200" on="0"/>
        <pt x="480" y="230" on="0"/>
        <pt x="518" y="258" on="1"/>
        <pt x="519" y="258" on="1"/>
        <pt x="519" y="146" on="1"/>
        <pt x="490" y="127" on="0"/>
        <pt x="421" y="103" on="0"/>
        <pt x="379" y="99" on="1"/>
        <pt x="379" y="-25" on="1"/>
      </contour>
    </TTGlyph>
    <TTGlyph name="cent.tab" xMin="125" yMin="-38" xMax="591" yMax="716">
      <contour>
        <pt x="330" y="-38" on="1"/>
        <pt x="330" y="103" on="1"/>
        <pt x="237" y="121" on="0"/>
        <pt x="125" y="249" on="0"/>
        <pt x="125" y="345" on="1"/>
        <pt x="125" y="439" on="0"/>
        <pt x="243" y="579" on="0"/>
        <pt x="339" y="598" on="1"/>
        <pt x="339" y="716" on="1"/>
        <pt x="451" y="716" on="1"/>
        <pt x="451" y="602" on="1"/>
        <pt x="497" y="598" on="0"/>
        <pt x="563" y="574" on="0"/>
        <pt x="591" y="555" on="1"/>
        <pt x="591" y="443" on="1"/>
        <pt x="590" y="443" on="1"/>
        <pt x="552" y="471" on="0"/>
        <pt x="468" y="501" on="0"/>
        <pt x="422" y="501" on="1"/>
        <pt x="340" y="501" on="0"/>
        <pt x="244" y="415" on="0"/>
        <pt x="244" y="345" on="1"/>
        <pt x="244" y="282" on="0"/>
        <pt x="338" y="199" on="0"/>
        <pt x="422" y="199" on="1"/>
        <pt x="470" y="199" on="0"/>
        <pt x="551" y="229" on="0"/>
        <pt x="590" y="257" on="1"/>
        <pt x="591" y="257" on="1"/>
        <pt x="591" y="145" on="1"/>
        <pt x="561" y="126" on="0"/>
        <pt x="489" y="101" on="0"/>
        <pt x="442" y="97" on="1"/>
        <pt x="442" y="-25" on="1"/>
      </contour>
    </TTGlyph>
    <TTGlyph name="circle.checked" xMin="126" yMin="-46" xMax="952" yMax="746">
      <contour>
        <pt x="539" y="-46" on="1"/>
        <pt x="445" y="-46" on="0"/>
        <pt x="291" y="11" on="0"/>
        <pt x="184" y="113" on="0"/>
        <pt x="126" y="260" on="0"/>
        <pt x="126" y="350" on="1"/>
        <pt x="126" y="439" on="0"/>
        <pt x="184" y="586" on="0"/>
        <pt x="291" y="689" on="0"/>
        <pt x="445" y="746" on="0"/>
        <pt x="539" y="746" on="1"/>
        <pt x="634" y="746" on="0"/>
        <pt x="787" y="689" on="0"/>
        <pt x="894" y="587" on="0"/>
        <pt x="952" y="440" on="0"/>
        <pt x="952" y="350" on="1"/>
        <pt x="952" y="261" on="0"/>
        <pt x="894" y="114" on="0"/>
        <pt x="787" y="11" on="0"/>
        <pt x="633" y="-46" on="0"/>
      </contour>
      <contour>
        <pt x="539" y="62" on="1"/>
        <pt x="676" y="62" on="0"/>
        <pt x="829" y="219" on="0"/>
        <pt x="829" y="350" on="1"/>
        <pt x="829" y="482" on="0"/>
        <pt x="676" y="638" on="0"/>
        <pt x="539" y="638" on="1"/>
        <pt x="402" y="638" on="0"/>
        <pt x="249" y="481" on="0"/>
        <pt x="249" y="350" on="1"/>
        <pt x="249" y="218" on="0"/>
        <pt x="402" y="62" on="0"/>
      </contour>
      <contour>
        <pt x="539" y="208" on="1"/>
        <pt x="473" y="208" on="0"/>
        <pt x="397" y="285" on="0"/>
        <pt x="397" y="350" on="1"/>
        <pt x="397" y="415" on="0"/>
        <pt x="473" y="492" on="0"/>
        <pt x="539" y="492" on="1"/>
        <pt x="606" y="492" on="0"/>
        <pt x="681" y="415" on="0"/>
        <pt x="681" y="350" on="1"/>
        <pt x="681" y="285" on="0"/>
        <pt x="606" y="208" on="0"/>
      </contour>
    </TTGlyph>
    <TTGlyph name="circle.half" xMin="126" yMin="-46" xMax="952" yMax="746">
      <contour>
        <pt x="539" y="-46" on="1"/>
        <pt x="445" y="-46" on="0"/>
        <pt x="291" y="11" on="0"/>
        <pt x="184" y="113" on="0"/>
        <pt x="126" y="260" on="0"/>
        <pt x="126" y="350" on="1"/>
        <pt x="126" y="439" on="0"/>
        <pt x="184" y="586" on="0"/>
        <pt x="291" y="689" on="0"/>
        <pt x="445" y="746" on="0"/>
        <pt x="539" y="746" on="1"/>
        <pt x="634" y="746" on="0"/>
        <pt x="787" y="689" on="0"/>
        <pt x="894" y="587" on="0"/>
        <pt x="952" y="440" on="0"/>
        <pt x="952" y="350" on="1"/>
        <pt x="952" y="261" on="0"/>
        <pt x="894" y="114" on="0"/>
        <pt x="787" y="11" on="0"/>
        <pt x="633" y="-46" on="0"/>
      </contour>
      <contour>
        <pt x="536" y="59" on="1"/>
        <pt x="605" y="59" on="0"/>
        <pt x="715" y="101" on="0"/>
        <pt x="790" y="176" on="0"/>
        <pt x="831" y="284" on="0"/>
        <pt x="831" y="350" on="1"/>
        <pt x="831" y="482" on="0"/>
        <pt x="673" y="641" on="0"/>
        <pt x="536" y="641" on="1"/>
      </contour>
    </TTGlyph>
    <TTGlyph name="circle.open" xMin="126" yMin="-46" xMax="952" yMax="746">
      <contour>
        <pt x="539" y="-46" on="1"/>
        <pt x="445" y="-46" on="0"/>
        <pt x="291" y="11" on="0"/>
        <pt x="184" y="113" on="0"/>
        <pt x="126" y="260" on="0"/>
        <pt x="126" y="350" on="1"/>
        <pt x="126" y="439" on="0"/>
        <pt x="184" y="586" on="0"/>
        <pt x="291" y="689" on="0"/>
        <pt x="445" y="746" on="0"/>
        <pt x="539" y="746" on="1"/>
        <pt x="634" y="746" on="0"/>
        <pt x="787" y="689" on="0"/>
        <pt x="894" y="587" on="0"/>
        <pt x="952" y="440" on="0"/>
        <pt x="952" y="350" on="1"/>
        <pt x="952" y="261" on="0"/>
        <pt x="894" y="114" on="0"/>
        <pt x="787" y="11" on="0"/>
        <pt x="633" y="-46" on="0"/>
      </contour>
      <contour>
        <pt x="539" y="62" on="1"/>
        <pt x="676" y="62" on="0"/>
        <pt x="829" y="219" on="0"/>
        <pt x="829" y="350" on="1"/>
        <pt x="829" y="482" on="0"/>
        <pt x="676" y="638" on="0"/>
        <pt x="539" y="638" on="1"/>
        <pt x="402" y="638" on="0"/>
        <pt x="249" y="481" on="0"/>
        <pt x="249" y="350" on="1"/>
        <pt x="249" y="218" on="0"/>
        <pt x="402" y="62" on="0"/>
      </contour>
    </TTGlyph>
    <TTGlyph name="circle.solid" xMin="126" yMin="-46" xMax="952" yMax="746">
      <contour>
        <pt x="539" y="-46" on="1"/>
        <pt x="445" y="-46" on="0"/>
        <pt x="291" y="11" on="0"/>
        <pt x="184" y="113" on="0"/>
        <pt x="126" y="260" on="0"/>
        <pt x="126" y="350" on="1"/>
        <pt x="126" y="439" on="0"/>
        <pt x="184" y="586" on="0"/>
        <pt x="291" y="689" on="0"/>
        <pt x="445" y="746" on="0"/>
        <pt x="539" y="746" on="1"/>
        <pt x="634" y="746" on="0"/>
        <pt x="787" y="689" on="0"/>
        <pt x="894" y="587" on="0"/>
        <pt x="952" y="440" on="0"/>
        <pt x="952" y="350" on="1"/>
        <pt x="952" y="261" on="0"/>
        <pt x="894" y="114" on="0"/>
        <pt x="787" y="11" on="0"/>
        <pt x="633" y="-46" on="0"/>
      </contour>
    </TTGlyph>
    <TTGlyph name="circumflex" xMin="31" yMin="624" xMax="469" yMax="801">
      <contour>
        <pt x="31" y="624" on="1"/>
        <pt x="169" y="801" on="1"/>
        <pt x="331" y="801" on="1"/>
        <pt x="469" y="624" on="1"/>
        <pt x="343" y="624" on="1"/>
        <pt x="269" y="718" on="1"/>
        <pt x="231" y="718" on="1"/>
        <pt x="157" y="624" on="1"/>
      </contour>
    </TTGlyph>
    <TTGlyph name="colon" xMin="104" yMin="-11" xMax="290" yMax="519">
      <contour>
        <pt x="197" y="344" on="1"/>
        <pt x="151" y="344" on="0"/>
        <pt x="104" y="397" on="0"/>
        <pt x="104" y="431" on="1"/>
        <pt x="104" y="432" on="1"/>
        <pt x="104" y="466" on="0"/>
        <pt x="151" y="519" on="0"/>
        <pt x="197" y="519" on="1"/>
        <pt x="242" y="519" on="0"/>
        <pt x="290" y="466" on="0"/>
        <pt x="290" y="432" on="1"/>
        <pt x="290" y="431" on="1"/>
        <pt x="290" y="397" on="0"/>
        <pt x="242" y="344" on="0"/>
      </contour>
      <contour>
        <pt x="197" y="-11" on="1"/>
        <pt x="151" y="-11" on="0"/>
        <pt x="104" y="42" on="0"/>
        <pt x="104" y="76" on="1"/>
        <pt x="104" y="77" on="1"/>
        <pt x="104" y="111" on="0"/>
        <pt x="151" y="163" on="0"/>
        <pt x="197" y="163" on="1"/>
        <pt x="242" y="163" on="0"/>
        <pt x="290" y="111" on="0"/>
        <pt x="290" y="77" on="1"/>
        <pt x="290" y="76" on="1"/>
        <pt x="290" y="42" on="0"/>
        <pt x="242" y="-11" on="0"/>
      </contour>
    </TTGlyph>
    <TTGlyph name="colon.fig" xMin="104" yMin="85" xMax="290" yMax="615">
      <component glyphName="colon" x="0" y="96" flags="0x4"/>
    </TTGlyph>
    <TTGlyph name="colon.tab" xMin="88" yMin="-11" xMax="274" yMax="519">
      <component glyphName="colon" x="-16" y="0" flags="0x4"/>
    </TTGlyph>
    <TTGlyph name="colonmonetary" xMin="49" yMin="-110" xMax="692" yMax="805">
      <contour>
        <pt x="157" y="-110" on="1"/>
        <pt x="198" y="47" on="1"/>
        <pt x="122" y="94" on="0"/>
        <pt x="49" y="253" on="0"/>
        <pt x="49" y="344" on="1"/>
        <pt x="49" y="410" on="0"/>
        <pt x="91" y="534" on="0"/>
        <pt x="172" y="631" on="0"/>
        <pt x="294" y="696" on="0"/>
        <pt x="373" y="705" on="1"/>
        <pt x="399" y="805" on="1"/>
        <pt x="497" y="805" on="1"/>
        <pt x="471" y="706" on="1"/>
        <pt x="496" y="705" on="0"/>
        <pt x="543" y="695" on="0"/>
        <pt x="564" y="689" on="1"/>
        <pt x="594" y="805" on="1"/>
        <pt x="692" y="805" on="1"/>
        <pt x="507" y="103" on="1"/>
        <pt x="535" y="109" on="0"/>
        <pt x="592" y="129" on="0"/>
        <pt x="623" y="144" on="1"/>
        <pt x="624" y="144" on="1"/>
        <pt x="624" y="32" on="1"/>
        <pt x="596" y="19" on="0"/>
        <pt x="522" y="-1" on="0"/>
        <pt x="479" y="-5" on="1"/>
        <pt x="451" y="-110" on="1"/>
        <pt x="352" y="-110" on="1"/>
        <pt x="380" y="-7" on="1"/>
        <pt x="355" y="-6" on="0"/>
        <pt x="308" y="2" on="0"/>
        <pt x="287" y="8" on="1"/>
        <pt x="254" y="-110" on="1"/>
      </contour>
      <contour>
        <pt x="310" y="114" on="1"/>
        <pt x="332" y="105" on="0"/>
        <pt x="385" y="96" on="0"/>
        <pt x="415" y="95" on="1"/>
        <pt x="543" y="582" on="1"/>
        <pt x="518" y="591" on="0"/>
        <pt x="467" y="600" on="0"/>
        <pt x="439" y="600" on="1"/>
      </contour>
      <contour>
        <pt x="168" y="345" on="1"/>
        <pt x="168" y="291" on="0"/>
        <pt x="200" y="198" on="0"/>
        <pt x="233" y="164" on="1"/>
        <pt x="347" y="597" on="1"/>
        <pt x="260" y="575" on="0"/>
        <pt x="168" y="438" on="0"/>
      </contour>
    </TTGlyph>
    <TTGlyph name="comma" xMin="70" yMin="-147" xMax="285" yMax="164">
      <contour>
        <pt x="70" y="-147" on="1"/>
        <pt x="118" y="164" on="1"/>
        <pt x="285" y="164" on="1"/>
        <pt x="285" y="152" on="1"/>
        <pt x="138" y="-147" on="1"/>
      </contour>
    </TTGlyph>
    <TTGlyph name="comma.tab" xMin="82" yMin="-147" xMax="297" yMax="164">
      <component glyphName="comma" x="12" y="0" flags="0x4"/>
    </TTGlyph>
    <TTGlyph name="copyright" xMin="57" yMin="-46" xMax="912" yMax="746">
      <contour>
        <pt x="484" y="-46" on="1"/>
        <pt x="387" y="-46" on="0"/>
        <pt x="228" y="11" on="0"/>
        <pt x="118" y="114" on="0"/>
        <pt x="57" y="261" on="0"/>
        <pt x="57" y="350" on="1"/>
        <pt x="57" y="439" on="0"/>
        <pt x="118" y="586" on="0"/>
        <pt x="228" y="689" on="0"/>
        <pt x="387" y="746" on="0"/>
        <pt x="484" y="746" on="1"/>
        <pt x="581" y="746" on="0"/>
        <pt x="740" y="689" on="0"/>
        <pt x="851" y="586" on="0"/>
        <pt x="912" y="439" on="0"/>
        <pt x="912" y="350" on="1"/>
        <pt x="912" y="261" on="0"/>
        <pt x="851" y="114" on="0"/>
        <pt x="740" y="11" on="0"/>
        <pt x="581" y="-46" on="0"/>
      </contour>
      <contour>
        <pt x="484" y="37" on="1"/>
        <pt x="559" y="37" on="0"/>
        <pt x="683" y="80" on="0"/>
        <pt x="769" y="160" on="0"/>
        <pt x="816" y="277" on="0"/>
        <pt x="816" y="350" on="1"/>
        <pt x="816" y="423" on="0"/>
        <pt x="769" y="540" on="0"/>
        <pt x="683" y="620" on="0"/>
        <pt x="559" y="663" on="0"/>
        <pt x="484" y="663" on="1"/>
        <pt x="409" y="663" on="0"/>
        <pt x="286" y="620" on="0"/>
        <pt x="200" y="540" on="0"/>
        <pt x="153" y="423" on="0"/>
        <pt x="153" y="350" on="1"/>
        <pt x="153" y="277" on="0"/>
        <pt x="200" y="160" on="0"/>
        <pt x="286" y="80" on="0"/>
        <pt x="409" y="37" on="0"/>
      </contour>
      <contour>
        <pt x="500" y="165" on="1"/>
        <pt x="450" y="165" on="0"/>
        <pt x="374" y="195" on="0"/>
        <pt x="324" y="245" on="0"/>
        <pt x="299" y="314" on="0"/>
        <pt x="299" y="353" on="1"/>
        <pt x="299" y="391" on="0"/>
        <pt x="327" y="460" on="0"/>
        <pt x="379" y="511" on="0"/>
        <pt x="455" y="541" on="0"/>
        <pt x="504" y="541" on="1"/>
        <pt x="548" y="541" on="0"/>
        <pt x="618" y="517" on="0"/>
        <pt x="643" y="498" on="1"/>
        <pt x="643" y="414" on="1"/>
        <pt x="642" y="414" on="1"/>
        <pt x="611" y="436" on="0"/>
        <pt x="550" y="462" on="0"/>
        <pt x="513" y="462" on="1"/>
        <pt x="458" y="462" on="0"/>
        <pt x="392" y="399" on="0"/>
        <pt x="392" y="353" on="1"/>
        <pt x="392" y="305" on="0"/>
        <pt x="450" y="244" on="0"/>
        <pt x="511" y="244" on="1"/>
        <pt x="552" y="244" on="0"/>
        <pt x="613" y="271" on="0"/>
        <pt x="642" y="292" on="1"/>
        <pt x="643" y="292" on="1"/>
        <pt x="643" y="207" on="1"/>
        <pt x="622" y="193" on="0"/>
        <pt x="549" y="165" on="0"/>
      </contour>
    </TTGlyph>
    <TTGlyph name="d" xMin="53" yMin="-15" xMax="607" yMax="754">
      <contour>
        <pt x="607" y="754" on="1"/>
        <pt x="607" y="0" on="1"/>
        <pt x="488" y="0" on="1"/>
        <pt x="487" y="71" on="1"/>
        <pt x="457" y="37" on="0"/>
        <pt x="363" y="-15" on="0"/>
        <pt x="300" y="-15" on="1"/>
        <pt x="250" y="-15" on="0"/>
        <pt x="159" y="22" on="0"/>
        <pt x="92" y="91" on="0"/>
        <pt x="53" y="194" on="0"/>
        <pt x="53" y="259" on="1"/>
        <pt x="53" y="322" on="0"/>
        <pt x="98" y="429" on="0"/>
        <pt x="175" y="507" on="0"/>
        <pt x="282" y="551" on="0"/>
        <pt x="343" y="551" on="1"/>
        <pt x="388" y="551" on="0"/>
        <pt x="456" y="531" on="0"/>
        <pt x="485" y="514" on="1"/>
        <pt x="485" y="754" on="1"/>
      </contour>
      <contour>
        <pt x="353" y="447" on="1"/>
        <pt x="272" y="447" on="0"/>
        <pt x="176" y="346" on="0"/>
        <pt x="176" y="266" on="1"/>
        <pt x="176" y="177" on="0"/>
        <pt x="271" y="89" on="0"/>
        <pt x="340" y="89" on="1"/>
        <pt x="382" y="89" on="0"/>
        <pt x="459" y="124" on="0"/>
        <pt x="485" y="149" on="1"/>
        <pt x="485" y="399" on="1"/>
        <pt x="457" y="421" on="0"/>
        <pt x="393" y="447" on="0"/>
      </contour>
    </TTGlyph>
    <TTGlyph name="d.sc" xMin="111" yMin="0" xMax="707" yMax="589">
      <contour>
        <pt x="111" y="0" on="1"/>
        <pt x="111" y="589" on="1"/>
        <pt x="400" y="589" on="1"/>
        <pt x="545" y="589" on="0"/>
        <pt x="707" y="432" on="0"/>
        <pt x="707" y="295" on="1"/>
        <pt x="707" y="159" on="0"/>
        <pt x="545" y="0" on="0"/>
        <pt x="400" y="0" on="1"/>
      </contour>
      <contour>
        <pt x="234" y="106" on="1"/>
        <pt x="388" y="106" on="1"/>
        <pt x="485" y="106" on="0"/>
        <pt x="581" y="199" on="0"/>
        <pt x="581" y="293" on="1"/>
        <pt x="581" y="386" on="0"/>
        <pt x="485" y="483" on="0"/>
        <pt x="389" y="483" on="1"/>
        <pt x="234" y="483" on="1"/>
      </contour>
    </TTGlyph>
    <TTGlyph name="dagger" xMin="67" yMin="184" xMax="456" yMax="706">
      <contour>
        <pt x="210" y="184" on="1"/>
        <pt x="210" y="482" on="1"/>
        <pt x="67" y="482" on="1"/>
        <pt x="71" y="573" on="1"/>
        <pt x="210" y="573" on="1"/>
        <pt x="210" y="706" on="1"/>
        <pt x="316" y="706" on="1"/>
        <pt x="316" y="573" on="1"/>
        <pt x="456" y="573" on="1"/>
        <pt x="456" y="482" on="1"/>
        <pt x="316" y="482" on="1"/>
        <pt x="316" y="184" on="1"/>
      </contour>
    </TTGlyph>
    <TTGlyph name="daggerdbl" xMin="67" yMin="140" xMax="459" yMax="706">
      <contour>
        <pt x="210" y="140" on="1"/>
        <pt x="210" y="272" on="1"/>
        <pt x="70" y="272" on="1"/>
        <pt x="70" y="363" on="1"/>
        <pt x="210" y="363" on="1"/>
        <pt x="210" y="482" on="1"/>
        <pt x="67" y="482" on="1"/>
        <pt x="71" y="573" on="1"/>
        <pt x="210" y="573" on="1"/>
        <pt x="210" y="706" on="1"/>
        <pt x="316" y="706" on="1"/>
        <pt x="316" y="573" on="1"/>
        <pt x="456" y="573" on="1"/>
        <pt x="456" y="482" on="1"/>
        <pt x="316" y="482" on="1"/>
        <pt x="316" y="363" on="1"/>
        <pt x="459" y="363" on="1"/>
        <pt x="454" y="272" on="1"/>
        <pt x="316" y="272" on="1"/>
        <pt x="316" y="140" on="1"/>
      </contour>
    </TTGlyph>
    <TTGlyph name="dcaron" xMin="53" yMin="-15" xMax="820" yMax="754">
      <component glyphName="d" x="0" y="0" flags="0x204"/>
      <component glyphName="caron.alt" x="502" y="-12" flags="0x4"/>
    </TTGlyph>
    <TTGlyph name="dcaron.sc" xMin="111" yMin="0" xMax="707" yMax="854">
      <component glyphName="d.sc" x="0" y="0" flags="0x204"/>
      <component glyphName="caron" x="124" y="53" flags="0x4"/>
    </TTGlyph>
    <TTGlyph name="dcroat" xMin="53" yMin="-15" xMax="701" yMax="754">
      <contour>
        <pt x="701" y="589" on="1"/>
        <pt x="607" y="589" on="1"/>
        <pt x="607" y="0" on="1"/>
        <pt x="488" y="0" on="1"/>
        <pt x="487" y="71" on="1"/>
        <pt x="457" y="37" on="0"/>
        <pt x="363" y="-15" on="0"/>
        <pt x="300" y="-15" on="1"/>
        <pt x="248" y="-15" on="0"/>
        <pt x="157" y="21" on="0"/>
        <pt x="91" y="88" on="0"/>
        <pt x="53" y="183" on="0"/>
        <pt x="53" y="242" on="1"/>
        <pt x="53" y="301" on="0"/>
        <pt x="98" y="403" on="0"/>
        <pt x="176" y="477" on="0"/>
        <pt x="283" y="520" on="0"/>
        <pt x="344" y="520" on="1"/>
        <pt x="388" y="520" on="0"/>
        <pt x="456" y="500" on="0"/>
        <pt x="485" y="484" on="1"/>
        <pt x="485" y="589" on="1"/>
        <pt x="299" y="589" on="1"/>
        <pt x="299" y="669" on="1"/>
        <pt x="485" y="669" on="1"/>
        <pt x="485" y="754" on="1"/>
        <pt x="607" y="754" on="1"/>
        <pt x="607" y="669" on="1"/>
        <pt x="696" y="669" on="1"/>
      </contour>
      <contour>
        <pt x="354" y="416" on="1"/>
        <pt x="273" y="416" on="0"/>
        <pt x="176" y="320" on="0"/>
        <pt x="176" y="248" on="1"/>
        <pt x="176" y="174" on="0"/>
        <pt x="268" y="89" on="0"/>
        <pt x="341" y="89" on="1"/>
        <pt x="383" y="89" on="0"/>
        <pt x="458" y="124" on="0"/>
        <pt x="485" y="149" on="1"/>
        <pt x="485" y="369" on="1"/>
        <pt x="456" y="391" on="0"/>
        <pt x="392" y="416" on="0"/>
      </contour>
    </TTGlyph>
    <TTGlyph name="dcroat.sc" xMin="45" yMin="0" xMax="736" yMax="589">
      <component glyphName="eth.sc" x="0" y="0" flags="0x204"/>
    </TTGlyph>
    <TTGlyph name="degree" xMin="62" yMin="284" xMax="515" yMax="710">
      <contour>
        <pt x="289" y="284" on="1"/>
        <pt x="188" y="284" on="0"/>
        <pt x="62" y="400" on="0"/>
        <pt x="62" y="496" on="1"/>
        <pt x="62" y="592" on="0"/>
        <pt x="188" y="710" on="0"/>
        <pt x="289" y="710" on="1"/>
        <pt x="390" y="710" on="0"/>
        <pt x="515" y="593" on="0"/>
        <pt x="515" y="497" on="1"/>
        <pt x="515" y="401" on="0"/>
        <pt x="390" y="284" on="0"/>
      </contour>
      <contour>
        <pt x="289" y="376" on="1"/>
        <pt x="341" y="376" on="0"/>
        <pt x="408" y="440" on="0"/>
        <pt x="408" y="497" on="1"/>
        <pt x="408" y="554" on="0"/>
        <pt x="342" y="617" on="0"/>
        <pt x="289" y="617" on="1"/>
        <pt x="236" y="617" on="0"/>
        <pt x="169" y="553" on="0"/>
        <pt x="169" y="496" on="1"/>
        <pt x="169" y="440" on="0"/>
        <pt x="236" y="376" on="0"/>
      </contour>
    </TTGlyph>
    <TTGlyph name="degree.tab" xMin="90" yMin="284" xMax="543" yMax="710">
      <component glyphName="degree" x="28" y="0" flags="0x4"/>
    </TTGlyph>
    <TTGlyph name="dieresis" xMin="47" yMin="619" xMax="453" yMax="757">
      <contour>
        <pt x="123" y="619" on="1"/>
        <pt x="88" y="619" on="0"/>
        <pt x="47" y="661" on="0"/>
        <pt x="47" y="688" on="1"/>
        <pt x="47" y="689" on="1"/>
        <pt x="47" y="717" on="0"/>
        <pt x="88" y="757" on="0"/>
        <pt x="122" y="757" on="1"/>
        <pt x="158" y="757" on="0"/>
        <pt x="198" y="717" on="0"/>
        <pt x="198" y="689" on="1"/>
        <pt x="198" y="688" on="1"/>
        <pt x="198" y="661" on="0"/>
        <pt x="158" y="619" on="0"/>
      </contour>
      <contour>
        <pt x="378" y="619" on="1"/>
        <pt x="343" y="619" on="0"/>
        <pt x="303" y="661" on="0"/>
        <pt x="303" y="688" on="1"/>
        <pt x="303" y="689" on="1"/>
        <pt x="303" y="717" on="0"/>
        <pt x="343" y="757" on="0"/>
        <pt x="378" y="757" on="1"/>
        <pt x="414" y="757" on="0"/>
        <pt x="453" y="717" on="0"/>
        <pt x="453" y="689" on="1"/>
        <pt x="453" y="688" on="1"/>
        <pt x="453" y="661" on="0"/>
        <pt x="414" y="619" on="0"/>
      </contour>
    </TTGlyph>
    <TTGlyph name="divide" xMin="100" yMin="58" xMax="676" yMax="642">
      <contour>
        <pt x="387" y="642" on="1"/>
        <pt x="425" y="642" on="0"/>
        <pt x="469" y="599" on="0"/>
        <pt x="469" y="568" on="1"/>
        <pt x="469" y="567" on="1"/>
        <pt x="469" y="537" on="0"/>
        <pt x="425" y="493" on="0"/>
        <pt x="388" y="493" on="1"/>
        <pt x="349" y="493" on="0"/>
        <pt x="306" y="537" on="0"/>
        <pt x="306" y="567" on="1"/>
        <pt x="306" y="568" on="1"/>
        <pt x="306" y="599" on="0"/>
        <pt x="349" y="642" on="0"/>
      </contour>
      <contour>
        <pt x="100" y="296" on="1"/>
        <pt x="100" y="404" on="1"/>
        <pt x="676" y="404" on="1"/>
        <pt x="676" y="296" on="1"/>
      </contour>
      <contour>
        <pt x="388" y="58" on="1"/>
        <pt x="350" y="58" on="0"/>
        <pt x="307" y="101" on="0"/>
        <pt x="307" y="132" on="1"/>
        <pt x="307" y="133" on="1"/>
        <pt x="307" y="163" on="0"/>
        <pt x="350" y="207" on="0"/>
        <pt x="388" y="207" on="1"/>
        <pt x="426" y="207" on="0"/>
        <pt x="470" y="163" on="0"/>
        <pt x="470" y="133" on="1"/>
        <pt x="470" y="132" on="1"/>
        <pt x="470" y="101" on="0"/>
        <pt x="426" y="58" on="0"/>
      </contour>
    </TTGlyph>
    <TTGlyph name="divide.tab" xMin="74" yMin="58" xMax="650" yMax="642">
      <component glyphName="divide" x="-26" y="0" flags="0x4"/>
    </TTGlyph>
    <TTGlyph name="dollar" xMin="96" yMin="-118" xMax="646" yMax="805">
      <contour>
        <pt x="300" y="-118" on="1"/>
        <pt x="300" y="13" on="1"/>
        <pt x="243" y="21" on="0"/>
        <pt x="139" y="57" on="0"/>
        <pt x="96" y="79" on="1"/>
        <pt x="96" y="200" on="1"/>
        <pt x="97" y="200" on="1"/>
        <pt x="131" y="180" on="0"/>
        <pt x="206" y="149" on="0"/>
        <pt x="281" y="128" on="0"/>
        <pt x="352" y="117" on="0"/>
        <pt x="381" y="117" on="1"/>
        <pt x="446" y="117" on="0"/>
        <pt x="518" y="163" on="0"/>
        <pt x="518" y="203" on="1"/>
        <pt x="518" y="222" on="0"/>
        <pt x="502" y="250" on="0"/>
        <pt x="461" y="272" on="0"/>
        <pt x="390" y="293" on="0"/>
        <pt x="335" y="305" on="1"/>
        <pt x="293" y="314" on="0"/>
        <pt x="209" y="338" on="0"/>
        <pt x="143" y="378" on="0"/>
        <pt x="101" y="440" on="0"/>
        <pt x="101" y="488" on="1"/>
        <pt x="101" y="522" on="0"/>
        <pt x="126" y="588" on="0"/>
        <pt x="178" y="641" on="0"/>
        <pt x="256" y="679" on="0"/>
        <pt x="309" y="687" on="1"/>
        <pt x="309" y="805" on="1"/>
        <pt x="423" y="805" on="1"/>
        <pt x="423" y="688" on="1"/>
        <pt x="469" y="682" on="0"/>
        <pt x="568" y="652" on="0"/>
        <pt x="609" y="629" on="1"/>
        <pt x="609" y="507" on="1"/>
        <pt x="608" y="507" on="1"/>
        <pt x="551" y="544" on="0"/>
        <pt x="418" y="583" on="0"/>
        <pt x="365" y="583" on="1"/>
        <pt x="300" y="583" on="0"/>
        <pt x="228" y="538" on="0"/>
        <pt x="228" y="500" on="1"/>
        <pt x="228" y="482" on="0"/>
        <pt x="243" y="456" on="0"/>
        <pt x="283" y="435" on="0"/>
        <pt x="354" y="415" on="0"/>
        <pt x="409" y="403" on="1"/>
        <pt x="452" y="393" on="0"/>
        <pt x="538" y="368" on="0"/>
        <pt x="604" y="326" on="0"/>
        <pt x="646" y="261" on="0"/>
        <pt x="646" y="213" on="1"/>
        <pt x="646" y="184" on="0"/>
        <pt x="625" y="116" on="0"/>
        <pt x="573" y="57" on="0"/>
        <pt x="482" y="14" on="0"/>
        <pt x="413" y="9" on="1"/>
        <pt x="413" y="-105" on="1"/>
      </contour>
    </TTGlyph>
    <TTGlyph name="dollar.tab" xMin="101" yMin="-118" xMax="655" yMax="805">
      <contour>
        <pt x="307" y="-118" on="1"/>
        <pt x="307" y="13" on="1"/>
        <pt x="249" y="21" on="0"/>
        <pt x="144" y="57" on="0"/>
        <pt x="101" y="79" on="1"/>
        <pt x="101" y="200" on="1"/>
        <pt x="102" y="200" on="1"/>
        <pt x="136" y="180" on="0"/>
        <pt x="211" y="149" on="0"/>
        <pt x="286" y="128" on="0"/>
        <pt x="358" y="117" on="0"/>
        <pt x="388" y="117" on="1"/>
        <pt x="454" y="117" on="0"/>
        <pt x="527" y="164" on="0"/>
        <pt x="527" y="204" on="1"/>
        <pt x="527" y="244" on="0"/>
        <pt x="449" y="284" on="0"/>
        <pt x="342" y="305" on="1"/>
        <pt x="298" y="314" on="0"/>
        <pt x="212" y="338" on="0"/>
        <pt x="146" y="377" on="0"/>
        <pt x="106" y="440" on="0"/>
        <pt x="106" y="488" on="1"/>
        <pt x="106" y="522" on="0"/>
        <pt x="132" y="588" on="0"/>
        <pt x="184" y="641" on="0"/>
        <pt x="263" y="680" on="0"/>
        <pt x="316" y="687" on="1"/>
        <pt x="316" y="805" on="1"/>
        <pt x="430" y="805" on="1"/>
        <pt x="430" y="688" on="1"/>
        <pt x="476" y="683" on="0"/>
        <pt x="577" y="652" on="0"/>
        <pt x="618" y="629" on="1"/>
        <pt x="618" y="507" on="1"/>
        <pt x="617" y="507" on="1"/>
        <pt x="560" y="544" on="0"/>
        <pt x="426" y="583" on="0"/>
        <pt x="372" y="583" on="1"/>
        <pt x="306" y="583" on="0"/>
        <pt x="233" y="538" on="0"/>
        <pt x="233" y="497" on="1"/>
        <pt x="233" y="473" on="0"/>
        <pt x="261" y="444" on="0"/>
        <pt x="310" y="425" on="0"/>
        <pt x="378" y="412" on="0"/>
        <pt x="418" y="403" on="1"/>
        <pt x="462" y="393" on="0"/>
        <pt x="548" y="367" on="0"/>
        <pt x="614" y="325" on="0"/>
        <pt x="655" y="261" on="0"/>
        <pt x="655" y="213" on="1"/>
        <pt x="655" y="184" on="0"/>
        <pt x="634" y="116" on="0"/>
        <pt x="582" y="57" on="0"/>
        <pt x="490" y="14" on="0"/>
        <pt x="420" y="9" on="1"/>
        <pt x="420" y="-105" on="1"/>
      </contour>
    </TTGlyph>
    <TTGlyph name="dotaccent" xMin="169" yMin="619" xMax="329" yMax="765">
      <contour>
        <pt x="249" y="619" on="1"/>
        <pt x="212" y="619" on="0"/>
        <pt x="169" y="663" on="0"/>
        <pt x="169" y="692" on="1"/>
        <pt x="169" y="693" on="1"/>
        <pt x="169" y="722" on="0"/>
        <pt x="211" y="765" on="0"/>
        <pt x="248" y="765" on="1"/>
        <pt x="286" y="765" on="0"/>
        <pt x="329" y="722" on="0"/>
        <pt x="329" y="693" on="1"/>
        <pt x="329" y="692" on="1"/>
        <pt x="329" y="663" on="0"/>
        <pt x="286" y="619" on="0"/>
      </contour>
    </TTGlyph>
    <TTGlyph name="dotlessi" xMin="90" yMin="0" xMax="212" yMax="536">
      <contour>
        <pt x="90" y="0" on="1"/>
        <pt x="90" y="536" on="1"/>
        <pt x="212" y="536" on="1"/>
        <pt x="212" y="0" on="1"/>
      </contour>
    </TTGlyph>
    <TTGlyph name="dotlessi.sc" xMin="114" yMin="0" xMax="236" yMax="589">
      <component glyphName="i.sc" x="0" y="0" flags="0x204"/>
    </TTGlyph>
    <TTGlyph name="dotmath" xMin="101" yMin="262" xMax="286" yMax="437">
      <contour>
        <pt x="194" y="262" on="1"/>
        <pt x="148" y="262" on="0"/>
        <pt x="101" y="315" on="0"/>
        <pt x="101" y="349" on="1"/>
        <pt x="101" y="351" on="1"/>
        <pt x="101" y="385" on="0"/>
        <pt x="148" y="437" on="0"/>
        <pt x="194" y="437" on="1"/>
        <pt x="239" y="437" on="0"/>
        <pt x="286" y="385" on="0"/>
        <pt x="286" y="351" on="1"/>
        <pt x="286" y="349" on="1"/>
        <pt x="286" y="315" on="0"/>
        <pt x="239" y="262" on="0"/>
      </contour>
    </TTGlyph>
    <TTGlyph name="dotmath.tab" xMin="88" yMin="262" xMax="273" yMax="437">
      <component glyphName="dotmath" x="-13" y="0" flags="0x4"/>
    </TTGlyph>
    <TTGlyph name="e" xMin="53" yMin="-15" xMax="595" yMax="551">
      <contour>
        <pt x="337" y="551" on="1"/>
        <pt x="403" y="551" on="0"/>
        <pt x="501" y="507" on="0"/>
        <pt x="564" y="432" on="0"/>
        <pt x="595" y="331" on="0"/>
        <pt x="595" y="274" on="1"/>
        <pt x="595" y="264" on="0"/>
        <pt x="593" y="244" on="0"/>
        <pt x="592" y="234" on="1"/>
        <pt x="175" y="234" on="1"/>
        <pt x="183" y="165" on="0"/>
        <pt x="278" y="88" on="0"/>
        <pt x="359" y="88" on="1"/>
        <pt x="418" y="88" on="0"/>
        <pt x="517" y="121" on="0"/>
        <pt x="563" y="150" on="1"/>
        <pt x="564" y="150" on="1"/>
        <pt x="564" y="41" on="1"/>
        <pt x="528" y="19" on="0"/>
        <pt x="421" y="-15" on="0"/>
        <pt x="355" y="-15" on="1"/>
        <pt x="279" y="-15" on="0"/>
        <pt x="165" y="26" on="0"/>
        <pt x="90" y="98" on="0"/>
        <pt x="53" y="198" on="0"/>
        <pt x="53" y="256" on="1"/>
        <pt x="53" y="319" on="0"/>
        <pt x="93" y="427" on="0"/>
        <pt x="167" y="506" on="0"/>
        <pt x="272" y="551" on="0"/>
      </contour>
      <contour>
        <pt x="334" y="451" on="1"/>
        <pt x="273" y="451" on="0"/>
        <pt x="192" y="379" on="0"/>
        <pt x="179" y="317" on="1"/>
        <pt x="479" y="317" on="1"/>
        <pt x="475" y="375" on="0"/>
        <pt x="401" y="451" on="0"/>
      </contour>
    </TTGlyph>
    <TTGlyph name="e.sc" xMin="111" yMin="0" xMax="633" yMax="589">
      <contour>
        <pt x="111" y="0" on="1"/>
        <pt x="111" y="589" on="1"/>
        <pt x="613" y="589" on="1"/>
        <pt x="618" y="485" on="1"/>
        <pt x="234" y="485" on="1"/>
        <pt x="234" y="347" on="1"/>
        <pt x="543" y="347" on="1"/>
        <pt x="543" y="247" on="1"/>
        <pt x="234" y="247" on="1"/>
        <pt x="234" y="104" on="1"/>
        <pt x="633" y="104" on="1"/>
        <pt x="628" y="0" on="1"/>
      </contour>
    </TTGlyph>
    <TTGlyph name="eacute" xMin="53" yMin="-15" xMax="595" yMax="803">
      <component glyphName="e" x="0" y="0" flags="0x204"/>
      <component glyphName="acute" x="142" y="15" flags="0x4"/>
    </TTGlyph>
    <TTGlyph name="eacute.sc" xMin="111" yMin="0" xMax="633" yMax="841">
      <component glyphName="e.sc" x="0" y="0" flags="0x204"/>
      <component glyphName="acute" x="172" y="53" flags="0x4"/>
    </TTGlyph>
    <TTGlyph name="ebreve" xMin="53" yMin="-15" xMax="595" yMax="826">
      <component glyphName="e" x="0" y="0" flags="0x204"/>
      <component glyphName="breve" x="89" y="15" flags="0x4"/>
    </TTGlyph>
    <TTGlyph name="ebreve.sc" xMin="111" yMin="0" xMax="633" yMax="864">
      <component glyphName="e.sc" x="0" y="0" flags="0x204"/>
      <component glyphName="breve" x="119" y="53" flags="0x4"/>
    </TTGlyph>
    <TTGlyph name="ecaron" xMin="53" yMin="-15" xMax="595" yMax="816">
      <component glyphName="e" x="0" y="0" flags="0x204"/>
      <component glyphName="caron" x="89" y="15" flags="0x4"/>
    </TTGlyph>
    <TTGlyph name="ecaron.sc" xMin="111" yMin="0" xMax="633" yMax="854">
      <component glyphName="e.sc" x="0" y="0" flags="0x204"/>
      <component glyphName="caron" x="119" y="53" flags="0x4"/>
    </TTGlyph>
    <TTGlyph name="ecircumflex" xMin="53" yMin="-15" xMax="595" yMax="816">
      <component glyphName="e" x="0" y="0" flags="0x204"/>
      <component glyphName="circumflex" x="89" y="15" flags="0x4"/>
    </TTGlyph>
    <TTGlyph name="ecircumflex.sc" xMin="111" yMin="0" xMax="633" yMax="854">
      <component glyphName="e.sc" x="0" y="0" flags="0x204"/>
      <component glyphName="circumflex" x="119" y="53" flags="0x4"/>
    </TTGlyph>
    <TTGlyph name="edieresis" xMin="53" yMin="-15" xMax="595" yMax="772">
      <component glyphName="e" x="0" y="0" flags="0x204"/>
      <component glyphName="dieresis" x="89" y="15" flags="0x4"/>
    </TTGlyph>
    <TTGlyph name="edieresis.sc" xMin="111" yMin="0" xMax="633" yMax="810">
      <component glyphName="e.sc" x="0" y="0" flags="0x204"/>
      <component glyphName="dieresis" x="119" y="53" flags="0x4"/>
    </TTGlyph>
    <TTGlyph name="edotaccent" xMin="53" yMin="-15" xMax="595" yMax="780">
      <component glyphName="e" x="0" y="0" flags="0x204"/>
      <component glyphName="dotaccent" x="90" y="15" flags="0x4"/>
    </TTGlyph>
    <TTGlyph name="edotaccent.sc" xMin="111" yMin="0" xMax="633" yMax="818">
      <component glyphName="e.sc" x="0" y="0" flags="0x204"/>
      <component glyphName="dotaccent" x="120" y="53" flags="0x4"/>
    </TTGlyph>
    <TTGlyph name="egrave" xMin="53" yMin="-15" xMax="595" yMax="803">
      <component glyphName="e" x="0" y="0" flags="0x204"/>
      <component glyphName="grave" x="37" y="15" flags="0x4"/>
    </TTGlyph>
    <TTGlyph name="egrave.sc" xMin="111" yMin="0" xMax="633" yMax="841">
      <component glyphName="e.sc" x="0" y="0" flags="0x204"/>
      <component glyphName="grave" x="67" y="53" flags="0x4"/>
    </TTGlyph>
    <TTGlyph name="eight" xMin="65" yMin="-23" xMax="677" yMax="720">
      <contour>
        <pt x="372" y="-23" on="1"/>
        <pt x="218" y="-23" on="0"/>
        <pt x="65" y="88" on="0"/>
        <pt x="65" y="178" on="1"/>
        <pt x="65" y="244" on="0"/>
        <pt x="141" y="329" on="0"/>
        <pt x="213" y="353" on="1"/>
        <pt x="151" y="372" on="0"/>
        <pt x="81" y="452" on="0"/>
        <pt x="81" y="513" on="1"/>
        <pt x="81" y="556" on="0"/>
        <pt x="116" y="632" on="0"/>
        <pt x="188" y="688" on="0"/>
        <pt x="298" y="720" on="0"/>
        <pt x="372" y="720" on="1"/>
        <pt x="445" y="720" on="0"/>
        <pt x="554" y="687" on="0"/>
        <pt x="626" y="631" on="0"/>
        <pt x="661" y="556" on="0"/>
        <pt x="661" y="513" on="1"/>
        <pt x="661" y="452" on="0"/>
        <pt x="590" y="372" on="0"/>
        <pt x="529" y="353" on="1"/>
        <pt x="600" y="329" on="0"/>
        <pt x="677" y="244" on="0"/>
        <pt x="677" y="178" on="1"/>
        <pt x="677" y="88" on="0"/>
        <pt x="527" y="-23" on="0"/>
      </contour>
      <contour>
        <pt x="372" y="397" on="1"/>
        <pt x="443" y="397" on="0"/>
        <pt x="534" y="451" on="0"/>
        <pt x="534" y="506" on="1"/>
        <pt x="534" y="557" on="0"/>
        <pt x="449" y="618" on="0"/>
        <pt x="372" y="618" on="1"/>
        <pt x="293" y="618" on="0"/>
        <pt x="208" y="559" on="0"/>
        <pt x="208" y="506" on="1"/>
        <pt x="208" y="451" on="0"/>
        <pt x="300" y="397" on="0"/>
      </contour>
      <contour>
        <pt x="372" y="79" on="1"/>
        <pt x="457" y="79" on="0"/>
        <pt x="548" y="139" on="0"/>
        <pt x="548" y="192" on="1"/>
        <pt x="548" y="247" on="0"/>
        <pt x="450" y="306" on="0"/>
        <pt x="372" y="306" on="1"/>
        <pt x="292" y="306" on="0"/>
        <pt x="194" y="249" on="0"/>
        <pt x="194" y="192" on="1"/>
        <pt x="194" y="139" on="0"/>
        <pt x="285" y="79" on="0"/>
      </contour>
    </TTGlyph>
    <TTGlyph name="eight.den" xMin="14" yMin="-12" xMax="380" yMax="416">
      <component glyphName="eight.small" x="-20" y="0" flags="0x4"/>
    </TTGlyph>
    <TTGlyph name="eight.inf" xMin="54" yMin="-206" xMax="420" yMax="222">
      <component glyphName="eight.small" x="20" y="-194" flags="0x4"/>
    </TTGlyph>
    <TTGlyph name="eight.num" xMin="54" yMin="282" xMax="420" yMax="710">
      <component glyphName="eight.small" x="20" y="294" flags="0x4"/>
    </TTGlyph>
    <TTGlyph name="eight.osf" xMin="63" yMin="-23" xMax="631" yMax="720">
      <contour>
        <pt x="348" y="-23" on="1"/>
        <pt x="210" y="-23" on="0"/>
        <pt x="63" y="89" on="0"/>
        <pt x="63" y="179" on="1"/>
        <pt x="63" y="241" on="0"/>
        <pt x="132" y="328" on="0"/>
        <pt x="194" y="353" on="1"/>
        <pt x="144" y="374" on="0"/>
        <pt x="79" y="453" on="0"/>
        <pt x="79" y="513" on="1"/>
        <pt x="79" y="555" on="0"/>
        <pt x="113" y="630" on="0"/>
        <pt x="180" y="687" on="0"/>
        <pt x="281" y="720" on="0"/>
        <pt x="348" y="720" on="1"/>
        <pt x="414" y="720" on="0"/>
        <pt x="515" y="686" on="0"/>
        <pt x="581" y="630" on="0"/>
        <pt x="615" y="554" on="0"/>
        <pt x="615" y="513" on="1"/>
        <pt x="615" y="453" on="0"/>
        <pt x="550" y="374" on="0"/>
        <pt x="500" y="353" on="1"/>
        <pt x="562" y="328" on="0"/>
        <pt x="631" y="241" on="0"/>
        <pt x="631" y="179" on="1"/>
        <pt x="631" y="89" on="0"/>
        <pt x="488" y="-23" on="0"/>
      </contour>
      <contour>
        <pt x="348" y="395" on="1"/>
        <pt x="409" y="395" on="0"/>
        <pt x="493" y="452" on="0"/>
        <pt x="493" y="507" on="1"/>
        <pt x="493" y="559" on="0"/>
        <pt x="414" y="621" on="0"/>
        <pt x="348" y="621" on="1"/>
        <pt x="281" y="621" on="0"/>
        <pt x="201" y="560" on="0"/>
        <pt x="201" y="507" on="1"/>
        <pt x="201" y="452" on="0"/>
        <pt x="285" y="395" on="0"/>
      </contour>
      <contour>
        <pt x="348" y="76" on="1"/>
        <pt x="420" y="76" on="0"/>
        <pt x="507" y="137" on="0"/>
        <pt x="507" y="192" on="1"/>
        <pt x="507" y="246" on="0"/>
        <pt x="417" y="307" on="0"/>
        <pt x="348" y="307" on="1"/>
        <pt x="276" y="307" on="0"/>
        <pt x="187" y="248" on="0"/>
        <pt x="187" y="192" on="1"/>
        <pt x="187" y="137" on="0"/>
        <pt x="273" y="76" on="0"/>
      </contour>
    </TTGlyph>
    <TTGlyph name="eight.small" xMin="34" yMin="-12" xMax="400" yMax="416">
      <contour>
        <pt x="217" y="-12" on="1"/>
        <pt x="125" y="-12" on="0"/>
        <pt x="34" y="51" on="0"/>
        <pt x="34" y="105" on="1"/>
        <pt x="34" y="142" on="0"/>
        <pt x="76" y="191" on="0"/>
        <pt x="121" y="205" on="1"/>
        <pt x="82" y="217" on="0"/>
        <pt x="44" y="262" on="0"/>
        <pt x="44" y="296" on="1"/>
        <pt x="44" y="349" on="0"/>
        <pt x="133" y="416" on="0"/>
        <pt x="217" y="416" on="1"/>
        <pt x="301" y="416" on="0"/>
        <pt x="390" y="349" on="0"/>
        <pt x="390" y="296" on="1"/>
        <pt x="390" y="262" on="0"/>
        <pt x="352" y="217" on="0"/>
        <pt x="313" y="205" on="1"/>
        <pt x="358" y="191" on="0"/>
        <pt x="400" y="142" on="0"/>
        <pt x="400" y="105" on="1"/>
        <pt x="400" y="51" on="0"/>
        <pt x="309" y="-12" on="0"/>
      </contour>
      <contour>
        <pt x="217" y="236" on="1"/>
        <pt x="256" y="236" on="0"/>
        <pt x="298" y="262" on="0"/>
        <pt x="298" y="286" on="1"/>
        <pt x="298" y="312" on="0"/>
        <pt x="257" y="342" on="0"/>
        <pt x="217" y="342" on="1"/>
        <pt x="177" y="342" on="0"/>
        <pt x="136" y="312" on="0"/>
        <pt x="136" y="286" on="1"/>
        <pt x="136" y="262" on="0"/>
        <pt x="178" y="236" on="0"/>
      </contour>
      <contour>
        <pt x="217" y="62" on="1"/>
        <pt x="261" y="62" on="0"/>
        <pt x="305" y="92" on="0"/>
        <pt x="305" y="117" on="1"/>
        <pt x="305" y="142" on="0"/>
        <pt x="259" y="173" on="0"/>
        <pt x="217" y="173" on="1"/>
        <pt x="175" y="173" on="0"/>
        <pt x="129" y="142" on="0"/>
        <pt x="129" y="117" on="1"/>
        <pt x="129" y="92" on="0"/>
        <pt x="173" y="62" on="0"/>
      </contour>
    </TTGlyph>
    <TTGlyph name="eight.sup" xMin="54" yMin="339" xMax="420" yMax="767">
      <component glyphName="eight.small" x="20" y="351" flags="0x4"/>
    </TTGlyph>
    <TTGlyph name="eight.tab" xMin="58" yMin="-23" xMax="666" yMax="720">
      <contour>
        <pt x="363" y="-23" on="1"/>
        <pt x="210" y="-23" on="0"/>
        <pt x="58" y="89" on="0"/>
        <pt x="58" y="179" on="1"/>
        <pt x="58" y="244" on="0"/>
        <pt x="135" y="329" on="0"/>
        <pt x="206" y="353" on="1"/>
        <pt x="145" y="372" on="0"/>
        <pt x="74" y="452" on="0"/>
        <pt x="74" y="513" on="1"/>
        <pt x="74" y="556" on="0"/>
        <pt x="109" y="632" on="0"/>
        <pt x="181" y="688" on="0"/>
        <pt x="290" y="720" on="0"/>
        <pt x="363" y="720" on="1"/>
        <pt x="435" y="720" on="0"/>
        <pt x="544" y="687" on="0"/>
        <pt x="615" y="631" on="0"/>
        <pt x="650" y="556" on="0"/>
        <pt x="650" y="513" on="1"/>
        <pt x="650" y="452" on="0"/>
        <pt x="579" y="372" on="0"/>
        <pt x="518" y="353" on="1"/>
        <pt x="589" y="329" on="0"/>
        <pt x="666" y="244" on="0"/>
        <pt x="666" y="179" on="1"/>
        <pt x="666" y="89" on="0"/>
        <pt x="517" y="-23" on="0"/>
      </contour>
      <contour>
        <pt x="363" y="397" on="1"/>
        <pt x="432" y="397" on="0"/>
        <pt x="523" y="451" on="0"/>
        <pt x="523" y="506" on="1"/>
        <pt x="523" y="557" on="0"/>
        <pt x="438" y="618" on="0"/>
        <pt x="363" y="618" on="1"/>
        <pt x="286" y="618" on="0"/>
        <pt x="201" y="559" on="0"/>
        <pt x="201" y="506" on="1"/>
        <pt x="201" y="451" on="0"/>
        <pt x="292" y="397" on="0"/>
      </contour>
      <contour>
        <pt x="363" y="79" on="1"/>
        <pt x="447" y="79" on="0"/>
        <pt x="537" y="139" on="0"/>
        <pt x="537" y="192" on="1"/>
        <pt x="537" y="247" on="0"/>
        <pt x="439" y="306" on="0"/>
        <pt x="363" y="306" on="1"/>
        <pt x="285" y="306" on="0"/>
        <pt x="187" y="249" on="0"/>
        <pt x="187" y="192" on="1"/>
        <pt x="187" y="139" on="0"/>
        <pt x="278" y="79" on="0"/>
      </contour>
    </TTGlyph>
    <TTGlyph name="ellipsis" xMin="104" yMin="-11" xMax="1078" yMax="163">
      <component glyphName="period" x="0" y="0" flags="0x4"/>
      <component glyphName="period" x="394" y="0" flags="0x4"/>
      <component glyphName="period" x="788" y="0" flags="0x4"/>
    </TTGlyph>
    <TTGlyph name="emacron" xMin="53" yMin="-15" xMax="595" yMax="749">
      <component glyphName="e" x="0" y="0" flags="0x204"/>
      <component glyphName="macron" x="89" y="15" flags="0x4"/>
    </TTGlyph>
    <TTGlyph name="emacron.sc" xMin="111" yMin="0" xMax="633" yMax="787">
      <component glyphName="e.sc" x="0" y="0" flags="0x204"/>
      <component glyphName="macron" x="119" y="53" flags="0x4"/>
    </TTGlyph>
    <TTGlyph name="emdash" xMin="83" yMin="263" xMax="779" yMax="378">
      <contour>
        <pt x="83" y="263" on="1"/>
        <pt x="83" y="378" on="1"/>
        <pt x="779" y="378" on="1"/>
        <pt x="779" y="263" on="1"/>
      </contour>
    </TTGlyph>
    <TTGlyph name="emdash.cap" xMin="83" yMin="293" xMax="779" yMax="408">
      <component glyphName="emdash" x="0" y="30" flags="0x4"/>
    </TTGlyph>
    <TTGlyph name="endash" xMin="83" yMin="263" xMax="625" yMax="378">
      <contour>
        <pt x="83" y="263" on="1"/>
        <pt x="83" y="378" on="1"/>
        <pt x="625" y="378" on="1"/>
        <pt x="625" y="263" on="1"/>
      </contour>
    </TTGlyph>
    <TTGlyph name="endash.cap" xMin="83" yMin="293" xMax="625" yMax="408">
      <component glyphName="endash" x="0" y="30" flags="0x4"/>
    </TTGlyph>
    <TTGlyph name="endash.tab" xMin="79" yMin="293" xMax="645" yMax="407">
      <contour>
        <pt x="79" y="293" on="1"/>
        <pt x="79" y="407" on="1"/>
        <pt x="645" y="407" on="1"/>
        <pt x="645" y="293" on="1"/>
      </contour>
    </TTGlyph>
    <TTGlyph name="eogonek" xMin="53" yMin="-302" xMax="595" yMax="551">
      <contour>
        <pt x="355" y="-15" on="1"/>
        <pt x="279" y="-15" on="0"/>
        <pt x="165" y="26" on="0"/>
        <pt x="90" y="98" on="0"/>
        <pt x="53" y="198" on="0"/>
        <pt x="53" y="256" on="1"/>
        <pt x="53" y="319" on="0"/>
        <pt x="93" y="427" on="0"/>
        <pt x="167" y="506" on="0"/>
        <pt x="272" y="551" on="0"/>
        <pt x="337" y="551" on="1"/>
        <pt x="403" y="551" on="0"/>
        <pt x="501" y="507" on="0"/>
        <pt x="564" y="432" on="0"/>
        <pt x="595" y="331" on="0"/>
        <pt x="595" y="274" on="1"/>
        <pt x="595" y="264" on="0"/>
        <pt x="593" y="244" on="0"/>
        <pt x="592" y="234" on="1"/>
        <pt x="175" y="234" on="1"/>
        <pt x="183" y="165" on="0"/>
        <pt x="278" y="88" on="0"/>
        <pt x="359" y="88" on="1"/>
        <pt x="418" y="88" on="0"/>
        <pt x="517" y="121" on="0"/>
        <pt x="563" y="150" on="1"/>
        <pt x="564" y="150" on="1"/>
        <pt x="564" y="41" on="1"/>
        <pt x="519" y="-14" on="1"/>
        <pt x="461" y="-81" on="0"/>
        <pt x="426" y="-140" on="0"/>
        <pt x="426" y="-165" on="1"/>
        <pt x="426" y="-187" on="0"/>
        <pt x="460" y="-210" on="0"/>
        <pt x="494" y="-210" on="1"/>
        <pt x="510" y="-210" on="0"/>
        <pt x="553" y="-202" on="0"/>
        <pt x="576" y="-191" on="1"/>
        <pt x="576" y="-284" on="1"/>
        <pt x="549" y="-293" on="0"/>
        <pt x="500" y="-302" on="0"/>
        <pt x="470" y="-302" on="1"/>
        <pt x="422" y="-302" on="0"/>
        <pt x="361" y="-280" on="0"/>
        <pt x="326" y="-247" on="0"/>
        <pt x="313" y="-206" on="0"/>
        <pt x="313" y="-188" on="1"/>
        <pt x="313" y="-140" on="0"/>
        <pt x="377" y="-59" on="0"/>
        <pt x="430" y="-8" on="1"/>
        <pt x="412" y="-12" on="0"/>
        <pt x="374" y="-15" on="0"/>
      </contour>
      <contour>
        <pt x="334" y="451" on="1"/>
        <pt x="273" y="451" on="0"/>
        <pt x="192" y="379" on="0"/>
        <pt x="179" y="317" on="1"/>
        <pt x="479" y="317" on="1"/>
        <pt x="475" y="375" on="0"/>
        <pt x="401" y="451" on="0"/>
      </contour>
    </TTGlyph>
    <TTGlyph name="eogonek.sc" xMin="111" yMin="-289" xMax="650" yMax="589">
      <contour>
        <pt x="111" y="0" on="1"/>
        <pt x="111" y="589" on="1"/>
        <pt x="613" y="589" on="1"/>
        <pt x="618" y="485" on="1"/>
        <pt x="234" y="485" on="1"/>
        <pt x="234" y="347" on="1"/>
        <pt x="543" y="347" on="1"/>
        <pt x="543" y="247" on="1"/>
        <pt x="234" y="247" on="1"/>
        <pt x="234" y="104" on="1"/>
        <pt x="633" y="104" on="1"/>
        <pt x="628" y="0" on="1"/>
        <pt x="572" y="-54" on="1"/>
        <pt x="532" y="-92" on="0"/>
        <pt x="499" y="-133" on="0"/>
        <pt x="499" y="-154" on="1"/>
        <pt x="499" y="-175" on="0"/>
        <pt x="533" y="-198" on="0"/>
        <pt x="567" y="-198" on="1"/>
        <pt x="583" y="-198" on="0"/>
        <pt x="627" y="-189" on="0"/>
        <pt x="650" y="-177" on="1"/>
        <pt x="650" y="-270" on="1"/>
        <pt x="622" y="-280" on="0"/>
        <pt x="574" y="-289" on="0"/>
        <pt x="543" y="-289" on="1"/>
        <pt x="495" y="-289" on="0"/>
        <pt x="434" y="-267" on="0"/>
        <pt x="399" y="-234" on="0"/>
        <pt x="386" y="-194" on="0"/>
        <pt x="386" y="-175" on="1"/>
        <pt x="386" y="-132" on="0"/>
        <pt x="444" y="-55" on="0"/>
        <pt x="495" y="-9" on="1"/>
        <pt x="505" y="0" on="1"/>
      </contour>
    </TTGlyph>
    <TTGlyph name="equal" xMin="114" yMin="161" xMax="653" yMax="539">
      <contour>
        <pt x="114" y="431" on="1"/>
        <pt x="114" y="539" on="1"/>
        <pt x="653" y="539" on="1"/>
        <pt x="653" y="431" on="1"/>
      </contour>
      <contour>
        <pt x="114" y="161" on="1"/>
        <pt x="114" y="269" on="1"/>
        <pt x="653" y="269" on="1"/>
        <pt x="653" y="161" on="1"/>
      </contour>
    </TTGlyph>
    <TTGlyph name="equal.tab" xMin="93" yMin="161" xMax="632" yMax="539">
      <component glyphName="equal" x="-21" y="0" flags="0x4"/>
    </TTGlyph>
    <TTGlyph name="eth" xMin="49" yMin="-15" xMax="616" yMax="754">
      <contour>
        <pt x="329" y="-15" on="1"/>
        <pt x="268" y="-15" on="0"/>
        <pt x="165" y="21" on="0"/>
        <pt x="91" y="87" on="0"/>
        <pt x="49" y="182" on="0"/>
        <pt x="49" y="239" on="1"/>
        <pt x="49" y="304" on="0"/>
        <pt x="96" y="403" on="0"/>
        <pt x="171" y="469" on="0"/>
        <pt x="267" y="502" on="0"/>
        <pt x="316" y="502" on="1"/>
        <pt x="373" y="502" on="0"/>
        <pt x="462" y="460" on="0"/>
        <pt x="491" y="426" on="1"/>
        <pt x="475" y="474" on="0"/>
        <pt x="424" y="559" on="0"/>
        <pt x="384" y="599" on="1"/>
        <pt x="211" y="539" on="1"/>
        <pt x="211" y="619" on="1"/>
        <pt x="318" y="656" on="1"/>
        <pt x="290" y="678" on="0"/>
        <pt x="221" y="723" on="0"/>
        <pt x="181" y="746" on="1"/>
        <pt x="181" y="754" on="1"/>
        <pt x="336" y="754" on="1"/>
        <pt x="359" y="741" on="0"/>
        <pt x="404" y="710" on="0"/>
        <pt x="426" y="693" on="1"/>
        <pt x="602" y="754" on="1"/>
        <pt x="602" y="674" on="1"/>
        <pt x="487" y="634" on="1"/>
        <pt x="544" y="571" on="0"/>
        <pt x="616" y="405" on="0"/>
        <pt x="616" y="305" on="1"/>
        <pt x="616" y="228" on="0"/>
        <pt x="573" y="108" on="0"/>
        <pt x="497" y="27" on="0"/>
        <pt x="391" y="-15" on="0"/>
      </contour>
      <contour>
        <pt x="172" y="243" on="1"/>
        <pt x="172" y="168" on="0"/>
        <pt x="265" y="89" on="0"/>
        <pt x="331" y="89" on="1"/>
        <pt x="412" y="89" on="0"/>
        <pt x="497" y="204" on="0"/>
        <pt x="497" y="294" on="1"/>
        <pt x="497" y="304" on="0"/>
        <pt x="496" y="323" on="0"/>
        <pt x="495" y="332" on="1"/>
        <pt x="473" y="366" on="0"/>
        <pt x="385" y="407" on="0"/>
        <pt x="337" y="407" on="1"/>
        <pt x="306" y="407" on="0"/>
        <pt x="247" y="388" on="0"/>
        <pt x="201" y="348" on="0"/>
        <pt x="172" y="286" on="0"/>
      </contour>
    </TTGlyph>
    <TTGlyph name="eth.sc" xMin="45" yMin="0" xMax="736" yMax="589">
      <contour>
        <pt x="141" y="0" on="1"/>
        <pt x="141" y="251" on="1"/>
        <pt x="45" y="251" on="1"/>
        <pt x="53" y="342" on="1"/>
        <pt x="141" y="342" on="1"/>
        <pt x="141" y="589" on="1"/>
        <pt x="430" y="589" on="1"/>
        <pt x="574" y="589" on="0"/>
        <pt x="736" y="432" on="0"/>
        <pt x="736" y="295" on="1"/>
        <pt x="736" y="159" on="0"/>
        <pt x="574" y="0" on="0"/>
        <pt x="430" y="0" on="1"/>
      </contour>
      <contour>
        <pt x="264" y="106" on="1"/>
        <pt x="418" y="106" on="1"/>
        <pt x="514" y="106" on="0"/>
        <pt x="611" y="199" on="0"/>
        <pt x="611" y="293" on="1"/>
        <pt x="611" y="386" on="0"/>
        <pt x="514" y="483" on="0"/>
        <pt x="418" y="483" on="1"/>
        <pt x="264" y="483" on="1"/>
        <pt x="264" y="342" on="1"/>
        <pt x="437" y="342" on="1"/>
        <pt x="437" y="251" on="1"/>
        <pt x="264" y="251" on="1"/>
      </contour>
    </TTGlyph>
    <TTGlyph name="exclam" xMin="109" yMin="-11" xMax="294" yMax="700">
      <contour>
        <pt x="154" y="254" on="1"/>
        <pt x="119" y="698" on="1"/>
        <pt x="119" y="700" on="1"/>
        <pt x="284" y="700" on="1"/>
        <pt x="284" y="698" on="1"/>
        <pt x="249" y="254" on="1"/>
      </contour>
      <contour>
        <pt x="202" y="-11" on="1"/>
        <pt x="156" y="-11" on="0"/>
        <pt x="109" y="42" on="0"/>
        <pt x="109" y="76" on="1"/>
        <pt x="109" y="77" on="1"/>
        <pt x="109" y="111" on="0"/>
        <pt x="156" y="163" on="0"/>
        <pt x="202" y="163" on="1"/>
        <pt x="246" y="163" on="0"/>
        <pt x="294" y="111" on="0"/>
        <pt x="294" y="77" on="1"/>
        <pt x="294" y="76" on="1"/>
        <pt x="294" y="42" on="0"/>
        <pt x="246" y="-11" on="0"/>
      </contour>
    </TTGlyph>
    <TTGlyph name="exclamdown" xMin="109" yMin="-160" xMax="294" yMax="551">
      <contour>
        <pt x="201" y="551" on="1"/>
        <pt x="247" y="551" on="0"/>
        <pt x="294" y="498" on="0"/>
        <pt x="294" y="464" on="1"/>
        <pt x="294" y="463" on="1"/>
        <pt x="294" y="429" on="0"/>
        <pt x="247" y="377" on="0"/>
        <pt x="201" y="377" on="1"/>
        <pt x="156" y="377" on="0"/>
        <pt x="109" y="429" on="0"/>
        <pt x="109" y="463" on="1"/>
        <pt x="109" y="464" on="1"/>
        <pt x="109" y="498" on="0"/>
        <pt x="156" y="551" on="0"/>
      </contour>
      <contour>
        <pt x="249" y="286" on="1"/>
        <pt x="284" y="-158" on="1"/>
        <pt x="284" y="-160" on="1"/>
        <pt x="119" y="-160" on="1"/>
        <pt x="119" y="-158" on="1"/>
        <pt x="154" y="286" on="1"/>
      </contour>
    </TTGlyph>
    <TTGlyph name="exclamdown.cap" xMin="109" yMin="0" xMax="294" yMax="711">
      <contour>
        <pt x="201" y="711" on="1"/>
        <pt x="247" y="711" on="0"/>
        <pt x="294" y="658" on="0"/>
        <pt x="294" y="624" on="1"/>
        <pt x="294" y="623" on="1"/>
        <pt x="294" y="589" on="0"/>
        <pt x="247" y="537" on="0"/>
        <pt x="201" y="537" on="1"/>
        <pt x="157" y="537" on="0"/>
        <pt x="109" y="589" on="0"/>
        <pt x="109" y="623" on="1"/>
        <pt x="109" y="624" on="1"/>
        <pt x="109" y="658" on="0"/>
        <pt x="157" y="711" on="0"/>
      </contour>
      <contour>
        <pt x="249" y="446" on="1"/>
        <pt x="284" y="2" on="1"/>
        <pt x="284" y="0" on="1"/>
        <pt x="119" y="0" on="1"/>
        <pt x="119" y="2" on="1"/>
        <pt x="154" y="446" on="1"/>
      </contour>
    </TTGlyph>
    <TTGlyph name="f" xMin="31" yMin="0" xMax="415" yMax="769">
      <contour>
        <pt x="139" y="0" on="1"/>
        <pt x="139" y="435" on="1"/>
        <pt x="31" y="435" on="1"/>
        <pt x="51" y="536" on="1"/>
        <pt x="139" y="536" on="1"/>
        <pt x="139" y="555" on="1"/>
        <pt x="139" y="653" on="0"/>
        <pt x="224" y="769" on="0"/>
        <pt x="320" y="769" on="1"/>
        <pt x="345" y="769" on="0"/>
        <pt x="385" y="763" on="0"/>
        <pt x="407" y="756" on="1"/>
        <pt x="407" y="654" on="1"/>
        <pt x="406" y="654" on="1"/>
        <pt x="389" y="660" on="0"/>
        <pt x="358" y="666" on="0"/>
        <pt x="341" y="666" on="1"/>
        <pt x="298" y="666" on="0"/>
        <pt x="260" y="616" on="0"/>
        <pt x="260" y="569" on="1"/>
        <pt x="260" y="536" on="1"/>
        <pt x="415" y="536" on="1"/>
        <pt x="415" y="435" on="1"/>
        <pt x="260" y="435" on="1"/>
        <pt x="260" y="0" on="1"/>
      </contour>
    </TTGlyph>
    <TTGlyph name="f.sc" xMin="111" yMin="0" xMax="612" yMax="589">
      <contour>
        <pt x="111" y="0" on="1"/>
        <pt x="111" y="589" on="1"/>
        <pt x="607" y="589" on="1"/>
        <pt x="612" y="483" on="1"/>
        <pt x="234" y="483" on="1"/>
        <pt x="234" y="335" on="1"/>
        <pt x="553" y="335" on="1"/>
        <pt x="553" y="229" on="1"/>
        <pt x="234" y="229" on="1"/>
        <pt x="234" y="0" on="1"/>
      </contour>
    </TTGlyph>
    <TTGlyph name="five" xMin="75" yMin="-16" xMax="637" yMax="700">
      <contour>
        <pt x="341" y="-16" on="1"/>
        <pt x="285" y="-16" on="0"/>
        <pt x="142" y="7" on="0"/>
        <pt x="75" y="31" on="1"/>
        <pt x="75" y="151" on="1"/>
        <pt x="76" y="151" on="1"/>
        <pt x="149" y="122" on="0"/>
        <pt x="286" y="94" on="0"/>
        <pt x="337" y="94" on="1"/>
        <pt x="384" y="94" on="0"/>
        <pt x="448" y="115" on="0"/>
        <pt x="488" y="149" on="0"/>
        <pt x="505" y="191" on="0"/>
        <pt x="505" y="211" on="1"/>
        <pt x="505" y="230" on="0"/>
        <pt x="494" y="261" on="0"/>
        <pt x="482" y="273" on="1"/>
        <pt x="471" y="284" on="0"/>
        <pt x="437" y="301" on="0"/>
        <pt x="380" y="312" on="0"/>
        <pt x="294" y="318" on="0"/>
        <pt x="231" y="318" on="1"/>
        <pt x="98" y="318" on="1"/>
        <pt x="108" y="700" on="1"/>
        <pt x="590" y="700" on="1"/>
        <pt x="594" y="589" on="1"/>
        <pt x="221" y="589" on="1"/>
        <pt x="215" y="427" on="1"/>
        <pt x="271" y="427" on="1"/>
        <pt x="397" y="427" on="0"/>
        <pt x="547" y="391" on="0"/>
        <pt x="590" y="347" on="1"/>
        <pt x="615" y="322" on="0"/>
        <pt x="637" y="255" on="0"/>
        <pt x="637" y="215" on="1"/>
        <pt x="637" y="169" on="0"/>
        <pt x="597" y="85" on="0"/>
        <pt x="522" y="21" on="0"/>
        <pt x="412" y="-16" on="0"/>
      </contour>
    </TTGlyph>
    <TTGlyph name="five.den" xMin="39" yMin="-11" xMax="374" yMax="406">
      <component glyphName="five.small" x="-20" y="0" flags="0x4"/>
    </TTGlyph>
    <TTGlyph name="five.inf" xMin="79" yMin="-205" xMax="414" yMax="212">
      <component glyphName="five.small" x="20" y="-194" flags="0x4"/>
    </TTGlyph>
    <TTGlyph name="five.num" xMin="79" yMin="283" xMax="414" yMax="700">
      <component glyphName="five.small" x="20" y="294" flags="0x4"/>
    </TTGlyph>
    <TTGlyph name="five.osf" xMin="74" yMin="-127" xMax="578" yMax="589">
      <contour>
        <pt x="295" y="-127" on="1"/>
        <pt x="258" y="-127" on="0"/>
        <pt x="139" y="-112" on="0"/>
        <pt x="74" y="-94" on="1"/>
        <pt x="74" y="17" on="1"/>
        <pt x="75" y="17" on="1"/>
        <pt x="147" y="-5" on="0"/>
        <pt x="260" y="-22" on="0"/>
        <pt x="294" y="-22" on="1"/>
        <pt x="379" y="-22" on="0"/>
        <pt x="454" y="53" on="0"/>
        <pt x="454" y="98" on="1"/>
        <pt x="454" y="120" on="0"/>
        <pt x="443" y="152" on="0"/>
        <pt x="430" y="165" on="1"/>
        <pt x="408" y="187" on="0"/>
        <pt x="304" y="209" on="0"/>
        <pt x="188" y="209" on="1"/>
        <pt x="95" y="209" on="1"/>
        <pt x="101" y="589" on="1"/>
        <pt x="541" y="589" on="1"/>
        <pt x="545" y="482" on="1"/>
        <pt x="210" y="482" on="1"/>
        <pt x="207" y="312" on="1"/>
        <pt x="279" y="310" on="1"/>
        <pt x="428" y="307" on="0"/>
        <pt x="578" y="205" on="0"/>
        <pt x="578" y="100" on="1"/>
        <pt x="578" y="53" on="0"/>
        <pt x="539" y="-31" on="0"/>
        <pt x="467" y="-92" on="0"/>
        <pt x="361" y="-127" on="0"/>
      </contour>
    </TTGlyph>
    <TTGlyph name="five.small" xMin="59" yMin="-11" xMax="394" yMax="406">
      <contour>
        <pt x="216" y="-11" on="1"/>
        <pt x="167" y="-11" on="0"/>
        <pt x="93" y="3" on="0"/>
        <pt x="59" y="15" on="1"/>
        <pt x="59" y="103" on="1"/>
        <pt x="60" y="103" on="1"/>
        <pt x="94" y="88" on="0"/>
        <pt x="171" y="70" on="0"/>
        <pt x="215" y="70" on="1"/>
        <pt x="262" y="70" on="0"/>
        <pt x="295" y="106" on="0"/>
        <pt x="295" y="124" on="1"/>
        <pt x="295" y="133" on="0"/>
        <pt x="290" y="147" on="0"/>
        <pt x="284" y="152" on="1"/>
        <pt x="273" y="163" on="0"/>
        <pt x="212" y="172" on="0"/>
        <pt x="147" y="172" on="1"/>
        <pt x="68" y="172" on="1"/>
        <pt x="74" y="406" on="1"/>
        <pt x="368" y="406" on="1"/>
        <pt x="372" y="324" on="1"/>
        <pt x="162" y="324" on="1"/>
        <pt x="160" y="247" on="1"/>
        <pt x="183" y="247" on="1"/>
        <pt x="255" y="247" on="0"/>
        <pt x="340" y="228" on="0"/>
        <pt x="364" y="203" on="1"/>
        <pt x="377" y="190" on="0"/>
        <pt x="394" y="151" on="0"/>
        <pt x="394" y="124" on="1"/>
        <pt x="394" y="63" on="0"/>
        <pt x="298" y="-11" on="0"/>
      </contour>
    </TTGlyph>
    <TTGlyph name="five.sup" xMin="79" yMin="340" xMax="414" yMax="757">
      <component glyphName="five.small" x="20" y="351" flags="0x4"/>
    </TTGlyph>
    <TTGlyph name="five.tab" xMin="86" yMin="-16" xMax="652" yMax="700">
      <contour>
        <pt x="355" y="-16" on="1"/>
        <pt x="291" y="-16" on="0"/>
        <pt x="153" y="13" on="0"/>
        <pt x="86" y="41" on="1"/>
        <pt x="86" y="161" on="1"/>
        <pt x="87" y="161" on="1"/>
        <pt x="160" y="128" on="0"/>
        <pt x="292" y="94" on="0"/>
        <pt x="351" y="94" on="1"/>
        <pt x="400" y="94" on="0"/>
        <pt x="465" y="115" on="0"/>
        <pt x="504" y="149" on="0"/>
        <pt x="520" y="191" on="0"/>
        <pt x="520" y="211" on="1"/>
        <pt x="520" y="230" on="0"/>
        <pt x="509" y="261" on="0"/>
        <pt x="496" y="273" on="1"/>
        <pt x="486" y="284" on="0"/>
        <pt x="453" y="301" on="0"/>
        <pt x="396" y="312" on="0"/>
        <pt x="306" y="318" on="0"/>
        <pt x="240" y="318" on="1"/>
        <pt x="105" y="318" on="1"/>
        <pt x="114" y="700" on="1"/>
        <pt x="608" y="700" on="1"/>
        <pt x="613" y="589" on="1"/>
        <pt x="227" y="589" on="1"/>
        <pt x="222" y="427" on="1"/>
        <pt x="280" y="427" on="1"/>
        <pt x="414" y="427" on="0"/>
        <pt x="562" y="391" on="0"/>
        <pt x="605" y="347" on="1"/>
        <pt x="629" y="322" on="0"/>
        <pt x="652" y="255" on="0"/>
        <pt x="652" y="215" on="1"/>
        <pt x="652" y="169" on="0"/>
        <pt x="614" y="85" on="0"/>
        <pt x="539" y="21" on="0"/>
        <pt x="427" y="-16" on="0"/>
      </contour>
    </TTGlyph>
    <TTGlyph name="fiveeighths" xMin="79" yMin="-12" xMax="1064" yMax="700">
      <component glyphName="five.num" x="0" y="0" flags="0x4"/>
      <component glyphName="fraction" x="430" y="0" flags="0x4"/>
      <component glyphName="eight.den" x="684" y="0" flags="0x4"/>
    </TTGlyph>
    <TTGlyph name="fiveeighths.tab" xMin="79" yMin="-12" xMax="1032" yMax="700">
      <component glyphName="five.num" x="0" y="0" flags="0x4"/>
      <component glyphName="fraction.tab" x="435" y="0" flags="0x4"/>
      <component glyphName="eight.den" x="652" y="0" flags="0x4"/>
    </TTGlyph>
    <TTGlyph name="four" xMin="50" yMin="0" xMax="721" yMax="700">
      <contour>
        <pt x="468" y="0" on="1"/>
        <pt x="468" y="163" on="1"/>
        <pt x="50" y="163" on="1"/>
        <pt x="50" y="257" on="1"/>
        <pt x="323" y="700" on="1"/>
        <pt x="587" y="700" on="1"/>
        <pt x="587" y="269" on="1"/>
        <pt x="721" y="269" on="1"/>
        <pt x="716" y="163" on="1"/>
        <pt x="587" y="163" on="1"/>
        <pt x="587" y="0" on="1"/>
      </contour>
      <contour>
        <pt x="468" y="589" on="1"/>
        <pt x="384" y="589" on="1"/>
        <pt x="188" y="269" on="1"/>
        <pt x="468" y="269" on="1"/>
      </contour>
    </TTGlyph>
    <TTGlyph name="four.den" xMin="2" yMin="0" xMax="401" yMax="406">
      <component glyphName="four.small" x="-20" y="0" flags="0x4"/>
    </TTGlyph>
    <TTGlyph name="four.inf" xMin="42" yMin="-194" xMax="441" yMax="212">
      <component glyphName="four.small" x="20" y="-194" flags="0x4"/>
    </TTGlyph>
    <TTGlyph name="four.num" xMin="42" yMin="294" xMax="441" yMax="700">
      <component glyphName="four.small" x="20" y="294" flags="0x4"/>
    </TTGlyph>
    <TTGlyph name="four.osf" xMin="53" yMin="-114" xMax="682" yMax="589">
      <contour>
        <pt x="442" y="-114" on="1"/>
        <pt x="442" y="48" on="1"/>
        <pt x="53" y="48" on="1"/>
        <pt x="53" y="139" on="1"/>
        <pt x="295" y="589" on="1"/>
        <pt x="556" y="589" on="1"/>
        <pt x="556" y="149" on="1"/>
        <pt x="682" y="149" on="1"/>
        <pt x="678" y="48" on="1"/>
        <pt x="556" y="48" on="1"/>
        <pt x="556" y="-114" on="1"/>
      </contour>
      <contour>
        <pt x="183" y="149" on="1"/>
        <pt x="442" y="149" on="1"/>
        <pt x="442" y="481" on="1"/>
        <pt x="359" y="481" on="1"/>
      </contour>
    </TTGlyph>
    <TTGlyph name="four.small" xMin="22" yMin="0" xMax="421" yMax="406">
      <contour>
        <pt x="264" y="0" on="1"/>
        <pt x="264" y="83" on="1"/>
        <pt x="22" y="83" on="1"/>
        <pt x="22" y="156" on="1"/>
        <pt x="141" y="406" on="1"/>
        <pt x="355" y="406" on="1"/>
        <pt x="355" y="163" on="1"/>
        <pt x="421" y="163" on="1"/>
        <pt x="417" y="83" on="1"/>
        <pt x="355" y="83" on="1"/>
        <pt x="355" y="0" on="1"/>
      </contour>
      <contour>
        <pt x="121" y="161" on="1"/>
        <pt x="266" y="161" on="1"/>
        <pt x="266" y="327" on="1"/>
        <pt x="200" y="327" on="1"/>
      </contour>
    </TTGlyph>
    <TTGlyph name="four.sup" xMin="42" yMin="351" xMax="441" yMax="757">
      <component glyphName="four.small" x="20" y="351" flags="0x4"/>
    </TTGlyph>
    <TTGlyph name="four.tab" xMin="40" yMin="0" xMax="694" yMax="700">
      <contour>
        <pt x="458" y="0" on="1"/>
        <pt x="458" y="154" on="1"/>
        <pt x="40" y="154" on="1"/>
        <pt x="40" y="248" on="1"/>
        <pt x="284" y="700" on="1"/>
        <pt x="577" y="700" on="1"/>
        <pt x="577" y="260" on="1"/>
        <pt x="694" y="260" on="1"/>
        <pt x="689" y="154" on="1"/>
        <pt x="577" y="154" on="1"/>
        <pt x="577" y="0" on="1"/>
      </contour>
      <contour>
        <pt x="179" y="260" on="1"/>
        <pt x="458" y="260" on="1"/>
        <pt x="458" y="589" on="1"/>
        <pt x="353" y="589" on="1"/>
      </contour>
    </TTGlyph>
    <TTGlyph name="fraction" xMin="-170" yMin="0" xMax="432" yMax="700">
      <contour>
        <pt x="-170" y="1" on="1"/>
        <pt x="329" y="700" on="1"/>
        <pt x="432" y="700" on="1"/>
        <pt x="432" y="699" on="1"/>
        <pt x="-68" y="0" on="1"/>
        <pt x="-170" y="0" on="1"/>
      </contour>
    </TTGlyph>
    <TTGlyph name="fraction.tab" xMin="-192" yMin="0" xMax="410" yMax="700">
      <contour>
        <pt x="-192" y="1" on="1"/>
        <pt x="307" y="700" on="1"/>
        <pt x="410" y="700" on="1"/>
        <pt x="410" y="699" on="1"/>
        <pt x="-89" y="0" on="1"/>
        <pt x="-192" y="0" on="1"/>
      </contour>
    </TTGlyph>
    <TTGlyph name="g" xMin="32" yMin="-210" xMax="595" yMax="633">
      <contour>
        <pt x="305" y="171" on="1"/>
        <pt x="292" y="171" on="0"/>
        <pt x="266" y="173" on="0"/>
        <pt x="254" y="174" on="1"/>
        <pt x="242" y="106" on="1"/>
        <pt x="427" y="93" on="0"/>
        <pt x="595" y="16" on="0"/>
        <pt x="595" y="-54" on="1"/>
        <pt x="595" y="-81" on="0"/>
        <pt x="564" y="-137" on="0"/>
        <pt x="496" y="-181" on="0"/>
        <pt x="387" y="-210" on="0"/>
        <pt x="311" y="-210" on="1"/>
        <pt x="173" y="-210" on="0"/>
        <pt x="32" y="-133" on="0"/>
        <pt x="32" y="-73" on="1"/>
        <pt x="32" y="-42" on="0"/>
        <pt x="80" y="26" on="0"/>
        <pt x="143" y="53" on="1"/>
        <pt x="172" y="195" on="1"/>
        <pt x="115" y="220" on="0"/>
        <pt x="63" y="307" on="0"/>
        <pt x="63" y="356" on="1"/>
        <pt x="63" y="393" on="0"/>
        <pt x="93" y="464" on="0"/>
        <pt x="154" y="518" on="0"/>
        <pt x="246" y="551" on="0"/>
        <pt x="307" y="551" on="1"/>
        <pt x="332" y="551" on="0"/>
        <pt x="374" y="545" on="0"/>
        <pt x="393" y="540" on="1"/>
        <pt x="449" y="633" on="1"/>
        <pt x="583" y="633" on="1"/>
        <pt x="583" y="632" on="1"/>
        <pt x="473" y="502" on="1"/>
        <pt x="507" y="477" on="0"/>
        <pt x="546" y="404" on="0"/>
        <pt x="546" y="361" on="1"/>
        <pt x="546" y="324" on="0"/>
        <pt x="516" y="255" on="0"/>
        <pt x="456" y="202" on="0"/>
        <pt x="365" y="171" on="0"/>
      </contour>
      <contour>
        <pt x="305" y="258" on="1"/>
        <pt x="359" y="258" on="0"/>
        <pt x="431" y="313" on="0"/>
        <pt x="431" y="362" on="1"/>
        <pt x="431" y="408" on="0"/>
        <pt x="361" y="464" on="0"/>
        <pt x="307" y="464" on="1"/>
        <pt x="251" y="464" on="0"/>
        <pt x="180" y="406" on="0"/>
        <pt x="180" y="359" on="1"/>
        <pt x="180" y="310" on="0"/>
        <pt x="250" y="258" on="0"/>
      </contour>
      <contour>
        <pt x="321" y="-124" on="1"/>
        <pt x="398" y="-124" on="0"/>
        <pt x="483" y="-87" on="0"/>
        <pt x="483" y="-62" on="1"/>
        <pt x="483" y="-30" on="0"/>
        <pt x="336" y="10" on="0"/>
        <pt x="186" y="17" on="1"/>
        <pt x="158" y="1" on="0"/>
        <pt x="133" y="-30" on="0"/>
        <pt x="133" y="-48" on="1"/>
        <pt x="133" y="-67" on="0"/>
        <pt x="163" y="-95" on="0"/>
        <pt x="214" y="-114" on="0"/>
        <pt x="283" y="-124" on="0"/>
      </contour>
    </TTGlyph>
    <TTGlyph name="g.sc" xMin="69" yMin="-16" xMax="713" yMax="602">
      <contour>
        <pt x="399" y="-16" on="1"/>
        <pt x="317" y="-16" on="0"/>
        <pt x="193" y="33" on="0"/>
        <pt x="110" y="115" on="0"/>
        <pt x="69" y="227" on="0"/>
        <pt x="69" y="289" on="1"/>
        <pt x="69" y="354" on="0"/>
        <pt x="114" y="468" on="0"/>
        <pt x="201" y="553" on="0"/>
        <pt x="329" y="602" on="0"/>
        <pt x="411" y="602" on="1"/>
        <pt x="486" y="602" on="0"/>
        <pt x="606" y="561" on="0"/>
        <pt x="645" y="531" on="1"/>
        <pt x="645" y="411" on="1"/>
        <pt x="644" y="411" on="1"/>
        <pt x="597" y="445" on="0"/>
        <pt x="480" y="494" on="0"/>
        <pt x="408" y="494" on="1"/>
        <pt x="308" y="494" on="0"/>
        <pt x="194" y="377" on="0"/>
        <pt x="194" y="290" on="1"/>
        <pt x="194" y="247" on="0"/>
        <pt x="220" y="174" on="0"/>
        <pt x="273" y="121" on="0"/>
        <pt x="353" y="90" on="0"/>
        <pt x="407" y="90" on="1"/>
        <pt x="493" y="90" on="0"/>
        <pt x="592" y="172" on="0"/>
        <pt x="593" y="237" on="1"/>
        <pt x="369" y="237" on="1"/>
        <pt x="369" y="337" on="1"/>
        <pt x="712" y="337" on="1"/>
        <pt x="713" y="328" on="0"/>
        <pt x="713" y="296" on="0"/>
        <pt x="713" y="287" on="1"/>
        <pt x="713" y="203" on="0"/>
        <pt x="660" y="87" on="0"/>
        <pt x="573" y="16" on="0"/>
        <pt x="459" y="-16" on="0"/>
      </contour>
    </TTGlyph>
    <TTGlyph name="gbreve" xMin="32" yMin="-210" xMax="595" yMax="826">
      <component glyphName="g" x="0" y="0" flags="0x204"/>
      <component glyphName="breve" x="38" y="15" flags="0x4"/>
    </TTGlyph>
    <TTGlyph name="gbreve.sc" xMin="69" yMin="-16" xMax="713" yMax="877">
      <component glyphName="g.sc" x="0" y="0" flags="0x204"/>
      <component glyphName="breve" x="143" y="66" flags="0x4"/>
    </TTGlyph>
    <TTGlyph name="gdotaccent" xMin="32" yMin="-210" xMax="595" yMax="780">
      <component glyphName="g" x="0" y="0" flags="0x204"/>
      <component glyphName="dotaccent" x="39" y="15" flags="0x4"/>
    </TTGlyph>
    <TTGlyph name="gdotaccent.sc" xMin="69" yMin="-16" xMax="713" yMax="831">
      <component glyphName="g.sc" x="0" y="0" flags="0x204"/>
      <component glyphName="dotaccent" x="145" y="66" flags="0x4"/>
    </TTGlyph>
</ttFont>
